
<svg xmlns="http://www.w3.org/2000/svg" width="1800" height="1100" role="img" data-icon="paw" data-prefix="fas" focusable="false" aria-hidden="true" style=""><rect id="backgroundrect" width="100%" height="100%" x="0" y="0" fill="none" stroke="none"/>

 <g style="" class="currentLayer">
  <title>Layer 1</title>
  <path transform="rotate(3.7177999019622803 914.773010253906,483.33795166015517) " opstroke="null" id="svg_1" d="m914.78161,429.5207502835655 c-131.02185,0 -316.78875,206.47787 -316.78875,336.81324 c0,58.70053 44.23493,93.76948 118.3668,93.76948 c80.58314,0 133.79375,-42.18365 198.42196,-42.18365 c65.18919,0 118.54829,42.18365 198.42196,42.18365 c74.13187,0 118.3668,-35.06894 118.3668,-93.76948 c0,-130.33537 -185.7669,-336.81324 -316.78875,-336.81324 zm-243.00337,-21.20956 c-17.15939,-58.28004 -70.02351,-96.02331 -118.06981,-84.31684 c-48.04629,11.70647 -73.07591,68.4391 -55.91651,126.71915 c17.15939,58.28004 70.02351,96.02331 118.06981,84.31684 c48.04629,-11.70647 73.07591,-68.4391 55.91651,-126.71915 zm139.78304,-34.95121 c51.04919,-13.69118 76.59028,-83.99727 57.05497,-157.02813 s-76.75527,-121.11821 -127.80446,-107.42702 s-76.59028,83.99727 -57.05497,157.02813 c19.53531,73.03087 76.77177,121.13503 127.80446,107.42702 zm464.27702,-49.34882 c-48.04629,-11.70647 -100.89392,26.0368 -118.06981,84.31684 c-17.15939,58.28004 7.87022,115.01268 55.91651,126.71915 c48.04629,11.70647 100.89392,-26.0368 118.06981,-84.31684 c17.15939,-58.28004 -7.87022,-115.01268 -55.91651,-126.71915 zm-257.83635,49.34882 c51.04919,13.69118 108.26916,-34.39616 127.80446,-107.42702 c19.53531,-73.03087 -6.00579,-143.32013 -57.05497,-157.02813 s-108.26916,34.39616 -127.80446,107.42702 c-19.53531,73.03087 6.00579,143.33695 57.05497,157.02813 z" fill="#494454" class="selected"/><path transform="rotate(-131.48008728027344 482.96939086914045,1012.2087402343748) " opstroke="null" d="m482.97062929563367,1004.071029199896 c-19.811991994827512,0 -47.90205739768911,31.221799322395736 -47.90205739768911,50.92998774350932 c0,8.876186914259966 6.688823879770857,14.179010501829568 17.89840468634315,14.179010501829568 c12.18508611043169,0 20.23113476078954,-6.37864704331839 30.00365422345956,-6.37864704331839 c9.857346010831701,0 17.92584803588478,6.37864704331839 30.00365422345956,6.37864704331839 c11.20958080657229,0 17.89840468634315,-5.302822075456012 17.89840468634315,-14.179010501829568 c0,-19.708188421113594 -28.0900654028616,-50.92998774350932 -47.90205739768911,-50.92998774350932 zm-36.74486981489048,-3.2071263910089334 c-2.5946946812010605,-8.812604049921651 -10.588350107785262,-14.519815199043826 -17.853496424839104,-12.74966396146255 c-7.2651448049402525,1.7701512375812771 -11.049907659941724,10.348769318500688 -8.455211466627073,19.161374880535927 c2.5946946812010605,8.812604049921651 10.588350107785262,14.519815199043826 17.853496424839104,12.74966396146255 c7.2651448049402525,-1.7701512375812771 11.049907659941724,-10.348769318500688 8.455211466627073,-19.161374880535927 zm21.136783441026466,-5.285019962163069 c7.719217394827111,-2.070261933866317 11.581320323607077,-12.701341347472692 8.627359550373649,-23.74443693569228 s-11.606268685725505,-18.31444913155964 -19.325486080552615,-16.244185685579733 s-11.581320323607077,12.701341347472692 -8.627359550373649,23.74443693569228 c2.953960773233425,11.043097100333178 11.608763673148708,18.31699250661772 19.325486080552615,16.244185685579733 zm70.20395913828398,-7.462102136354995 c-7.2651448049402525,-1.7701512375812771 -15.256306756214837,3.9370599115408993 -17.853496424839104,12.74966396146255 c-2.5946946812010605,8.812604049921651 1.190066661686821,17.391223642954657 8.455211466627073,19.161374880535927 c7.2651448049402525,1.7701512375812771 15.256306756214837,-3.9370599115408993 17.853496424839104,-12.74966396146255 c2.5946946812010605,-8.812604049921651 -1.190066661686821,-17.391223642954657 -8.455211466627073,-19.161374880535927 zm-38.98778487844236,7.462102136354995 c7.719217394827111,2.070261933866317 16.37152681943278,-5.201090097360145 19.325486080552615,-16.244185685579733 c2.953960773233425,-11.043097100333178 -0.9081436676601286,-21.671631626767887 -8.627359550373649,-23.74443693569228 s-16.37152681943278,5.201090097360145 -19.325486080552615,16.244185685579733 c-2.953960773233425,11.043097100333178 0.9081436676601286,21.674175001825965 8.627359550373649,23.74443693569228 z" fill="#494454" class="" id="svg_2" opacity="0.74"/><path transform="rotate(154.522705078125 667.74560546875,979.6591796875) " opstroke="null" d="m667.7464194346612,973.8731609040143 c-14.08662175137174,0 -34.05907714125441,22.19916490813484 -34.05907714125441,36.21198077064238 c0,6.311101260706129 4.75585352449539,10.081487908946617 12.726032638985547,10.081487908946617 c8.66377793259547,0 14.384638508367823,-4.535313168316983 21.333045577404178,-4.535313168316983 c7.008720009741162,0 12.745545269754052,4.535313168316983 21.333045577404178,4.535313168316983 c7.970179114490157,0 12.726032638985547,-3.7703855731051763 12.726032638985547,-10.081487908946617 c0,-14.012815862507544 -19.97245538988267,-36.21198077064238 -34.05907714125441,-36.21198077064238 zm-26.126150390172597,-2.2803146897484967 c-1.8448666112886567,-6.265892895992653 -7.528474823652671,-10.323805130859558 -12.69410219536916,-9.065201203852112 c-5.165626296581177,1.2586039270074476 -7.856649126136469,7.358129309762498 -6.011781439712502,13.624023280890462 c1.8448666112886567,6.265892895992653 7.528474823652671,10.323805130859558 12.69410219536916,9.065201203852112 c5.165626296581177,-1.2586039270074476 7.856649126136469,-7.358129309762498 6.011781439712502,-13.624023280890462 zm15.02856822535223,-3.7577280050828277 c5.488478679273027,-1.471987107417166 8.23449145460587,-9.030843104702345 6.134181294386105,-16.882648746260482 s-8.252230112110391,-13.021846443728357 -13.740708791383417,-11.54985826117588 s-8.23449145460587,9.030843104702345 -6.134181294386105,16.882648746260482 c2.100310160219764,7.851806716693451 8.254004085374376,13.02365482132231 13.740708791383417,11.54985826117588 zm49.91606185223345,-5.305665896310643 c-5.165626296581177,-1.2586039270074476 -10.847461610816516,2.7993083078594583 -12.69410219536916,9.065201203852112 c-1.8448666112886567,6.265892895992653 0.846155143131325,12.36541935388302 6.011781439712502,13.624023280890462 c5.165626296581177,1.2586039270074476 10.847461610816516,-2.7993083078594583 12.69410219536916,-9.065201203852112 c1.8448666112886567,-6.265892895992653 -0.846155143131325,-12.36541935388302 -6.011781439712502,-13.624023280890462 zm-27.7208964474574,5.305665896310643 c5.488478679273027,1.471987107417166 11.640399706298965,-3.6980526196177403 13.740708791383417,-11.54985826117588 c2.100310160219764,-7.851806716693451 -0.6457036902483908,-15.408853261249368 -6.134181294386105,-16.882648746260482 s-11.640399706298965,3.6980526196177403 -13.740708791383417,11.54985826117588 c-2.100310160219764,7.851806716693451 0.6457036902483908,15.410661638843319 6.134181294386105,16.882648746260482 z" fill="#494454" class="" opacity="0.67" id="svg_3"/>
 </g>
</svg>