
<svg xmlns="http://www.w3.org/2000/svg" width="2000" height="900" role="img" data-icon="paw" data-prefix="fas" focusable="false" aria-hidden="true" style=""><rect id="backgroundrect" width="100%" height="100%" x="0" y="0" fill="none" stroke="none"/>

 <g style="" class="currentLayer">
  <title>Layer 1</title>
  <path transform="rotate(158.79200744628906 1470.4300537109377,71.07830047607423) " opacity="0.1" stroke="null" id="svg_1" d="m1470.42766,68.96036c-5.25648,0 -12.70928,8.126 -12.70928,13.25538c0,2.31018 1.77467,3.69033 4.74877,3.69033c3.23292,0 5.36769,-1.66015 7.96051,-1.66015c2.61533,0 4.75605,1.66015 7.96051,1.66015c2.9741,0 4.74877,-1.38015 4.74877,-3.69033c0,-5.12939 -7.4528,-13.25538 -12.70928,-13.25538zm-9.74908,-0.83471c-0.68842,-2.29363 -2.80928,-3.77903 -4.73685,-3.31831c-1.92757,0.46071 -2.93174,2.69344 -2.24332,4.98707c0.68842,2.29363 2.80928,3.77903 4.73685,3.31831c1.92757,-0.46071 2.93174,-2.69344 2.24332,-4.98707zm5.60797,-1.37551c2.04805,-0.53882 3.07273,-3.30574 2.28899,-6.17989s-3.07935,-4.76664 -5.1274,-4.22782s-3.07273,3.30574 -2.28899,6.17989c0.78374,2.87415 3.08001,4.7673 5.1274,4.22782zm18.62638,-1.94214c-1.92757,-0.46071 -4.04777,1.02469 -4.73685,3.31831c-0.68842,2.29363 0.31575,4.52636 2.24332,4.98707c1.92757,0.46071 4.04777,-1.02469 4.73685,-3.31831c0.68842,-2.29363 -0.31575,-4.52636 -2.24332,-4.98707zm-10.34416,1.94214c2.04805,0.53882 4.34366,-1.35367 5.1274,-4.22782c0.78374,-2.87415 -0.24095,-5.64041 -2.28899,-6.17989s-4.34366,1.35367 -5.1274,4.22782c-0.78374,2.87415 0.24095,5.64107 2.28899,6.17989z" fill="#494454"/>
  <path transform="rotate(148.02499389648438 1481.9699707031248,239.60000610351557) " opacity="0.3" stroke="null" id="svg_2" d="m1481.97384,236.6631c-7.28947,0 -17.6247,11.26879 -17.6247,18.38202c0,3.20365 2.46103,5.11759 6.58539,5.11759c4.48329,0 7.44369,-2.30223 11.03931,-2.30223c3.62684,0 6.5955,2.30223 11.03931,2.30223c4.12437,0 6.5854,-1.91394 6.5854,-5.11759c0,-7.11323 -10.33524,-18.38202 -17.62471,-18.38202zm-13.51962,-1.15754c-0.95467,-3.18071 -3.89579,-5.2406 -6.56887,-4.6017c-2.67308,0.63889 -4.06562,3.73515 -3.11095,6.91586c0.95468,3.18071 3.8958,5.24059 6.56888,4.6017c2.67308,-0.6389 4.06562,-3.73515 3.11094,-6.91586zm7.77691,-1.90751c2.84014,-0.74721 4.26114,-4.58426 3.17428,-8.57001s-4.27032,-6.61019 -7.11047,-5.86297s-4.26114,4.58426 -3.17428,8.57001c1.08685,3.98576 4.27124,6.6111 7.11047,5.86297zm25.83029,-2.69328c-2.67308,-0.63889 -5.61329,1.421 -6.56888,4.60171c-0.95467,3.1807 0.43787,6.27696 3.11095,6.91586c2.67308,0.63889 5.61328,-1.421 6.56887,-4.6017c0.95468,-3.18071 -0.43786,-6.27697 -3.11094,-6.91587zm-14.34486,2.69328c2.84015,0.74721 6.02361,-1.87721 7.11047,-5.86297c1.08685,-3.98575 -0.33414,-7.82188 -3.17429,-8.57001s-6.02361,1.87721 -7.11046,5.86297c-1.08686,3.98575 0.33413,7.8228 3.17428,8.57001z" fill="#494454"/>
  <path stroke="null" transform="rotate(-165.25399780273438 1409.1600341796875,142.1869964599609) " opacity="0.3" id="svg_3" d="m1409.15685,139.62374c-6.3607,0 -15.37908,9.833 -15.37908,16.03991c0,2.79546 2.14746,4.46554 5.74633,4.46554c3.91206,0 6.49527,-2.0089 9.63276,-2.0089c3.16473,0 5.75515,2.0089 9.63276,2.0089c3.59887,0 5.74633,-1.67008 5.74633,-4.46554c0,-6.20691 -9.0184,-16.03991 -15.37909,-16.03991l-0.00001,0zm-11.79704,-1.01005c-0.83303,-2.77545 -3.39942,-4.57288 -5.73191,-4.01538c-2.33249,0.55749 -3.54761,3.25924 -2.71457,6.03469c0.83304,2.77545 3.39942,4.57287 5.73192,4.01538c2.33249,-0.5575 3.54761,-3.25924 2.71457,-6.03469l-0.00001,0zm6.78603,-1.66447c2.47827,-0.65201 3.71821,-4.00017 2.76984,-7.47808s-3.72623,-5.76797 -6.2045,-5.11595s-3.71821,4.00017 -2.76984,7.47808c0.94837,3.47792 3.72703,5.76876 6.2045,5.11595zm22.53917,-2.35012c-2.33249,-0.55749 -4.89808,1.23995 -5.73192,4.01539c-0.83303,2.77544 0.38208,5.47719 2.71457,6.03469c2.33249,0.55749 4.89807,-1.23995 5.73191,-4.01538c0.83304,-2.77545 -0.38207,-5.4772 -2.71457,-6.0347l0.00001,0zm-12.51714,2.35012c2.47828,0.65201 5.25612,-1.63803 6.2045,-5.11595c0.94837,-3.47791 -0.29157,-6.82527 -2.76984,-7.47808s-5.25612,1.63803 -6.20449,5.11595c-0.94838,3.47791 0.29156,6.82607 2.76984,7.47808l-0.00001,0z" fill="#494454"/>
  <path transform="rotate(148.02499389648438 1481.9699707031248,239.60000610351557) " stroke="null" opacity="0.5" id="svg_4" d="m1481.97384,236.6631c-7.28947,0 -17.6247,11.26879 -17.6247,18.38202c0,3.20365 2.46103,5.11759 6.58539,5.11759c4.48329,0 7.44369,-2.30223 11.03931,-2.30223c3.62684,0 6.5955,2.30223 11.03931,2.30223c4.12437,0 6.5854,-1.91394 6.5854,-5.11759c0,-7.11323 -10.33524,-18.38202 -17.62471,-18.38202zm-13.51962,-1.15754c-0.95467,-3.18071 -3.89579,-5.2406 -6.56887,-4.6017c-2.67308,0.63889 -4.06562,3.73515 -3.11095,6.91586c0.95468,3.18071 3.8958,5.24059 6.56888,4.6017c2.67308,-0.6389 4.06562,-3.73515 3.11094,-6.91586zm7.77691,-1.90751c2.84014,-0.74721 4.26114,-4.58426 3.17428,-8.57001s-4.27032,-6.61019 -7.11047,-5.86297s-4.26114,4.58426 -3.17428,8.57001c1.08685,3.98576 4.27124,6.6111 7.11047,5.86297zm25.83029,-2.69328c-2.67308,-0.63889 -5.61329,1.421 -6.56888,4.60171c-0.95467,3.1807 0.43787,6.27696 3.11095,6.91586c2.67308,0.63889 5.61328,-1.421 6.56887,-4.6017c0.95468,-3.18071 -0.43786,-6.27697 -3.11094,-6.91587zm-14.34486,2.69328c2.84015,0.74721 6.02361,-1.87721 7.11047,-5.86297c1.08685,-3.98575 -0.33414,-7.82188 -3.17429,-8.57001s-6.02361,1.87721 -7.11046,5.86297c-1.08686,3.98575 0.33413,7.8228 3.17428,8.57001z" fill="#494454" class=""/>
  <path transform="rotate(-160.80099487304688 1361.81005859375,302.62600708007807) " stroke="null" opacity="0.6" id="svg_5" d="m1361.80557,299.68841c-7.28947,0 -17.6247,11.26879 -17.6247,18.38202c0,3.20365 2.46103,5.11759 6.58539,5.11759c4.48329,0 7.44369,-2.30223 11.03931,-2.30223c3.62684,0 6.5955,2.30223 11.03931,2.30223c4.12437,0 6.5854,-1.91394 6.5854,-5.11759c0,-7.11323 -10.33524,-18.38202 -17.62471,-18.38202zm-13.51962,-1.15754c-0.95467,-3.18071 -3.89579,-5.2406 -6.56887,-4.6017c-2.67308,0.63889 -4.06562,3.73515 -3.11095,6.91586c0.95468,3.18071 3.8958,5.24059 6.56888,4.6017c2.67308,-0.6389 4.06562,-3.73515 3.11094,-6.91586zm7.77691,-1.90751c2.84014,-0.74721 4.26114,-4.58426 3.17428,-8.57001s-4.27032,-6.61019 -7.11047,-5.86297s-4.26114,4.58426 -3.17428,8.57001c1.08685,3.98576 4.27124,6.6111 7.11047,5.86297zm25.83029,-2.69328c-2.67308,-0.63889 -5.61329,1.421 -6.56888,4.60171c-0.95467,3.1807 0.43787,6.27696 3.11095,6.91586c2.67308,0.63889 5.61328,-1.421 6.56887,-4.6017c0.95468,-3.18071 -0.43786,-6.27697 -3.11094,-6.91587zm-14.34486,2.69328c2.84015,0.74721 6.02361,-1.87721 7.11047,-5.86297c1.08685,-3.98575 -0.33414,-7.82188 -3.17429,-8.57001s-6.02361,1.87721 -7.11046,5.86297c-1.08686,3.98575 0.33413,7.8228 3.17428,8.57001z" fill="#494454"/>
  <path transform="rotate(153.32400512695312 323.28399658203125,388.5339965820313) " id="svg_6" opacity="0.5" d="m323.28395,385.68792c-7.06435,0 -17.08041,10.92078 -17.08041,17.81434c0,3.10472 2.38503,4.95955 6.38202,4.95955c4.34484,0 7.21381,-2.23113 10.69839,-2.23113c3.51483,0 6.39182,2.23113 10.69839,2.23113c3.997,0 6.38202,-1.85483 6.38202,-4.95955c0,-6.89355 -10.01606,-17.81434 -17.08041,-17.81434zm-13.1021,-1.12179c-0.92518,-3.08248 -3.77548,-5.07876 -6.36601,-4.45959c-2.59053,0.61916 -3.94006,3.6198 -3.01488,6.70228c0.9252,3.08248 3.77549,5.07875 6.36602,4.45959c2.59053,-0.61917 3.94006,-3.6198 3.01487,-6.70228zm7.53674,-1.8486c2.75243,-0.72414 4.12955,-4.44269 3.07625,-8.30535s-4.13845,-6.40605 -6.89088,-5.6819s-4.12955,4.44269 -3.07625,8.30535c1.05328,3.86267 4.13933,6.40694 6.89088,5.6819zm25.03259,-2.61011c-2.59053,-0.61916 -5.43993,1.37711 -6.36602,4.4596c-0.92518,3.08247 0.42434,6.08311 3.01488,6.70228c2.59053,0.61916 5.43993,-1.37711 6.36601,-4.45959c0.9252,-3.08248 -0.42434,-6.08312 -3.01487,-6.70229l0,-0.00001l0,0.00001zm-13.90186,2.61011c2.75244,0.72414 5.83759,-1.81923 6.89088,-5.6819c1.05328,-3.86266 -0.32382,-7.58032 -3.07626,-8.30535s-5.83759,1.81923 -6.89087,5.6819c-1.05329,3.86266 0.32381,7.58121 3.07625,8.30535z" fill="#494454" stroke="null"/>
  <path transform="rotate(148.48399353027344 337.4509887695312,561.8499755859376) " stroke="null" opacity="0.7" id="svg_7" d="m337.45084,558.35957c-8.66314,0 -20.94601,13.39235 -20.94601,21.84604c0,3.80737 2.92481,6.08198 7.82639,6.08198c5.32815,0 8.84642,-2.73607 13.11962,-2.73607c4.31031,0 7.8384,2.73607 13.11963,2.73607c4.90159,0 7.82639,-2.27461 7.82639,-6.08198c0,-8.45369 -12.28287,-21.84604 -20.94602,-21.84604zm-16.06734,-1.37568c-1.13457,-3.7801 -4.62994,-6.22817 -7.80675,-5.46887c-3.17681,0.75929 -4.83177,4.43903 -3.69719,8.21913c1.13458,3.7801 4.62994,6.22816 7.80676,5.46887c3.17681,-0.7593 4.83177,-4.43902 3.69718,-8.21913zm9.24244,-2.26697c3.37536,-0.88802 5.06414,-5.44815 3.77246,-10.185s-5.07504,-7.85585 -8.45041,-6.96782s-5.06414,5.44815 -3.77246,10.185c1.29166,4.73686 5.07614,7.85693 8.45041,6.96782zm30.69791,-3.20082c-3.17681,-0.75928 -6.67109,1.68878 -7.80676,5.46889c-1.13457,3.78009 0.52039,7.45983 3.6972,8.21913c3.17681,0.75928 6.67108,-1.68879 7.80675,-5.46888c1.13458,-3.7801 -0.52037,-7.45984 -3.69719,-8.21914zm-17.04809,3.20082c3.37536,0.88802 7.15873,-2.23096 8.45041,-6.96782c1.29166,-4.73685 -0.39711,-9.29589 -3.77247,-10.185s-7.15874,2.23096 -8.4504,6.96782c-1.29168,4.73685 0.39709,9.29698 3.77246,10.185z" fill="#494454"/>
  <path transform="rotate(-25.545499801635742 442.11898803710926,57.11349868774425) " stroke="null" id="svg_9" d="m419.02348,51.93404l17.64361,0l5.45201,-16.76136l5.45201,16.76136l17.64361,0l-14.27395,10.35897l5.45229,16.76136l-14.27396,-10.35925l-14.27396,10.35925l5.45229,-16.76136l-14.27396,-10.35897z" fill="#fbdf3b" class=""/>
  <path transform="rotate(22.1018009185791 391.5130004882814,128.60600280761716) " stroke="null" id="svg_10" d="m362.45363,122.08954l22.19942,0l6.85979,-21.08936l6.8598,21.08936l22.1994,0l-17.95967,13.03379l6.86014,21.08935l-17.95968,-13.03414l-17.95967,13.03414l6.86014,-21.08935l-17.95968,-13.03379z" fill="#fbdf3b"/>
  <path d="M0 477L33.3 488.5C66.7 500 133.3 523 200 549.2C266.7 575.3 333.3 604.7 400 595.2C466.7 585.7 533.3 537.3 600 519.3C666.7 501.3 733.3 513.7 800 525.2C866.7 536.7 933.3 547.3 1000 540C1066.7 532.7 1133.3 507.3 1200 494.3C1266.7 481.3 1333.3 480.7 1400 476.8C1466.7 473 1533.3 466 1600 486C1666.7 506 1733.3 553 1800 566.7C1866.7 580.3 1933.3 560.7 1966.7 550.8L2000 541L2000 901L1966.7 901C1933.3 901 1866.7 901 1800 901C1733.3 901 1666.7 901 1600 901C1533.3 901 1466.7 901 1400 901C1333.3 901 1266.7 901 1200 901C1133.3 901 1066.7 901 1000 901C933.3 901 866.7 901 800 901C733.3 901 666.7 901 600 901C533.3 901 466.7 901 400 901C333.3 901 266.7 901 200 901C133.3 901 66.7 901 33.3 901L0 901Z" fill="#877aff" id="svg_8" class=""/><path d="M0 685L33.3 673.3C66.7 661.7 133.3 638.3 200 628.8C266.7 619.3 333.3 623.7 400 619C466.7 614.3 533.3 600.7 600 587.8C666.7 575 733.3 563 800 582.2C866.7 601.3 933.3 651.7 1000 672.5C1066.7 693.3 1133.3 684.7 1200 657.5C1266.7 630.3 1333.3 584.7 1400 582.3C1466.7 580 1533.3 621 1600 645.3C1666.7 669.7 1733.3 677.3 1800 687.7C1866.7 698 1933.3 711 1966.7 717.5L2000 724L2000 901L1966.7 901C1933.3 901 1866.7 901 1800 901C1733.3 901 1666.7 901 1600 901C1533.3 901 1466.7 901 1400 901C1333.3 901 1266.7 901 1200 901C1133.3 901 1066.7 901 1000 901C933.3 901 866.7 901 800 901C733.3 901 666.7 901 600 901C533.3 901 466.7 901 400 901C333.3 901 266.7 901 200 901C133.3 901 66.7 901 33.3 901L0 901Z" fill="#5f51fd" id="svg_11" class=""/><path transform="rotate(-25.545499801635742 1330.0285644531255,627.9462890625) " stroke="null" d="m1276.9034692260097,616.0322466572754 l40.58455660870207,0 l12.540937397517276,-38.555168911511565 l12.540937397517276,38.555168911511565 l40.58455660870207,0 l-32.833526234414784,23.82812839168665 l12.54158146502106,38.555168911511565 l-32.83354923682563,-23.828772459190432 l-32.83354923682563,23.828772459190432 l12.54158146502106,-38.555168911511565 l-32.83354923682563,-23.82812839168665 z" fill="#fbdf3b" class="" id="svg_14"/><path fill="#fbdf3b" stroke="null" stroke-dashoffset="" fill-rule="nonzero" marker-start="" marker-mid="" marker-end="" d="M551.6878746849698,668.8781396076593 C551.3002582164356,668.8869226830449 550.9256754512705,668.9103213448517 550.5364604532481,668.9380901012953 C544.3090144982812,669.3824116474638 538.8126233927171,672.2133966972232 536.0203934404942,676.4317517050342 L534.5399934506117,679.6240522343943 C534.8593760576448,678.5177664207417 535.3497833628921,677.4448631553694 536.0203934404942,676.4317517050342 C531.0408183058194,672.7360797441754 524.0514844412696,671.0303018599542 517.145387865181,671.8306467396723 C510.23928530201647,672.6309873307795 504.24163844359146,675.8407124867983 500.96388059264154,680.4933193820484 C491.7107056215659,676.4110034048481 480.1764409914258,676.6582504081663 471.2532276598822,681.1377775393067 C462.3300143283732,685.6173003818539 457.5739579253134,693.5486576277017 459.01942974564986,701.550506773075 L459.9652383556918,704.8027577960856 C459.5378382591489,703.7372866936307 459.2186532231053,702.653365986533 459.01942974564986,701.550506773075 L458.8755022183643,701.8502549526759 C451.1189041164405,702.4557639445331 444.7575349144304,706.7667743937254 443.1052121760388,712.5362213743912 C441.4528894376133,718.3056640664431 444.8886801925437,724.2255083474366 451.61746571839967,727.2088077066834 L462.1241392916413,729.0372655981657 C458.45548409520757,729.2535788500987 454.7928039266169,728.6166386279498 451.61746571839967,727.2088077066834 C446.42731575053904,731.3733835321276 445.23298668881125,737.5389394937039 448.65668369974424,742.6307687765752 C452.08037472363526,747.7225894822634 459.39214456618606,750.6544812610372 466.9354138139263,749.9895406974952 L471.52051736280123,749.1202735498316 C470.045242246661,749.5626008918574 468.5130726507696,749.8504696188845 466.9354138139263,749.9895406974952 C471.2176708551797,755.6364749267485 478.3182072942725,759.7557244221903 486.6534132144841,761.3948873112136 C494.9886191346418,763.0340544888762 503.84201803618134,762.0652915652311 511.2238118537514,758.7121638334736 C517.2458856802002,765.5149816630242 527.9342108802477,769.0880808318949 538.6521956879401,767.88439637307 C549.3701745087374,766.6807119142068 558.2114557182535,760.9087003441721 561.3515424590137,753.0769289351175 L562.4412726093194,748.700628671562 C562.278102857648,750.1873914789087 561.9240315612242,751.6490830661668 561.3515424590137,753.0769289351175 C568.7235116063323,756.5399351701927 577.9965993459241,756.7350884152786 585.6135266788126,753.5864974095506 C593.2304540117243,750.4379064038383 597.9832115767745,744.433936728816 598.0529362017828,737.8947741283998 L595.3222167076615,728.1243318129798 L584.5649152579549,721.5136308919239 C592.8830103265489,725.2460819810038 598.12715107813,730.9328316751073 598.0529362017828,737.8947741283998 C607.9435831943606,737.9690228512355 616.3449754212998,731.8981465554524 620.1148947690706,724.9307447002684 C623.8848141168899,717.9633342678939 622.4587222218547,710.020097569502 616.3727790584514,704.053404501558 C618.8971206076415,699.610948124193 618.747355753392,694.5576820317333 615.9615738022198,690.2051192302184 C613.1757738900667,685.8525564286975 608.0371660221992,682.6175198904267 601.8567120456457,681.3476106999807 C600.4736068248235,675.5788241654067 594.7724363039094,670.9384569660535 587.2378422219945,669.4177026276424 C579.70324814015,667.8969482892616 571.6802763467363,669.7721734840321 566.6357182927673,674.2436208719819 L563.5721274762498,677.9454898757867 C564.3549459446485,676.6068085188475 565.3773342968866,675.359024272704 566.6357182927673,674.2436208719819 C563.079684590306,670.7293957553645 557.5021875690506,668.7464363627928 551.687862710944,668.8781567620902 L551.6878746849698,668.8781396076593 z" style="color: rgb(0, 0, 0);" class="" id="svg_20" transform="rotate(15.653996467590332 532.4437255859369,718.4935302734374) "/><path d="M0 719L33.3 728.3C66.7 737.7 133.3 756.3 200 752.7C266.7 749 333.3 723 400 719.2C466.7 715.3 533.3 733.7 600 736.2C666.7 738.7 733.3 725.3 800 717.5C866.7 709.7 933.3 707.3 1000 695.5C1066.7 683.7 1133.3 662.3 1200 655.3C1266.7 648.3 1333.3 655.7 1400 676C1466.7 696.3 1533.3 729.7 1600 736.7C1666.7 743.7 1733.3 724.3 1800 724.8C1866.7 725.3 1933.3 745.7 1966.7 755.8L2000 766L2000 901L1966.7 901C1933.3 901 1866.7 901 1800 901C1733.3 901 1666.7 901 1600 901C1533.3 901 1466.7 901 1400 901C1333.3 901 1266.7 901 1200 901C1133.3 901 1066.7 901 1000 901C933.3 901 866.7 901 800 901C733.3 901 666.7 901 600 901C533.3 901 466.7 901 400 901C333.3 901 266.7 901 200 901C133.3 901 66.7 901 33.3 901L0 901Z" fill="#3f34e6" id="svg_12" class=""/><path d="M0 846L33.3 836C66.7 826 133.3 806 200 806.5C266.7 807 333.3 828 400 832C466.7 836 533.3 823 600 811.7C666.7 800.3 733.3 790.7 800 792.8C866.7 795 933.3 809 1000 800.8C1066.7 792.7 1133.3 762.3 1200 751.8C1266.7 741.3 1333.3 750.7 1400 766.2C1466.7 781.7 1533.3 803.3 1600 807.8C1666.7 812.3 1733.3 799.7 1800 789.5C1866.7 779.3 1933.3 771.7 1966.7 767.8L2000 764L2000 901L1966.7 901C1933.3 901 1866.7 901 1800 901C1733.3 901 1666.7 901 1600 901C1533.3 901 1466.7 901 1400 901C1333.3 901 1266.7 901 1200 901C1133.3 901 1066.7 901 1000 901C933.3 901 866.7 901 800 901C733.3 901 666.7 901 600 901C533.3 901 466.7 901 400 901C333.3 901 266.7 901 200 901C133.3 901 66.7 901 33.3 901L0 901Z" fill="#3026bc" id="svg_13"/>
</g>
</svg>