<svg width="2000" height="1000" xmlns="http://www.w3.org/2000/svg" preserveAspectRatio="none" version="1.1">
 <defs>
  <mask id="SvgjsMask1067">
   <rect id="svg_1" fill="#ffffff" height="1000" width="2000"/>
  </mask>
 </defs>
 <g>
  <title>Layer 1</title>
  <g id="svg_11">
   <!--! Font Awesome Pro 6.0.0 by @fontawesome - https://fontawesome.com License - https://fontawesome.com/license (Commercial License) Copyright 2022 Fonticons, Inc. -->
   <g id="svg_12">
    <title>Layer 1</title>
    <g id="svg_13" transform="rotate(-147.7 944 538)">
     <path id="svg_14" d="m944.0049,506.00365c-79.41,0 -192,122.76 -192,200.25c0,34.9 26.81,55.75 71.74,55.75c48.84,0 81.09,-25.08 120.26,-25.08c39.51,0 71.85,25.08 120.26,25.08c44.93,0 71.74,-20.85 71.74,-55.75c0,-77.49 -112.59,-200.25 -192,-200.25zm-147.28,-12.61c-10.4,-34.65 -42.44,-57.09 -71.56,-50.13c-29.12,6.96 -44.29,40.69 -33.89,75.34c10.4,34.65 42.44,57.09 71.56,50.13c29.12,-6.96 44.29,-40.69 33.89,-75.34zm84.72,-20.78c30.94,-8.14 46.42,-49.94 34.58,-93.36s-46.52,-72.01 -77.46,-63.87s-46.42,49.94 -34.58,93.36c11.84,43.42 46.53,72.02 77.46,63.87zm281.39,-29.34c-29.12,-6.96 -61.15,15.48 -71.56,50.13c-10.4,34.65 4.77,68.38 33.89,75.34c29.12,6.96 61.15,-15.48 71.56,-50.13c10.4,-34.65 -4.77,-68.38 -33.89,-75.34zm-156.27,29.34c30.94,8.14 65.62,-20.45 77.46,-63.87c11.84,-43.42 -3.64,-85.21 -34.58,-93.36s-65.62,20.45 -77.46,63.87c-11.84,43.42 3.64,85.22 34.58,93.36z" fill="#494454"/>
    </g>
   </g>
  </g>
  <g id="svg_2" fill="none" mask="url('#SvgjsMask1067')">
   <path transform="rotate(180 1006 257.526)" id="svg_4" fill="#99b9ff" d="m2039.33366,434.80298l-2066.66667,0l0,-193.86q31.99,-134.68 166.66667,-102.69q92.92333,-73.74 166.66666,19.18q68.20667,-98.46 166.66667,-30.25q41.82,-58.18 100,-16.36q85.43,-14.57 100,70.87q72.85,-93.82 166.66667,-20.97q112.57333,-54.1 166.66666,58.47q43.56667,-123.1 166.66667,-79.54q117.31,-49.36 166.66667,67.95q59.95333,-40.05 100,19.9q22.22333,-144.45 166.66666,-122.23q102.08667,-64.58 166.66667,37.51q70.99,-95.67 166.66667,-24.68q89.75333,-10.25 100,79.5l0,237.2z"/>
   <path transform="rotate(180 1002 120.438)" stroke="null" id="svg_5" fill="rgba(254, 244, 224, 1)" d="m2035.33366,248.6261l-2066.66667,0l0,-99.02762q81.36,-90.23762 166.66667,-4.17816q95.30333,-75.48185 166.66666,25.32281q8.51667,-96.77459 100,-87.76246q21.62667,-82.89676 100,-60.01738q66.69667,-35.22345 100,35.31865q75.27667,-26.14786 100,53.48042q44.26667,-58.94904 100,-12.12195q56.34667,-116.69224 166.66667,-57.08738q37.21,-66.42742 100,-27.06811q74.47,-27.00465 100,51.75626q133.33,-35.26576 166.66667,105.76556q46.18333,-127.44967 166.66666,-78.60225q11.54667,-93.55899 100,-81.34185q55.64667,-46.9223 100,11.94213q112.55667,-57.23547 166.66667,61.81558q109.42,-60.55684 166.66667,55.18341l0,106.62235l0,-0.00001z"/>
   <path transform="rotate(180 1002 89.003)" id="svg_6" fill="rgba(254, 244, 224, 1)" d="m2035.33366,137.75605l-2066.66667,0l0,-56.04q94.92,-5.08 100,89.85q47.46,-119.21 166.66667,-71.75q56.17333,-43.83 100,12.35q40.69333,-125.98 166.66666,-85.29q101.42667,-65.24 166.66667,36.18q107.78,-58.88 166.66667,48.9q77.07333,-22.93 100,54.14q9.80333,-90.2 100,-80.4q53.49333,-113.17 166.66666,-59.67q127.00667,-39.66 166.66667,87.34q50.24,-116.43 166.66667,-66.19q76.13333,-90.53 166.66666,-14.4q135.25667,-31.41 166.66667,103.84q105.03,-61.64 166.66667,43.39l0,-42.25z"/>
   <g id="svg_3"/>
   <path stroke="null" id="svg_25" fill="#99CAFF" d="m2043.33329,998.00001l-2066.66667,0l0,-205.88901q31.99,-143.03689 166.66667,-109.06191q92.92333,-78.31557 166.66666,20.37012q68.20667,-104.56944 166.66667,-32.12701q41.82,-61.79007 100,-17.37514q85.43,-15.47407 100,75.26748q72.85,-99.64153 166.66667,-22.27119q112.57333,-57.4569 166.66666,62.09806q43.56667,-130.73835 166.66667,-84.47546q117.31,-52.42279 166.66667,72.1663q59.95333,-42.5351 100,21.13479q22.22333,-153.41312 166.66666,-129.81437q102.08667,-68.58719 166.66667,39.83749q70.99,-101.60632 166.66667,-26.21139q89.75333,-10.88601 100,84.43297l0,251.91826z"/>
   <g id="svg_9">
    <g id="svg_10">
     <title>Layer 1</title>
     <g transform="rotate(-0.535627 964 929.99)" stroke="null" id="svg_45">
      <g stroke="null" fill="none" mask="url(#svg_46)" id="svg_48">
       <path stroke="null" fill="rgba(255, 245, 224, 1)" d="m1930.66658,1135.19575l-2033.33333,0l0,-306.73066q94.23,-74.21366 166.66667,22.32352q62.64333,-106.56688 166.66666,-42.39317q86.07667,-14.26082 100,73.9268q118.96667,-48.86791 166.66667,73.01501q64.92,-104.2413 166.66667,-37.73176q38.75333,-62.73943 100,-23.04066q-3.57667,-106.11611 100,-109.78376q35.87333,-65.70019 100,-28.95193q73.81333,-26.821 100,48.7962q144.21333,-22.99968 166.66666,124.75148q26.32667,-75.48402 100,-48.50934q-25.50333,-128.57281 100,-154.69716q191.65667,25.60187 166.66667,221.94433q111.5,-56.51057 166.66667,57.71946q62.67333,-106.54639 166.66666,-42.34195l0,171.7036z" id="svg_52"/>
       <path stroke="null" fill="rgba(255, 245, 224, 1)" d="m2030.66658,1135.19575l-2133.33333,0l0,-35.40618q17.56,-152.76089 166.66667,-134.77094q75.58333,-93.31005 166.66666,-15.87951q139.73667,-27.58937 166.66667,115.56185q73.42,-27.22055 100,47.9971q13.33,-88.79207 100,-75.14594q30.11,-71.60122 100,-40.75399q92.13,-76.36508 166.66667,18.02068q98.59333,-1.44452 100,99.55941q7.19333,-95.08241 100,-87.71636q39.99333,-61.47932 100,-20.49994q109.39333,-58.67223 166.66666,53.39613q75.54667,-25.04865 100,52.35116q65.55667,-35.28325 100,31.88196q76.54667,-92.32654 166.66667,-13.9125q16.18,-154.16443 166.66667,-137.58827q90.30333,-78.23988 166.66666,14.27107l0,128.63428z" id="svg_49"/>
      </g>
      <defs stroke="null" transform="translate(0.0466523 -0.000217864) translate(0.00000285288 -1.33351e-8) translate(0 6) translate(2 -2) translate(-8 -12) translate(-16 60) translate(-6 42) translate(-10 50) translate(2 0) translate(1.99991 0) translate(0 -10.3847) translate(-2.00004 2.00004) translate(-66.6666 0) translate(0 -4.19501) translate(-102.667 726.17) scale(1 1.02448) translate(102.667 -726.17)">
       <mask stroke="null" id="svg_46">
        <rect stroke="null" fill="#ffffff" height="1000" width="2000" id="svg_47"/>
       </mask>
      </defs>
     </g>
     <g transform="rotate(-0.535627 -8.65172 9.05242)" id="svg_36" stroke="null"/>
    </g>
   </g>
  </g>
  <g class="currentLayer" id="svg_7">
   <title>Layer 1</title>
   <path fill="#fbdf3b" stroke-width="2" stroke-linejoin="round" fill-rule="nonzero" id="svg_26" d="m2622.31495,646.88434l-36.58216,12.2516l0,-24.50264l36.58216,12.25104zm-26.55827,-60.36676l-16.66361,33.02617l-18.39767,-17.32588l35.06128,-15.70029zm-64.09473,-25.00205l13.00932,34.44992l-26.01924,0l13.00992,-34.44992zm-64.1036,25.00205l35.07015,15.70029l-18.39802,17.32588l-16.67213,-33.02617zm-26.54956,60.36676l36.58227,-12.25104l0,24.50264l-36.58227,-12.2516zm26.54956,60.35936l16.67213,-33.0182l18.39802,17.32588l-35.07015,15.69232zm64.1036,25.00967l-13.00992,-34.44986l26.01924,0l-13.00932,34.44986zm64.09473,-25.00967l-35.06128,-15.69232l18.39767,-17.32588l16.66361,33.0182zm-109.4214,-60.35936l0,0c0,-23.57397 20.29359,-42.68452 45.32668,-42.68452c25.03309,0 45.32649,19.11055 45.32649,42.68452c0,23.57396 -20.2934,42.68451 -45.32649,42.68451c-25.03308,0 -45.32668,-19.11055 -45.32668,-42.68451z" stroke="#ffffff"/>
  </g>
  <path id="svg_35" d="m800.98042,768.72322l0.56913,0l0.17587,-0.54067l0.17587,0.54067l0.56913,0l-0.46044,0.33415l0.17588,0.54067l-0.46044,-0.33416l-0.46044,0.33416l0.17588,-0.54067l-0.46044,-0.33415z" stroke="null" fill="#99CAFF"/>
  <g stroke="null" id="svg_39"/>
  <path id="svg_41" d="m795.01047,280.99415l32.84933,0l10.1507,-31.20673l10.1507,31.20673l32.84933,0l-26.57562,19.2866l10.15122,31.20673l-26.57563,-19.28712l-26.57563,19.28712l10.15123,-31.20673l-26.57563,-19.2866z" stroke="null" fill="#feea80"/>
  <path id="svg_42" d="m1181.07075,456.86307l42.01658,0l12.98345,-39.91557l12.98345,39.91557l42.01657,0l-33.99206,24.6689l12.98412,39.91557l-33.99208,-24.66957l-33.99207,24.66957l12.98412,-39.91557l-33.99207,-24.6689l-0.00001,0z" stroke="null" fill="#feea80"/>
  <path transform="rotate(-39.2654 1621 692.297)" id="svg_43" d="m1593.00057,686.01813l21.39027,0l6.60976,-20.32067l6.60976,20.32067l21.39027,0l-17.30506,12.55872l6.6101,20.32067l-17.30507,-12.55906l-17.30506,12.55906l6.6101,-20.32067l-17.30507,-12.55872z" stroke="null" fill="#feea80"/>
  <path id="svg_50" d="m-181.11726,957.52673c-0.14282,0 -0.26541,0.07407 -0.32542,0.18099c-0.02397,-0.01338 -0.0504,-0.02148 -0.07861,-0.02148c-0.08531,0 -0.15631,0.06863 -0.17825,0.1618c-0.03745,-0.0148 -0.081,-0.02377 -0.12752,-0.02377c-0.13955,0 -0.25275,0.07635 -0.25275,0.17048c0,0.08497 0.09284,0.15482 0.21344,0.16774c-0.00541,0.00917 -0.0096,0.01825 -0.0096,0.02788c0,0.09012 0.24691,0.16362 0.5512,0.16362c0.30429,0 0.5512,-0.0735 0.5512,-0.16362c0,-0.00606 -0.00376,-0.01148 -0.00594,-0.01737c0.01333,0.00331 0.02652,0.00686 0.04113,0.00686c0.0814,0 0.14763,-0.05531 0.14763,-0.1234c0,-0.06809 -0.06622,-0.1234 -0.14763,-0.1234c-0.00998,0 -0.01846,0.00345 -0.02788,0.00503c0.00824,-0.02723 0.01371,-0.05501 0.01371,-0.08455c0,-0.18024 -0.16315,-0.32679 -0.36472,-0.32679l0,0l0.00001,-0.00002z" stroke="null" fill="#99CAFF"/>
  <g class="currentLayer" id="svg_8">
   <title>Layer 1</title>
   <path fill="#494454" d="m1500.42766,292.96042c-5.25648,0 -12.70928,8.126 -12.70928,13.25538c0,2.31018 1.77467,3.69033 4.74877,3.69033c3.23292,0 5.36769,-1.66015 7.96051,-1.66015c2.61533,0 4.75605,1.66015 7.96051,1.66015c2.9741,0 4.74877,-1.38015 4.74877,-3.69033c0,-5.12939 -7.4528,-13.25538 -12.70928,-13.25538zm-9.74908,-0.83471c-0.68842,-2.29363 -2.80928,-3.77903 -4.73685,-3.31831c-1.92757,0.46071 -2.93174,2.69344 -2.24332,4.98707c0.68842,2.29363 2.80928,3.77903 4.73685,3.31831c1.92757,-0.46071 2.93174,-2.69344 2.24332,-4.98707zm5.60797,-1.37551c2.04805,-0.53882 3.07273,-3.30574 2.28899,-6.17989s-3.07935,-4.76664 -5.1274,-4.22782s-3.07273,3.30574 -2.28899,6.17989c0.78374,2.87415 3.08001,4.7673 5.1274,4.22782zm18.62638,-1.94214c-1.92757,-0.46071 -4.04777,1.02469 -4.73685,3.31831c-0.68842,2.29363 0.31575,4.52636 2.24332,4.98707c1.92757,0.46071 4.04777,-1.02469 4.73685,-3.31831c0.68842,-2.29363 -0.31575,-4.52636 -2.24332,-4.98707zm-10.34416,1.94214c2.04805,0.53882 4.34366,-1.35367 5.1274,-4.22782c0.78374,-2.87415 -0.24095,-5.64041 -2.28899,-6.17989s-4.34366,1.35367 -5.1274,4.22782c-0.78374,2.87415 0.24095,5.64107 2.28899,6.17989z" id="svg_65" stroke="null" opacity="0.1" transform="rotate(158.792 1500.43 295.078)"/>
   <path fill="#494454" d="m1511.97384,460.66316c-7.28947,0 -17.6247,11.26879 -17.6247,18.38202c0,3.20365 2.46103,5.11759 6.58539,5.11759c4.48329,0 7.44369,-2.30223 11.03931,-2.30223c3.62684,0 6.5955,2.30223 11.03931,2.30223c4.12437,0 6.5854,-1.91394 6.5854,-5.11759c0,-7.11323 -10.33524,-18.38202 -17.62471,-18.38202zm-13.51962,-1.15754c-0.95467,-3.18071 -3.89579,-5.2406 -6.56887,-4.6017c-2.67308,0.63889 -4.06562,3.73515 -3.11095,6.91586c0.95468,3.18071 3.8958,5.24059 6.56888,4.6017c2.67308,-0.6389 4.06562,-3.73515 3.11094,-6.91586zm7.77691,-1.90751c2.84014,-0.74721 4.26114,-4.58426 3.17428,-8.57001s-4.27032,-6.61019 -7.11047,-5.86297s-4.26114,4.58426 -3.17428,8.57001c1.08685,3.98576 4.27124,6.6111 7.11047,5.86297zm25.83029,-2.69328c-2.67308,-0.63889 -5.61329,1.421 -6.56888,4.60171c-0.95467,3.1807 0.43787,6.27696 3.11095,6.91586c2.67308,0.63889 5.61328,-1.421 6.56887,-4.6017c0.95468,-3.18071 -0.43786,-6.27697 -3.11094,-6.91587zm-14.34486,2.69328c2.84015,0.74721 6.02361,-1.87721 7.11047,-5.86297c1.08685,-3.98575 -0.33414,-7.82188 -3.17429,-8.57001s-6.02361,1.87721 -7.11046,5.86297c-1.08686,3.98575 0.33413,7.8228 3.17428,8.57001z" id="svg_64" stroke="null" opacity="0.3" transform="rotate(148.025 1511.97 463.6)"/>
   <path fill="#5f50fd" d="m1439.15685,363.6238c-6.3607,0 -15.37908,9.833 -15.37908,16.03991c0,2.79546 2.14746,4.46554 5.74633,4.46554c3.91206,0 6.49527,-2.0089 9.63276,-2.0089c3.16473,0 5.75515,2.0089 9.63276,2.0089c3.59887,0 5.74633,-1.67008 5.74633,-4.46554c0,-6.20691 -9.0184,-16.03991 -15.37909,-16.03991l-0.00001,0zm-11.79704,-1.01005c-0.83303,-2.77545 -3.39942,-4.57288 -5.73191,-4.01538c-2.33249,0.55749 -3.54761,3.25924 -2.71457,6.03469c0.83304,2.77545 3.39942,4.57287 5.73192,4.01538c2.33249,-0.5575 3.54761,-3.25924 2.71457,-6.03469l-0.00001,0zm6.78603,-1.66447c2.47827,-0.65201 3.71821,-4.00017 2.76984,-7.47808s-3.72623,-5.76797 -6.2045,-5.11595s-3.71821,4.00017 -2.76984,7.47808c0.94837,3.47792 3.72703,5.76876 6.2045,5.11595zm22.53917,-2.35012c-2.33249,-0.55749 -4.89808,1.23995 -5.73192,4.01539c-0.83303,2.77544 0.38208,5.47719 2.71457,6.03469c2.33249,0.55749 4.89807,-1.23995 5.73191,-4.01538c0.83304,-2.77545 -0.38207,-5.4772 -2.71457,-6.0347l0.00001,0zm-12.51714,2.35012c2.47828,0.65201 5.25612,-1.63803 6.2045,-5.11595c0.94837,-3.47791 -0.29157,-6.82527 -2.76984,-7.47808s-5.25612,1.63803 -6.20449,5.11595c-0.94838,3.47791 0.29156,6.82607 2.76984,7.47808l-0.00001,0z" id="svg_63" opacity="0.3" stroke="null" transform="rotate(-165.254 1439.16 366.187)"/>
   <path fill="#8779ff" d="m1511.97384,460.66316c-7.28947,0 -17.6247,11.26879 -17.6247,18.38202c0,3.20365 2.46103,5.11759 6.58539,5.11759c4.48329,0 7.44369,-2.30223 11.03931,-2.30223c3.62684,0 6.5955,2.30223 11.03931,2.30223c4.12437,0 6.5854,-1.91394 6.5854,-5.11759c0,-7.11323 -10.33524,-18.38202 -17.62471,-18.38202zm-13.51962,-1.15754c-0.95467,-3.18071 -3.89579,-5.2406 -6.56887,-4.6017c-2.67308,0.63889 -4.06562,3.73515 -3.11095,6.91586c0.95468,3.18071 3.8958,5.24059 6.56888,4.6017c2.67308,-0.6389 4.06562,-3.73515 3.11094,-6.91586zm7.77691,-1.90751c2.84014,-0.74721 4.26114,-4.58426 3.17428,-8.57001s-4.27032,-6.61019 -7.11047,-5.86297s-4.26114,4.58426 -3.17428,8.57001c1.08685,3.98576 4.27124,6.6111 7.11047,5.86297zm25.83029,-2.69328c-2.67308,-0.63889 -5.61329,1.421 -6.56888,4.60171c-0.95467,3.1807 0.43787,6.27696 3.11095,6.91586c2.67308,0.63889 5.61328,-1.421 6.56887,-4.6017c0.95468,-3.18071 -0.43786,-6.27697 -3.11094,-6.91587zm-14.34486,2.69328c2.84015,0.74721 6.02361,-1.87721 7.11047,-5.86297c1.08685,-3.98575 -0.33414,-7.82188 -3.17429,-8.57001s-6.02361,1.87721 -7.11046,5.86297c-1.08686,3.98575 0.33413,7.8228 3.17428,8.57001z" id="svg_62" opacity="0.5" stroke="null" transform="rotate(148.025 1511.97 463.6)"/>
   <path fill="#75e5d0" d="m1391.80557,523.68847c-7.28947,0 -17.6247,11.26879 -17.6247,18.38202c0,3.20365 2.46103,5.11759 6.58539,5.11759c4.48329,0 7.44369,-2.30223 11.03931,-2.30223c3.62684,0 6.5955,2.30223 11.03931,2.30223c4.12437,0 6.5854,-1.91394 6.5854,-5.11759c0,-7.11323 -10.33524,-18.38202 -17.62471,-18.38202zm-13.51962,-1.15754c-0.95467,-3.18071 -3.89579,-5.2406 -6.56887,-4.6017c-2.67308,0.63889 -4.06562,3.73515 -3.11095,6.91586c0.95468,3.18071 3.8958,5.24059 6.56888,4.6017c2.67308,-0.6389 4.06562,-3.73515 3.11094,-6.91586zm7.77691,-1.90751c2.84014,-0.74721 4.26114,-4.58426 3.17428,-8.57001s-4.27032,-6.61019 -7.11047,-5.86297s-4.26114,4.58426 -3.17428,8.57001c1.08685,3.98576 4.27124,6.6111 7.11047,5.86297zm25.83029,-2.69328c-2.67308,-0.63889 -5.61329,1.421 -6.56888,4.60171c-0.95467,3.1807 0.43787,6.27696 3.11095,6.91586c2.67308,0.63889 5.61328,-1.421 6.56887,-4.6017c0.95468,-3.18071 -0.43786,-6.27697 -3.11094,-6.91587zm-14.34486,2.69328c2.84015,0.74721 6.02361,-1.87721 7.11047,-5.86297c1.08685,-3.98575 -0.33414,-7.82188 -3.17429,-8.57001s-6.02361,1.87721 -7.11046,5.86297c-1.08686,3.98575 0.33413,7.8228 3.17428,8.57001z" id="svg_61" opacity="0.6" stroke="null" transform="rotate(-160.801 1391.81 526.626)"/>
   <path stroke="null" fill="#FFC5A7" d="m249.28397,455.68803c-7.06435,0 -17.08041,10.92078 -17.08041,17.81434c0,3.10472 2.38503,4.95955 6.38202,4.95955c4.34484,0 7.21381,-2.23113 10.69839,-2.23113c3.51483,0 6.39182,2.23113 10.69839,2.23113c3.997,0 6.38202,-1.85483 6.38202,-4.95955c0,-6.89355 -10.01606,-17.81434 -17.08041,-17.81434zm-13.1021,-1.12179c-0.92518,-3.08248 -3.77548,-5.07876 -6.36601,-4.45959c-2.59053,0.61916 -3.94006,3.6198 -3.01488,6.70228c0.9252,3.08248 3.77549,5.07875 6.36602,4.45959c2.59053,-0.61917 3.94006,-3.6198 3.01487,-6.70228zm7.53674,-1.8486c2.75243,-0.72414 4.12955,-4.44269 3.07625,-8.30535s-4.13845,-6.40605 -6.89088,-5.6819s-4.12955,4.44269 -3.07625,8.30535c1.05328,3.86267 4.13933,6.40694 6.89088,5.6819zm25.03259,-2.61011c-2.59053,-0.61916 -5.43993,1.37711 -6.36602,4.4596c-0.92518,3.08247 0.42434,6.08311 3.01488,6.70228c2.59053,0.61916 5.43993,-1.37711 6.36601,-4.45959c0.9252,-3.08248 -0.42434,-6.08312 -3.01487,-6.70229l0,-0.00001l0,0.00001zm-13.90186,2.61011c2.75244,0.72414 5.83759,-1.81923 6.89088,-5.6819c1.05328,-3.86266 -0.32382,-7.58032 -3.07626,-8.30535s-5.83759,1.81923 -6.89087,5.6819c-1.05329,3.86266 0.32381,7.58121 3.07625,8.30535z" opacity="0.5" id="svg_60" transform="rotate(179.562 249.284 458.534)"/>
   <path fill="#c7ee94" d="m169.45079,604.35959c-8.66314,0 -20.94601,13.39235 -20.94601,21.84604c0,3.80737 2.92481,6.08198 7.82639,6.08198c5.32815,0 8.84642,-2.73607 13.11962,-2.73607c4.31031,0 7.8384,2.73607 13.11963,2.73607c4.90159,0 7.82639,-2.27461 7.82639,-6.08198c0,-8.45369 -12.28287,-21.84604 -20.94602,-21.84604zm-16.06734,-1.37568c-1.13457,-3.7801 -4.62994,-6.22817 -7.80675,-5.46887c-3.17681,0.75929 -4.83177,4.43903 -3.69719,8.21913c1.13458,3.7801 4.62994,6.22816 7.80676,5.46887c3.17681,-0.7593 4.83177,-4.43902 3.69718,-8.21913zm9.24244,-2.26697c3.37536,-0.88802 5.06414,-5.44815 3.77246,-10.185s-5.07504,-7.85585 -8.45041,-6.96782s-5.06414,5.44815 -3.77246,10.185c1.29166,4.73686 5.07614,7.85693 8.45041,6.96782zm30.69791,-3.20082c-3.17681,-0.75928 -6.67109,1.68878 -7.80676,5.46889c-1.13457,3.78009 0.52039,7.45983 3.6972,8.21913c3.17681,0.75928 6.67108,-1.68879 7.80675,-5.46888c1.13458,-3.7801 -0.52037,-7.45984 -3.69719,-8.21914zm-17.04809,3.20082c3.37536,0.88802 7.15873,-2.23096 8.45041,-6.96782c1.29166,-4.73685 -0.39711,-9.29589 -3.77247,-10.185s-7.15874,2.23096 -8.4504,6.96782c-1.29168,4.73685 0.39709,9.29698 3.77246,10.185z" id="svg_59" opacity="0.7" stroke="null" transform="rotate(148.484 169.45 607.85)"/>
   <path fill="#fbdf3b" d="m449.02348,275.9341l17.64361,0l5.45201,-16.76136l5.45201,16.76136l17.64361,0l-14.27395,10.35897l5.45229,16.76136l-14.27396,-10.35925l-14.27396,10.35925l5.45229,-16.76136l-14.27396,-10.35897l0.00001,0z" id="svg_58" stroke="null" transform="rotate(-25.5455 472.119 281.114)"/>
   <path fill="#fbdf3b" d="m392.45363,346.0896l22.19942,0l6.85979,-21.08936l6.8598,21.08936l22.1994,0l-17.95967,13.03379l6.86014,21.08935l-17.95968,-13.03414l-17.95967,13.03414l6.86014,-21.08935l-17.95968,-13.03379l0.00001,0z" id="svg_57" stroke="null" transform="rotate(22.1018 421.513 352.606)"/>
   <path id="svg_54" fill="#fbdf3b" d="m1586.90343,504.03234l40.58456,0l12.54093,-38.55517l12.54094,38.55517l40.58456,0l-32.83353,23.82813l12.54158,38.55516l-32.83355,-23.82877l-32.83355,23.82877l12.54159,-38.55516l-32.83355,-23.82813l0.00002,0z" stroke="null" transform="rotate(-25.5455 1640.03 515.946)"/>
   <path id="svg_51" fill="rgba(254, 244, 224, 1)" d="m34,1070.00006l33.3,-10c33.4,-10 100,-30 166.7,-29.5c66.7,0.5 133.3,21.5 200,25.5c66.7,4 133.3,-9 200,-20.3c66.7,-11.4 133.3,-21 200,-18.9c66.7,2.2 133.3,16.2 200,8c66.7,-8.1 133.3,-38.5 200,-49c66.7,-10.5 133.3,-1.1 200,14.4c66.7,15.5 133.3,37.1 200,41.6c66.7,4.5 133.3,-8.1 200,-18.3c66.7,-10.2 133.3,-17.8 166.7,-21.7l33.3,-3.8l0,137l-33.3,0c-33.4,0 -100,0 -166.7,0c-66.7,0 -133.3,0 -200,0c-66.7,0 -133.3,0 -200,0c-66.7,0 -133.3,0 -200,0c-66.7,0 -133.3,0 -200,0c-66.7,0 -133.3,0 -200,0c-66.7,0 -133.3,0 -200,0c-66.7,0 -133.3,0 -200,0c-66.7,0 -133.3,0 -200,0c-66.7,0 -133.3,0 -166.7,0l-33.3,0l0,-55z"/>
  </g>
  <path transform="rotate(-1.15487 1721.9 946.499)" stroke="null" id="svg_15" d="m1808.79718,792.10735c-56.92581,0 -105.78761,27.64597 -129.70461,67.55685c-9.55232,-4.99415 -20.08852,-8.01811 -31.33313,-8.01811c-34.00406,0 -62.30028,25.61723 -71.04604,60.39175c-14.92791,-5.5256 -32.28493,-8.8711 -50.82525,-8.8711c-55.62101,0 -100.73966,28.49919 -100.73966,63.63311c0,31.71433 37.00328,57.78643 85.0731,62.6095c-2.15443,3.42319 -3.82557,6.81311 -3.82557,10.40649c0,33.63884 98.41162,61.07409 219.69627,61.07409c121.28463,0 219.69639,-27.43527 219.69627,-61.07409c0,-2.26334 -1.50009,-4.28319 -2.36819,-6.48274c5.31229,1.23717 10.57221,2.55898 16.39525,2.55898c32.44548,0.00009 58.8407,-20.64548 58.8407,-46.0615c0,-25.41604 -26.39522,-46.06148 -58.8407,-46.06148c-3.97612,0 -7.35706,1.28616 -11.11234,1.87659c3.28363,-10.1626 5.46506,-20.5322 5.46506,-31.56066c0,-67.27763 -65.02976,-121.97764 -145.37113,-121.97764l-0.00004,-0.00004z" fill="rgba(255, 245, 224, 1)"/>
 </g>
</svg>