<svg width="500" height="550" xmlns="http://www.w3.org/2000/svg" version="1.1">
 <g>
  <title>Layer 1</title>
  <g transform="rotate(87.5689 132.27 415) matrix(1.10053 0.706342 -0.706342 1.10053 -646.346 -915.117)" id="svg_1">
   <g transform="matrix(0.863653 0.11996 -0.11996 0.863653 230.063 -84.4015)" id="svg_2">
    <path class="st2" d="m1023.74246,500.78109c-4.8,0 -9.5,0.6 -14.1,1.6c23.1,10.1 39.3,34 39.3,62c0,28 -16.2,51.9 -39.3,62c4.5,1 9.2,1.6 14.1,1.6c35.1,0 63.6,-28.5 63.6,-63.6c0,-35.1 -28.5,-63.6 -63.6,-63.6z" fill=" #ffea80" id="svg_3"/>
    <path d="m970.94251,490.98109l3.8999,6.29999l6.70007,3.1l-6.30004,3.9l-3.19996,6.70001l-3.90002,-6.29999l-6.59998,-3.20001l6.29993,-3.79999l3.1001,-6.70001z" class="st2" fill=" #ffea80" id="svg_4"/>
    <path d="m1036.94251,464.5811l2.59997,4.29998l4.5,2.10001l-4.20007,2.7l-2.19995,4.5l-2.59998,-4.2l-4.5,-2.2l4.19996,-2.6l2.20007,-4.59999z" class="st2" fill=" #ffea80" id="svg_5"/>
    <path d="m1118.04248,562.1811l2.59998,4.29999l4.5,2.10001l-4.19995,2.69998l-2.20007,4.5l-2.59998,-4.29999l-4.5,-2.10001l4.19995,-2.69998l2.20007,-4.5z" class="st2" fill=" #ffea80" id="svg_6"/>
    <path d="m1015.14246,668.78108l2.69995,4.20001l4.5,2.20001l-4.29993,2.59998l-2.09997,4.6l-2.70007,-4.29998l-4.5,-2.20002l4.30004,-2.6l2.09998,-4.5z" class="st2" fill=" #ffea80" id="svg_7"/>
    <path d="m940.44245,568.98109l2.60003,4.29999l4.59998,2.1l-4.30005,2.70002l-2.09997,4.5l-2.69996,-4.30002l-4.5,-2.09998l4.19996,-2.70001l2.20001,-4.5z" class="st2" fill=" #ffea80" id="svg_8"/>
    <path d="m1094.04248,504.98109l1.40003,2.20001l2.3999,1.19998l-2.29993,1.4l-1.09997,2.30002l-1.40003,-2.20002l-2.30004,-1.1l2.20007,-1.4l1.09997,-2.39999z" class="st2" fill=" #ffea80" id="svg_9"/>
    <path d="m1015.04248,553.5811l3.40003,5.39999l5.69995,2.70001l-5.40002,3.4l-2.69996,5.69998l-3.40002,-5.4l-5.69995,-2.69998l5.3999,-3.30002l2.70007,-5.79998z" class="st2" fill=" #ffea80" id="svg_10"/>
    <path d="m969.74244,632.28108l1.40002,2.20001l2.30005,1.10001l-2.20007,1.39999l-1.09998,2.39999l-1.40002,-2.29998l-2.40003,-1.10001l2.30005,-1.39999l1.09998,-2.30002z" class="st2" fill=" #ffea80" id="svg_11"/>
    <path d="m1085.44251,637.38108l4.29993,6.9l7.40002,3.5l-7,4.30002l-3.5,7.39999l-4.30005,-6.89999l-7.29993,-3.5l6.90003,-4.4l3.5,-7.30002z" class="st2" fill=" #ffea80" id="svg_12"/>
   </g>
  </g>
 </g>

</svg>