
<svg width="2000" height="1000" xmlns="http://www.w3.org/2000/svg" stroke="null" version="1.1">
 <g stroke="null" class="currentLayer">
  <title stroke="null">Layer 1</title>
  <g stroke="null" transform="rotate(180 1350,450.0190124511718) " id="svg_2">
   <path stroke="null" id="svg_3" fill="#AFDE7F" d="m900,900.03944c64.7,-105.9 129.4,-211.8 193.2,-292.8c63.9,-80.9 126.9,-136.8 180,-234c53.1,-97.2 96.2,-235.6 182.4,-304.7c86.1,-69.1 215.3,-68.8 344.4,-68.5l0,900l-900,0z"/>
  </g>
  <g stroke="null" id="svg_4" transform="rotate(5.754469871520996 1782.1600341796875,83.64900207519564) ">
   <path stroke="null" id="svg_5" fill="#AFDE7F" d="m2020.42192,-254.63516c-5.61244,88.78079 -11.22489,177.63675 -36.26911,258.90011c-25.04422,81.33854 -69.5202,155.15965 -121.25002,194.02474c-51.78276,38.86509 -110.81934,42.77415 -165.19653,74.19698c-54.37719,31.49801 -104.095,90.43462 -153.8128,149.4464l0,-676.56823l476.52846,0z"/>
  </g>
  <g stroke="null" id="svg_7">
   <path stroke="null" id="svg_6" fill="#AFDE7F" d="m325.48842,844.93733c64.7,-105.9 129.4,-211.8 193.2,-292.8c63.9,-80.9 126.9,-136.8 180,-234c53.1,-97.2 96.2,-235.6 182.4,-304.7c86.1,-69.1 215.3,-68.8 344.4,-68.5l0,900l-900,0z"/>
  </g>
  <path stroke="null" transform="rotate(8.223420143127441 537.8720092773422,721.1569824218748) " id="svg_9" d="m665.39778,480.57378c-83.54372,0 -155.25278,43.07995 -190.35312,105.27195c-14.01889,-7.78225 -29.4817,-12.4944 -45.98417,-12.4944c-49.904,0 -91.43123,39.91861 -104.26642,94.10678c-21.90804,-8.61039 -47.38102,-13.82359 -74.59061,-13.82359c-81.6288,0 -147.84446,44.40949 -147.84446,99.1577c0,49.41955 54.30562,90.04698 124.85239,97.56264c-3.16183,5.33427 -5.61437,10.61668 -5.61437,16.21615c0,52.41847 144.42786,95.17005 322.42392,95.17005c177.99604,0 322.4241,-42.75161 322.42392,-95.17005c0,-3.5269 -2.20151,-6.67437 -3.47553,-10.10187c7.79626,1.92785 15.51566,3.98759 24.0615,3.98759c47.61664,0.00015 86.35399,-32.17128 86.35399,-71.77636c0,-39.6051 -38.73735,-71.77633 -86.35399,-71.77633c-5.83531,0 -10.79714,2.00419 -16.30835,2.92423c4.81902,-15.8361 8.02047,-31.99476 8.02047,-49.18009c0,-104.83686 -95.43699,-190.07436 -213.34513,-190.07436l-0.00006,-0.00006l0.00002,0.00002z" fill="#80D8FF"/>
  <path stroke="null" id="svg_10" transform="rotate(-6.396479606628418 1507.3872070312502,740.8963623046881) " d="m1412.09696,521.2822c62.42584,0 116.00854,39.32505 142.23634,96.09633c10.47525,-7.10394 22.02943,-11.40538 34.36046,-11.40538c37.28945,0 68.31957,36.43927 77.91033,85.90434c16.3702,-7.8599 35.40421,-12.61871 55.73586,-12.61871c60.99497,0 110.47287,40.53871 110.47287,90.515c0,45.11209 -40.57844,82.19839 -93.29265,89.05898c2.36259,4.86933 4.19519,9.69132 4.19519,14.80273c0,47.84962 -107.9199,86.87493 -240.92276,86.87493c-133.00284,0 -240.92289,-39.02533 -240.92276,-86.87493c0,-3.21949 1.64502,-6.09262 2.597,-9.22138c-5.82555,1.75982 -11.59367,3.64003 -17.97932,3.64003c-35.58028,0.00014 -64.52574,-29.3672 -64.52574,-65.52026c0,-36.15307 28.94546,-65.52022 64.52574,-65.52022c4.36028,0 8.06788,1.8295 12.18598,2.66935c-3.60088,-14.45581 -5.99308,-29.20606 -5.99308,-44.8935c0,-95.69917 71.31277,-173.50728 159.41651,-173.50728l0.00005,-0.00005l-0.00002,0.00002z" fill="#ffc0cb"/>
  <path stroke="null" id="svg_11" class="selected" transform="rotate(3.707819700241089 1171.802246093744,876.2877197265633) " d="m1133.08344,780.99653c25.365,0 47.13684,17.06326 57.79378,41.69649c4.25632,-3.08242 8.95104,-4.94883 13.96141,-4.94883c15.15153,0 27.75976,15.8111 31.6567,37.27414c6.65157,-3.41043 14.38551,-5.47529 22.64671,-5.47529c24.78361,0 44.88758,17.58986 44.88758,39.27473c0,19.57426 -16.48792,35.66612 -37.90687,38.64295c0.95997,2.11281 1.70459,4.20509 1.70459,6.42295c0,20.76209 -43.85025,37.69528 -97.89226,37.69528c-54.042,0 -97.89231,-16.93321 -97.89226,-37.69528c0,-1.39695 0.66841,-2.64361 1.05522,-4.00119c-2.36705,0.76359 -4.71076,1.57942 -7.30539,1.57942c-14.45706,0.00006 -26.21824,-12.74251 -26.21824,-28.42943c0,-15.68693 11.76118,-28.42942 26.21824,-28.42942c1.77167,0 3.27815,0.79383 4.95143,1.15824c-1.46312,-6.27242 -2.43512,-12.6726 -2.43512,-19.47942c0,-41.52415 28.97596,-75.28532 64.77446,-75.28532l0.00002,-0.00002l0,0z" fill="#a2d8f2"/>
  <path stroke="null" fill="#7ecef4" d="m117.92958,921.82179c-13.41374,-6.62226 -23.02827,-27.66435 -20.84327,-45.61707c1.37779,-11.32055 30.44575,-80.04418 32.9843,-77.98286c0.82855,0.67279 8.20161,16.69515 16.38457,35.60526c13.10825,30.292 14.87811,35.94052 14.87811,47.4836c0,23.39734 -14.25217,42.56241 -31.36486,42.17673c-4.99372,-0.11256 -10.41121,-0.8621 -12.03884,-1.66565l0,0l-0.00001,-0.00001zm13.43906,-11.768c0.444,-3.02912 -0.59316,-4.50641 -3.16386,-4.50641c-5.85888,0 -13.98609,-9.74936 -15.80183,-18.95578c-1.9369,-9.82075 -7.0725,-10.98873 -7.83106,-1.781c-1.46146,17.74001 24.33461,42.04053 26.79674,25.24319l0,0l0.00001,0z" id="svg_1" transform="rotate(14.5377 137.01 865.677) rotate(45.3633 127.24 872.773)"/>
  <path stroke="null" fill="#7ecef4" d="m250.16152,822.70331c-8.07635,-3.98723 -13.86522,-16.65658 -12.54964,-27.46583c0.82956,-6.81605 18.33125,-48.19424 19.8597,-46.95313c0.49887,0.40508 4.93815,10.05207 9.86508,21.43777c7.89242,18.23868 8.95804,21.63962 8.95804,28.58966c0,14.08743 -8.58117,25.62663 -18.88464,25.39441c-3.0067,-0.06777 -6.26854,-0.51907 -7.24854,-1.00288l0,0zm8.0916,-7.08546c0.26733,-1.82382 -0.35714,-2.7133 -1.90495,-2.7133c-3.5276,0 -8.42096,-5.87005 -9.51421,-11.41319c-1.1662,-5.91303 -4.25832,-6.61626 -4.71504,-1.07233c-0.87994,10.68118 14.65176,25.31241 16.1342,15.19882l0,0z" id="svg_8" transform="rotate(-17.3454 280.071 904.035) rotate(45.3633 127.24 872.773)"/>
 </g>

 <g stroke="null">
  <title stroke="null">Layer 2</title>
  <g id="svg_12" opacity="0.8">
   <g id="svg_13">
    <title>Layer 2</title>
    <path transform="rotate(11.53 211.864 318.225)" stroke="null" opacity="0.8" id="svg_32" fill="#7ECEF4" d="m218.18797,325.81383c12.19922,-9.48111 14.83879,-41.78253 5.58692,-53.68681c-4.16687,-5.36145 -10.77488,-5.36353 -17.67718,0.00087c-7.50296,5.83122 -9.4629,13.53457 -15.48032,18.21125c-6.06965,4.71728 -14.03225,4.72562 -21.46914,10.50551c-6.9023,5.3644 -8.53156,11.76841 -4.36469,17.12986c9.25188,11.90427 41.20519,17.32043 53.40442,7.83932l-0.00001,0.00001l-0.00001,0zm24.1312,-15.64723c5.73471,4.08135 13.33601,3.70325 16.97852,-0.84274c3.64252,-4.54598 1.94581,-11.53892 -3.78889,-15.62026c-5.73471,-4.08135 -13.33601,-3.70325 -16.97852,0.84274c-3.64252,4.54598 -1.94581,11.53892 3.78889,15.62026zm-10.53395,13.3074c-3.78123,4.94456 -1.16863,13.21424 5.83437,18.47093s15.74415,5.50817 19.52539,0.56362s1.16863,-13.21424 -5.83437,-18.47093c-7.00301,-5.25669 -15.74688,-5.50852 -19.52539,-0.56362zm-39.72502,38.10372c5.30449,-2.40755 7.54583,-9.67906 5.00804,-16.24501c-2.53934,-6.56475 -8.89698,-9.93525 -14.20147,-7.5277c-5.30449,2.40755 -7.54583,9.67906 -5.00804,16.24501c2.53934,6.56475 8.89698,9.93525 14.20147,7.5277zm20.50367,-23.16508c-5.72498,2.44357 -7.63914,10.97626 -4.27393,19.06022c3.36521,8.08396 10.7328,12.65564 16.45896,10.21361s7.63914,-10.97626 4.27393,-19.06022c-3.36521,-8.08396 -10.73399,-12.65717 -16.45896,-10.21361z"/>
    <path transform="rotate(84.9858 562.032 72.6163)" id="svg_29" fill="#AFDE7F" d="m568.72482,80.64816c12.91081,-10.03416 15.70434,-44.21973 5.9128,-56.81837c-4.40992,-5.67419 -11.40338,-5.67638 -18.7083,0.00091c-7.94061,6.17136 -10.01487,14.32405 -16.38328,19.27352c-6.42371,4.99243 -14.85076,5.00127 -22.72145,11.1183c-7.30491,5.6773 -9.0292,12.45487 -4.61928,18.12905c9.79155,12.59865 43.6087,18.33074 56.51951,8.29658l-0.00001,0.00001l0.00001,0zm25.53878,-16.55995c6.0692,4.31942 14.1139,3.91927 17.96889,-0.89189c3.85499,-4.81115 2.05931,-12.21198 -4.0099,-16.53139c-6.0692,-4.31941 -14.1139,-3.91926 -17.96889,0.8919c-3.85499,4.81115 -2.05931,12.21198 4.0099,16.53139l0,-0.00001zm-11.1484,14.08362c-4.00179,5.23298 -1.23679,13.98503 6.1747,19.54835s16.66252,5.82947 20.66431,0.59649s1.2368,-13.98502 -6.1747,-19.54834c-7.4115,-5.56332 -16.6654,-5.82983 -20.66431,-0.5965zm-42.04218,40.32633c5.6139,-2.54798 7.98598,-10.24365 5.30015,-17.19258c-2.68746,-6.94767 -9.41594,-10.51477 -15.02985,-7.96678c-5.6139,2.54798 -7.98598,10.24364 -5.30015,17.19258c2.68745,6.94768 9.41593,10.51477 15.02985,7.96679l0,-0.00001zm21.69965,-24.51631c-6.05891,2.5861 -8.08473,11.61651 -4.52322,20.172c3.5615,8.5555 11.35884,13.39384 17.41901,10.80938s8.08473,-11.61652 4.52323,-20.17201c-3.5615,-8.55548 -11.3601,-13.39547 -17.41903,-10.80936l0.00001,-0.00001z" stroke="null"/>
    <path transform="rotate(21.6676 267.137 161.577)" id="svg_23" fill="#4048d3" d="m272.37456,168.29575c10.10481,-8.39429 12.29121,-36.99299 4.62773,-47.53267c-3.45148,-4.74687 -8.925,-4.7487 -14.64229,0.00077c-6.21482,5.16279 -7.83827,11.9831 -12.82259,16.12369c-5.02759,4.17654 -11.62313,4.18392 -17.78323,9.30126c-5.71728,4.74947 -7.06683,10.41939 -3.61534,15.16625c7.66348,10.53968 34.13091,15.33498 44.23573,6.94069l-0.00001,0.00001l-0.00001,0l0.00001,0zm19.98825,-13.85359c4.75015,3.6135 11.04642,3.27875 14.06358,-0.74614c3.01716,-4.02487 1.61175,-10.21621 -3.1384,-13.8297c-4.75015,-3.6135 -11.04642,-3.27875 -14.06358,0.74614c-3.01716,4.02487 -1.61175,10.21621 3.1384,13.8297zm-8.72544,11.78196c-3.13205,4.37776 -0.96799,11.69949 4.8327,16.3536s13.04113,4.87677 16.17319,0.49901s0.96799,-11.69949 -4.8327,-16.3536c-5.8007,-4.65412 -13.04339,-4.87707 -16.17319,-0.49901zm-32.90486,33.73588c4.39379,-2.13157 6.25033,-8.56955 4.14824,-14.38284c-2.10337,-5.81223 -7.36951,-8.79637 -11.76331,-6.6648c-4.39379,2.13157 -6.25033,8.56955 -4.14824,14.38284c2.10337,5.81223 7.36951,8.79637 11.76331,6.6648zm16.98352,-20.50966c-4.74209,2.16347 -6.32762,9.71805 -3.54017,16.87534c2.78745,7.15729 8.89015,11.20492 13.63322,9.04282s6.32762,-9.71805 3.54017,-16.87534c-2.78745,-7.15729 -8.89113,-11.20628 -13.63322,-9.04282z" stroke="null" opacity="0.6"/>
   </g>
  </g>
 </g>
</svg>