<svg width="2000.0000000000002" height="1000.0000000000001" xmlns="http://www.w3.org/2000/svg" version="1.1">
 <g>
  <title>Layer 1</title>
  <path transform="rotate(180 1000 761.336)" id="svg_1" fill="#87ceeb" d="m0,996.11987l33.3,-17.3c33.4,-17.4 100,-52 166.7,-56.5c66.7,-4.5 133.3,21.1 200,45.1c66.7,24 133.3,46.4 200,23.7c66.7,-22.7 133.3,-90.3 200,-114.2c66.7,-23.8 133.3,-3.8 200,-4.8c66.7,-1 133.3,-23 200,-27.3c66.7,-4.4 133.3,9 200,12.1c66.7,3.2 133.3,-3.8 200,16.7c66.7,20.5 133.3,68.5 200,83c66.7,14.5 133.3,-4.5 166.7,-14l33.3,-9.5l0,-411l-33.3,0c-33.4,0 -100,0 -166.7,0c-66.7,0 -133.3,0 -200,0c-66.7,0 -133.3,0 -200,0c-66.7,0 -133.3,0 -200,0c-66.7,0 -133.3,0 -200,0c-66.7,0 -133.3,0 -200,0c-66.7,0 -133.3,0 -200,0c-66.7,0 -133.3,0 -200,0c-66.7,0 -133.3,0 -200,0c-66.7,0 -133.3,0 -166.7,0l-33.3,0l0,474z"/>
  <path transform="rotate(180 1000 779.552)" id="svg_2" fill="#71dbe6" d="m0,1000.552l33.3,-30.7c33.4,-30.6 100,-92 166.7,-115.3c66.7,-23.3 133.3,-8.7 200,1.3c66.7,10 133.3,15.4 200,12c66.7,-3.3 133.3,-15.3 200,3.5c66.7,18.9 133.3,68.5 200,68.9c66.7,0.3 133.3,-48.7 200,-48.7c66.7,0 133.3,49 200,51.7c66.7,2.6 133.3,-41 200,-57.7c66.7,-16.7 133.3,-6.3 200,-2.2c66.7,4.2 133.3,2.2 166.7,1.2l33.3,-1l0,-325l-33.3,0c-33.4,0 -100,0 -166.7,0c-66.7,0 -133.3,0 -200,0c-66.7,0 -133.3,0 -200,0c-66.7,0 -133.3,0 -200,0c-66.7,0 -133.3,0 -200,0c-66.7,0 -133.3,0 -200,0c-66.7,0 -133.3,0 -200,0c-66.7,0 -133.3,0 -200,0c-66.7,0 -133.3,0 -200,0c-66.7,0 -133.3,0 -166.7,0l-33.3,0l0,442z"/>
  <path transform="rotate(180 1000 829.552)" id="svg_3" fill="#76e6d1" d="m0,945.552l33.3,-4.8c33.4,-4.9 100,-14.5 166.7,-24.4c66.7,-9.8 133.3,-19.8 200,-21.1c66.7,-1.4 133.3,6 200,2c66.7,-4 133.3,-19.4 200,-8c66.7,11.3 133.3,49.3 200,47.6c66.7,-1.6 133.3,-43 200,-44.1c66.7,-1.2 133.3,37.8 200,60.8c66.7,23 133.3,30 200,31.5c66.7,1.5 133.3,-2.5 200,-0.8c66.7,1.6 133.3,9 166.7,12.6l33.3,3.7l0,-342l-33.3,0c-33.4,0 -100,0 -166.7,0c-66.7,0 -133.3,0 -200,0c-66.7,0 -133.3,0 -200,0c-66.7,0 -133.3,0 -200,0c-66.7,0 -133.3,0 -200,0c-66.7,0 -133.3,0 -200,0c-66.7,0 -133.3,0 -200,0c-66.7,0 -133.3,0 -200,0c-66.7,0 -133.3,0 -200,0c-66.7,0 -133.3,0 -166.7,0l-33.3,0l0,287z"/>
  <path transform="rotate(180 1000 858.552)" id="svg_4" fill="#98edb3" d="m0,971.552l33.3,-0.5c33.4,-0.5 100,-1.5 166.7,-19c66.7,-17.5 133.3,-51.5 200,-45.7c66.7,5.9 133.3,51.5 200,60.4c66.7,8.8 133.3,-19.2 200,-38.2c66.7,-19 133.3,-29 200,-15c66.7,14 133.3,52 200,66.3c66.7,14.4 133.3,5 200,-9c66.7,-14 133.3,-32.6 200,-48.8c66.7,-16.2 133.3,-29.8 200,-16.3c66.7,13.5 133.3,54.1 166.7,74.5l33.3,20.3l0,-284l-33.3,0c-33.4,0 -100,0 -166.7,0c-66.7,0 -133.3,0 -200,0c-66.7,0 -133.3,0 -200,0c-66.7,0 -133.3,0 -200,0c-66.7,0 -133.3,0 -200,0c-66.7,0 -133.3,0 -200,0c-66.7,0 -133.3,0 -200,0c-66.7,0 -133.3,0 -200,0c-66.7,0 -133.3,0 -200,0c-66.7,0 -133.3,0 -166.7,0l-33.3,0l0,255z"/>
  <path transform="rotate(180 1000 908.552)" id="svg_5" fill="#c8ee94" d="m0,1000.552l33.3,-16.2c33.4,-16.1 100,-48.5 166.7,-55.8c66.7,-7.3 133.3,10.3 200,12.5c66.7,2.2 133.3,-11.2 200,-7c66.7,4.2 133.3,25.8 200,34.8c66.7,9 133.3,5.4 200,2.4c66.7,-3 133.3,-5.4 200,1.1c66.7,6.5 133.3,21.9 200,15.4c66.7,-6.5 133.3,-34.9 200,-34.9c66.7,0 133.3,28.4 200,28.2c66.7,-0.2 133.3,-28.8 166.7,-43.2l33.3,-14.3l0,-107l-33.3,0c-33.4,0 -100,0 -166.7,0c-66.7,0 -133.3,0 -200,0c-66.7,0 -133.3,0 -200,0c-66.7,0 -133.3,0 -200,0c-66.7,0 -133.3,0 -200,0c-66.7,0 -133.3,0 -200,0c-66.7,0 -133.3,0 -200,0c-66.7,0 -133.3,0 -200,0c-66.7,0 -133.3,0 -200,0c-66.7,0 -133.3,0 -166.7,0l-33.3,0l0,184z"/>
  <path transform="rotate(180 1000 942.552)" id="svg_6" fill="#fff5e0" d="m0,1000.552l33.3,-9.5c33.4,-9.5 100,-28.5 166.7,-30.2c66.7,-1.6 133.3,14 200,12.2c66.7,-1.8 133.3,-21.2 200,-28.2c66.7,-7 133.3,-1.6 200,9.5c66.7,11.2 133.3,28.2 200,33c66.7,4.9 133.3,-2.5 200,-7.3c66.7,-4.8 133.3,-7.2 200,-7.8c66.7,-0.7 133.3,0.3 200,-6.5c66.7,-6.9 133.3,-21.5 200,-21.9c66.7,-0.3 133.3,13.7 166.7,20.7l33.3,7l0,-87l-33.3,0c-33.4,0 -100,0 -166.7,0c-66.7,0 -133.3,0 -200,0c-66.7,0 -133.3,0 -200,0c-66.7,0 -133.3,0 -200,0c-66.7,0 -133.3,0 -200,0c-66.7,0 -133.3,0 -200,0c-66.7,0 -133.3,0 -200,0c-66.7,0 -133.3,0 -200,0c-66.7,0 -133.3,0 -200,0c-66.7,0 -133.3,0 -166.7,0l-33.3,0l0,116z"/>
  <g stroke="null" id="svg_26" class="currentLayer">
   <title stroke="null">Layer 1</title>
   <path transform="rotate(154.242 459.319 600.838)" opstroke="null" id="svg_12" d="m459.09712,586.86173c-29.12749,-2.1496 -73.40802,46.93569 -75.29078,79.84374c-0.84796,14.82114 8.47933,24.40135 24.95959,25.61758c17.91445,1.32207 30.35307,-8.45577 44.72058,-7.39545c14.49221,1.06952 25.74512,12.59579 43.50184,13.90623c16.48026,1.21623 26.82073,-6.91249 27.66869,-21.73363c1.88276,-32.90804 -36.43243,-88.08887 -65.5599,-90.23846l0,0l-0.00001,0l-0.00001,-0.00001zm-53.71572,-9.34196c-2.97282,-14.9965 -14.17983,-25.39351 -25.03011,-23.22604c-10.85028,2.16747 -17.23415,16.0811 -14.26132,31.0776c2.97282,14.9965 14.17983,25.39351 25.03011,23.22604c10.85028,-2.16747 17.23415,-16.0811 14.26132,-31.0776zm31.58007,-6.5314c11.54653,-2.61931 18.24017,-19.95168 14.95225,-38.71156s-15.31386,-31.8401 -26.86038,-29.22078s-18.24017,19.95168 -14.95225,38.71156c3.28793,18.75988 15.31728,31.84461 26.86038,29.22078zm103.92635,-4.84284c-10.51207,-3.744 -22.80586,4.91866 -27.46611,19.35184c-4.65659,14.43345 0.08821,29.16838 10.60029,32.91238c10.51207,3.744 22.80586,-4.91866 27.46611,-19.35184c4.65659,-14.43345 -0.08821,-29.16838 -10.60029,-32.91238zm-58.0325,8.22979c11.15098,4.29438 24.5662,-6.90829 29.96407,-25.02716c5.39787,-18.11887 0.73518,-36.28505 -10.41555,-40.58369s-24.5662,6.90829 -29.96407,25.02716c-5.39787,18.11887 -0.73543,36.28931 10.41555,40.58369z" fill="#c8ee94" class="selected" stroke="null"/>
   <path transform="rotate(-30.9587 217.646 145.92)" stroke="null" opstroke="null" d="m211.26503,152.55447c8.49064,10.05774 35.66342,10.30486 45.21678,1.45937c4.30264,-3.98383 4.00657,-9.75951 -0.79741,-15.45016c-5.22205,-6.18587 -11.76226,-7.40764 -15.95038,-12.36875c-4.22447,-5.00418 -4.59032,-11.96311 -9.7664,-18.09452c-4.80399,-5.69065 -10.24105,-6.70626 -14.5437,-2.72242c-9.55336,8.84549 -12.64954,37.11874 -4.15889,47.17648l0,-0.00001l0,0.00001zm14.19279,20.09331c-3.15984,5.27252 -2.50059,11.8921 1.47103,14.78584c3.97161,2.89373 9.75202,0.96482 12.91187,-4.3077c3.15984,-5.27253 2.5006,-11.89211 -1.47102,-14.78584c-3.97161,-2.89373 -9.75202,-0.96482 -12.91187,4.30771l-0.00001,-0.00001zm-11.62026,-8.35825c-4.3117,-2.98955 -11.12015,-0.17871 -15.20724,6.27729s-3.90377,14.11198 0.40792,17.10153s11.12015,0.17871 15.20725,-6.2773c4.08709,-6.456 3.90393,-14.11438 -0.40793,-17.10153l0,0.00001zm-33.70385,-32.29053c2.25549,4.4827 8.44671,5.97796 13.83158,3.34115c5.38382,-2.63808 7.92023,-8.40973 5.66473,-12.89244c-2.25549,-4.4827 -8.44671,-5.97796 -13.83158,-3.34115c-5.38382,2.63808 -7.92023,8.40973 -5.66473,12.89244zm20.32582,16.44335c-2.30461,-4.84791 -9.53737,-5.97678 -16.15636,-2.51999c-6.619,3.4568 -10.11593,10.18776 -7.81255,15.03682s9.53737,5.97678 16.15636,2.51999c6.61899,-3.45679 10.11716,-10.18889 7.81254,-15.03681l0.00001,-0.00001z" fill="#aedff2" id="svg_11" opacity="0.74"/>
   <path transform="rotate(32.8799 1638.14 288.359)" stroke="null" opstroke="null" d="m1639.77644,293.64416c9.30511,-4.72857 15.51106,-27.072 11.10057,-36.9439c-1.98641,-4.44612 -6.31467,-5.50588 -11.57948,-2.83047c-5.72298,2.90824 -8.0745,8.02369 -12.66437,10.35612c-4.62971,2.35267 -9.84672,1.08332 -15.51932,3.96595c-5.26481,2.67541 -7.21963,6.92805 -5.23323,11.37417c4.41049,9.8719 24.59071,18.8067 33.89583,14.07813l-0.00001,0l0.00001,0zm17.97572,-7.16351c3.19083,3.79499 8.22243,4.74588 11.23852,2.12522c3.01609,-2.62066 2.87387,-7.82104 -0.31696,-11.61602c-3.19082,-3.79499 -8.22242,-4.74588 -11.23852,-2.12522c-3.01608,2.62066 -2.87387,7.82104 0.31696,11.61602zm-8.74459,7.69205c-3.16218,2.87937 -2.59697,9.12628 1.26175,13.95279s9.54972,6.40369 12.7119,3.52432s2.59697,-9.12628 -1.26175,-13.95279c-3.85873,-4.8265 -9.55146,-6.40436 -12.7119,-3.52432zm-31.3028,20.49352c3.80837,-0.84732 6.28437,-5.61335 5.53201,-10.64748c-0.75352,-5.03355 -4.45092,-8.42729 -8.25929,-7.57998c-3.80836,0.84732 -6.28437,5.61335 -5.53201,10.64748c0.75352,5.03355 4.45092,8.42729 8.25929,7.57998zm16.64148,-13.04309c-4.0888,0.80535 -6.52527,6.51267 -5.44133,12.74922c1.08394,6.23656 5.27642,10.63865 9.36579,9.83456s6.52527,-6.51267 5.44133,-12.74922c-1.08394,-6.23656 -5.277,-10.63992 -9.36579,-9.83456z" fill="#ffea80" opacity="0.67" id="svg_10"/>
  </g>
  <g id="svg_7"/>
  <path transform="rotate(-70.5421 221.73 359.046)" stroke="null" opstroke="null" d="m212.60472,368.53345c12.14196,14.38298 51.00015,14.73637 64.66185,2.08696c6.15295,-5.69704 5.72956,-13.9565 -1.14034,-22.09436c-7.46774,-8.84604 -16.82051,-10.59322 -22.80969,-17.68781c-6.04117,-7.15618 -6.56434,-17.10774 -13.96635,-25.8759c-6.86989,-8.13786 -14.64511,-9.59023 -20.79808,-3.89318c-13.6617,12.64941 -18.08936,53.08132 -5.94739,67.4643l0,-0.00001zm20.29626,28.73425c-4.5187,7.53992 -3.57594,17.00619 2.10364,21.14435c5.67957,4.13816 13.94579,1.37973 18.46449,-6.16018c4.5187,-7.53993 3.57596,-17.0062 -2.10362,-21.14436c-5.67957,-4.13815 -13.9458,-1.37974 -18.46451,6.16019zm-16.61745,-11.95263c-6.1659,-4.27518 -15.90227,-0.25556 -21.74697,8.97678s-5.58255,20.18071 0.58334,24.45588s15.90228,0.25556 21.74699,-8.97679c5.8447,-9.23234 5.58278,-20.18414 -0.58336,-24.45588l0,0.00001zm-48.19787,-46.17677c3.22544,6.41044 12.07913,8.54873 19.77973,4.77798c7.69908,-3.77256 11.32624,-12.02626 8.10079,-18.43671c-3.22544,-6.41044 -12.07913,-8.54873 -19.77973,-4.77798c-7.69908,3.77255 -11.32625,12.02626 -8.10079,18.43671zm29.06674,23.51466c-3.29569,-6.93271 -13.63883,-8.54705 -23.10426,-3.6037c-9.46543,4.94336 -14.46619,14.56891 -11.17226,21.50326s13.63883,8.54705 23.10425,3.6037c9.46543,-4.94335 14.46795,-14.57054 11.17226,-21.50325l0.00001,-0.00001z" fill="#87ceeb" id="svg_29" opacity="0.74"/>
  <path transform="rotate(22.986 1602.22 466.11)" stroke="null" opstroke="null" d="m1604.50503,474.32615c12.99907,-7.3506 21.66866,-42.08364 15.50729,-57.42958c-2.77498,-6.91152 -8.82148,-8.55894 -16.17631,-4.39999c-7.99489,4.52088 -11.27992,12.47289 -17.69188,16.09866c-6.46761,3.65725 -13.75568,1.68403 -21.68018,6.1651c-7.35485,4.15895 -10.08569,10.76972 -7.31073,17.68124c6.16138,15.34596 34.35275,29.23517 47.35183,21.88457l-0.00002,0zm25.11173,-11.13575c4.45753,5.89934 11.48658,7.37752 15.69999,3.30367c4.21341,-4.07383 4.01475,-12.15787 -0.44279,-18.0572c-4.45751,-5.89933 -11.48657,-7.37751 -15.69999,-3.30366c-4.2134,4.07383 -4.01473,12.15786 0.44279,18.05719zm-12.21603,11.95736c-4.41751,4.476 -3.62791,14.18688 1.76265,21.68972s13.34077,9.95459 17.75828,5.47859s3.62792,-14.18688 -1.76264,-21.68972c-5.39058,-7.50284 -13.3432,-9.95563 -17.75829,-5.47859zm-43.7294,31.85733c5.32021,-1.31715 8.77914,-8.72599 7.72812,-16.55159c-1.05266,-7.8247 -6.21785,-13.10028 -11.53808,-11.78314c-5.3202,1.31716 -8.77914,8.72599 -7.72811,16.55159c1.05265,7.8247 6.21784,13.10029 11.53807,11.78314zm23.24782,-20.27558c-5.71197,1.25192 -9.11568,10.12399 -7.60144,19.81876c1.51425,9.69477 7.37106,16.53786 13.08383,15.2879s9.11568,-10.12399 7.60144,-19.81876c-1.51425,-9.69477 -7.37187,-16.53984 -13.08383,-15.2879z" fill="#71dbe6" opacity="0.67" id="svg_30"/>
 </g>

</svg>