
<svg width="2000" height="1000" xmlns="http://www.w3.org/2000/svg">
 <g>
  <title>Layer 1</title>
  <g transform="rotate(-110.326 516.844 128.498)" stroke="null" id="svg_1">
   <!--! Font Awesome Pro 6.0.0 by @fontawesome - https://fontawesome.com License - https://fontawesome.com/license (Commercial License) Copyright 2022 Fonticons, Inc. -->
   <g stroke="null" id="svg_2">
    <title stroke="null">Layer 1</title>
    <g stroke="null" id="svg_3" transform="matrix(0.139188 -0.0876811 0.0876811 0.139188 836.972 192.928)">
     <path stroke="null" id="svg_4" d="m-1437.79301,-1400.63061c-79.41,0 -192,122.76 -192,200.25c0,34.9 26.81,55.75 71.74,55.75c48.84,0 81.09,-25.08 120.26,-25.08c39.51,0 71.85,25.08 120.26,25.08c44.93,0 71.74,-20.85 71.74,-55.75c0,-77.49 -112.59,-200.25 -192,-200.25zm-147.28,-12.61c-10.4,-34.65 -42.44,-57.09 -71.56,-50.13c-29.12,6.96 -44.29,40.69 -33.89,75.34c10.4,34.65 42.44,57.09 71.56,50.13c29.12,-6.96 44.29,-40.69 33.89,-75.34zm84.72,-20.78c30.94,-8.14 46.42,-49.94 34.58,-93.36s-46.52,-72.01 -77.46,-63.87s-46.42,49.94 -34.58,93.36c11.84,43.42 46.53,72.02 77.46,63.87zm281.39,-29.34c-29.12,-6.96 -61.15,15.48 -71.56,50.13c-10.4,34.65 4.77,68.38 33.89,75.34c29.12,6.96 61.15,-15.48 71.56,-50.13c10.4,-34.65 -4.77,-68.38 -33.89,-75.34zm-156.27,29.34c30.94,8.14 65.62,-20.45 77.46,-63.87c11.84,-43.42 -3.64,-85.21 -34.58,-93.36s-65.62,20.45 -77.46,63.87c-11.84,43.42 3.64,85.22 34.58,93.36z" fill="rgba(254, 234, 128, 1)"/>
    </g>
   </g>
  </g>
  <g id="svg_5">
   <g id="svg_6" mask="url(#svg_10)" fill="none">
    <path id="svg_7" d="m2064.66667,997.80503l-2133.33333,0l0,-787.61q176.1,76.1 100,252.2q-31.85,-198.51 166.66667,-230.36q43.53333,-56.47 100,-12.94q42.32333,-57.68 100,-15.36q129.58333,-37.08 166.66666,92.51q77.91667,-22.08 100,55.84q93.87667,-72.79 166.66667,21.08q95.29,-4.71 100,90.59q59.37,-107.3 166.66667,-47.93q-6.85667,-106.86 100,-113.71q72.73333,-93.93 166.66666,-21.2q43.77667,-56.22 100,-12.44q15.70667,-84.29 100,-68.59q102.05667,-64.61 166.66667,37.45q203.51,36.84 166.66667,240.35q-55.96667,-222.63 166.66666,-278.6l0,798.72z" fill="rgba(254, 234, 128, 1)"/>
    <path id="svg_8" d="m1998.00001,997.80503l-2066.66667,0l0,-431.63q69.34,-30.66 100,38.69q25.6,-141.06 166.66667,-115.46q73.66333,-93 166.66666,-19.34q56.01667,-110.65 166.66667,-54.63q102.01,-64.66 166.66667,37.35q118.29333,-48.37 166.66666,69.92q128.35667,-38.31 166.66667,90.05q24.1,-75.9 100,-51.8q60.86,-39.14 100,21.72q7.35,-159.32 166.66667,-151.97q56.47333,-43.52 100,12.95q183.29333,16.63 166.66666,199.92q-37.58333,-204.25 166.66667,-241.83q205.78,39.12 166.66667,244.9l0,351.16z" fill="rgba(200, 238, 148, 1)"/>
    <path id="svg_9" d="m1964.66667,997.80503l-2033.33333,0l0,-299.4q94.23,-72.44 166.66667,21.79q62.64333,-104.02 166.66666,-41.38q86.07667,-13.92 100,72.16q118.96667,-47.7 166.66667,71.27q64.92,-101.75 166.66667,-36.83q38.75333,-61.24 100,-22.49q-3.57667,-103.58 100,-107.16q35.87333,-64.13 100,-28.26q73.81333,-26.18 100,47.63q144.21333,-22.45 166.66666,121.77q26.32667,-73.68 100,-47.35q-25.50333,-125.5 100,-151q191.65667,24.99 166.66667,216.64q111.5,-55.16 166.66667,56.34q62.67333,-104 166.66666,-41.33l0,167.6z" fill="rgba(255, 245, 224, 1)"/>
    <path id="svg_11" d="m2064.66667,997.80503l-2133.33333,0l0,-34.56q17.56,-149.11 166.66667,-131.55q75.58333,-91.08 166.66666,-15.5q139.73667,-26.93 166.66667,112.8q73.42,-26.57 100,46.85q13.33,-86.67 100,-73.35q30.11,-69.89 100,-39.78q92.13,-74.54 166.66667,17.59q98.59333,-1.41 100,97.18q7.19333,-92.81 100,-85.62q39.99333,-60.01 100,-20.01q109.39333,-57.27 166.66666,52.12q75.54667,-24.45 100,51.1q65.55667,-34.44 100,31.12q76.54667,-90.12 166.66667,-13.58q16.18,-150.48 166.66667,-134.3q90.30333,-76.37 166.66666,13.93l0,125.56z" fill="rgba(255, 245, 224, 1)"/>
   </g>
   <defs transform="translate(-2.00004 2.00004) translate(-66.6666 0) translate(0 -4.19501)">
    <mask id="svg_10">
     <rect id="svg_12" width="2000" height="1000" fill="#ffffff"/>
    </mask>
   </defs>
  </g>
  <g stroke="null" id="svg_17">
   <g transform="rotate(-134.022 661 67.7298)" stroke="null" id="svg_16">
    <title stroke="null" id="svg_13">Layer 1</title>
    <g stroke="null" id="svg_15" transform="matrix(0.0960706 -0.0605194 0.0605194 0.0960706 850.028 201.275)">
     <path stroke="null" id="svg_14" d="m-781.70584,-1914.50486c-79.41,0 -192,122.76 -192,200.25c0,34.9 26.81,55.75 71.74,55.75c48.84,0 81.09,-25.08 120.26,-25.08c39.51,0 71.85,25.08 120.26,25.08c44.93,0 71.74,-20.85 71.74,-55.75c0,-77.49 -112.59,-200.25 -192,-200.25zm-147.28,-12.61c-10.4,-34.65 -42.44,-57.09 -71.56,-50.13c-29.12,6.96 -44.29,40.69 -33.89,75.34c10.4,34.65 42.44,57.09 71.56,50.13c29.12,-6.96 44.29,-40.69 33.89,-75.34zm84.72,-20.78c30.94,-8.14 46.42,-49.94 34.58,-93.36s-46.52,-72.01 -77.46,-63.87s-46.42,49.94 -34.58,93.36c11.84,43.42 46.53,72.02 77.46,63.87zm281.39,-29.34c-29.12,-6.96 -61.15,15.48 -71.56,50.13c-10.4,34.65 4.77,68.38 33.89,75.34c29.12,6.96 61.15,-15.48 71.56,-50.13c10.4,-34.65 -4.77,-68.38 -33.89,-75.34zm-156.27,29.34c30.94,8.14 65.62,-20.45 77.46,-63.87c11.84,-43.42 -3.64,-85.21 -34.58,-93.36s-65.62,20.45 -77.46,63.87c-11.84,43.42 3.64,85.22 34.58,93.36z" opacity="0.8" fill="#75E5D0"/>
    </g>
   </g>
  </g>
  <g transform="rotate(-154.017 1501.18 120.339)" stroke="null" id="svg_22">
   <g stroke="null" id="svg_21">
    <title stroke="null" id="svg_18">Layer 1</title>
    <g stroke="null" id="svg_20" transform="matrix(0.122705 -0.0772977 0.0772977 0.122705 923.201 177.645)">
     <path stroke="null" id="svg_19" d="m3582.74891,1757.92146c-79.41,0 -192,122.76 -192,200.25c0,34.9 26.81,55.75 71.74,55.75c48.84,0 81.09,-25.08 120.26,-25.08c39.51,0 71.85,25.08 120.26,25.08c44.93,0 71.74,-20.85 71.74,-55.75c0,-77.49 -112.59,-200.25 -192,-200.25zm-147.28,-12.61c-10.4,-34.65 -42.44,-57.09 -71.56,-50.13c-29.12,6.96 -44.29,40.69 -33.89,75.34c10.4,34.65 42.44,57.09 71.56,50.13c29.12,-6.96 44.29,-40.69 33.89,-75.34zm84.72,-20.78c30.94,-8.14 46.42,-49.94 34.58,-93.36s-46.52,-72.01 -77.46,-63.87s-46.42,49.94 -34.58,93.36c11.84,43.42 46.53,72.02 77.46,63.87zm281.39,-29.34c-29.12,-6.96 -61.15,15.48 -71.56,50.13c-10.4,34.65 4.77,68.38 33.89,75.34c29.12,6.96 61.15,-15.48 71.56,-50.13c10.4,-34.65 -4.77,-68.38 -33.89,-75.34zm-156.27,29.34c30.94,8.14 65.62,-20.45 77.46,-63.87c11.84,-43.42 -3.64,-85.21 -34.58,-93.36s-65.62,20.45 -77.46,63.87c-11.84,43.42 3.64,85.22 34.58,93.36z" fill="rgb(151,237,179)"/>
    </g>
   </g>
  </g>
 </g>
</svg>