
<svg width="1800.0000000000005" height="1100" xmlns="http://www.w3.org/2000/svg">
 <g>
  <title>Layer 1</title>
  <path fill="#fbdf3b" d="m260.26215,208.1922l32.15304,0l9.93554,-30.54526l9.93554,30.54526l32.15303,0l-26.01231,18.87779l9.93605,30.54526l-26.01232,-18.87831l-26.01231,18.87831l9.93605,-30.54526l-26.01231,-18.87779z" id="svg_2" stroke="#fbdf3b"/>
  <path stroke="#fbdf3b" fill="#fbdf3b" d="m1250.0681,214.55196l51.65115,0l15.9606,-49.83429l15.96061,49.83429l51.65112,0l-41.78657,30.79895l15.96143,49.8343l-41.78659,-30.79977l-41.78658,30.79977l15.96143,-49.8343l-41.78659,-30.79895l-0.00001,0z" id="svg_5" transform="rotate(9.77675 1317.68 229.952)"/>
  <path fill="#fbdf3b" d="m1588.00398,504.44439l32.15304,0l9.93554,-30.54526l9.93554,30.54526l32.15303,0l-26.0123,18.87779l9.93605,30.54526l-26.01232,-18.8783l-26.01231,18.8783l9.93605,-30.54526l-26.01232,-18.87779z" id="svg_9" stroke="#fbdf3b" transform="rotate(48.4004 1630.09 513.884)"/>
  <path stroke="#fbdf3b" stroke-width="5" fill="#1e1927" d="m223.67151,357.18328l28.4258,0l8.7838,-27.0044l8.7838,27.0044l28.4258,0l-22.99691,16.68945l8.78424,27.0044l-22.99693,-16.68989l-22.99692,16.68989l8.78424,-27.0044l-22.99693,-16.68945l0.00001,0z" id="svg_10" transform="rotate(-37.165 260.881 365.528)"/>
  <path fill="#fbdf3b" d="m384.3128,749.37232l35.90019,0l11.09344,-34.10503l11.09344,34.10503l35.90018,0l-29.04381,21.07784l11.09401,34.10504l-29.04382,-21.0784l-29.04381,21.0784l11.09401,-34.10504l-29.04382,-21.07784l-0.00001,0z" id="svg_1" stroke="#fbdf3b"/>
  <path opacity="0.8" stroke="#fbdf3b" stroke-width="5" fill="#1e1927" d="m1450.75292,614.98624l35.19512,0l10.87557,-33.43524l10.87556,33.43524l35.19512,0l-28.47338,20.66386l10.87612,33.43522l-28.47342,-20.66442l-28.4734,20.66442l10.87612,-33.43522l-28.47342,-20.66386l0.00001,0z" id="svg_3" transform="rotate(40.0491 1496.82 625.319)"/>
  <path opacity="0.8" stroke="#fbdf3b" fill="#fbdf3b" d="m1571.60257,316.07929l38.40303,0l11.86684,-36.8602l11.86684,36.8602l38.40302,0l-31.06864,22.78061l11.86745,36.86021l-31.06866,-22.78122l-31.06864,22.78122l11.86745,-36.86021l-31.06866,-22.78061l-0.00001,0l-0.00002,0z" id="svg_4" transform="rotate(-14.0576 1621.87 327.47)"/>
  <path opacity="0.4" stroke-width="0" stroke="#1e1927" fill="#fbdf3b" d="m192.41681,664.62883l23.51175,0l7.26531,-22.33606l7.26531,22.33606l23.51174,0l-19.02137,13.8043l7.26569,22.33607l-19.02138,-13.80466l-19.02137,13.80466l7.26569,-22.33607l-19.02138,-13.8043l-0.00001,0l0.00002,0z" id="svg_6" transform="rotate(26.2173 223.194 671.531)"/>
  <g id="svg_13">
   <rect y="-1.26582" id="svg_12" width="1800" height="1100" x="65.36858" fill="none"/>
   <g id="svg_14" class="currentLayer">
    <title>Layer 1</title>
    <path transform="rotate(3.7178 980.142 482.072)" opstroke="null" id="svg_11" d="m980.15019,428.25493c-131.02185,0 -316.78875,206.47787 -316.78875,336.81324c0,58.70053 44.23493,93.76948 118.3668,93.76948c80.58314,0 133.79375,-42.18365 198.42196,-42.18365c65.18919,0 118.54829,42.18365 198.42196,42.18365c74.13187,0 118.3668,-35.06894 118.3668,-93.76948c0,-130.33537 -185.7669,-336.81324 -316.78875,-336.81324l-0.00002,0zm-243.00337,-21.20956c-17.15939,-58.28004 -70.02351,-96.02331 -118.06981,-84.31684c-48.04629,11.70647 -73.07591,68.4391 -55.91651,126.71915c17.15939,58.28004 70.02351,96.02331 118.06981,84.31684c48.04629,-11.70647 73.07591,-68.4391 55.91651,-126.71915zm139.78304,-34.95121c51.04919,-13.69118 76.59028,-83.99727 57.05497,-157.02813s-76.75527,-121.11821 -127.80446,-107.42702s-76.59028,83.99727 -57.05497,157.02813c19.53531,73.03087 76.77177,121.13503 127.80446,107.42702zm464.27702,-49.34882c-48.04629,-11.70647 -100.89392,26.0368 -118.06981,84.31684c-17.15939,58.28004 7.87022,115.01268 55.91651,126.71915c48.04629,11.70647 100.89392,-26.0368 118.06981,-84.31684c17.15939,-58.28004 -7.87022,-115.01268 -55.91651,-126.71915zm-257.83635,49.34882c51.04919,13.69118 108.26916,-34.39616 127.80446,-107.42702c19.53531,-73.03087 -6.00579,-143.32013 -57.05497,-157.02813s-108.26916,34.39616 -127.80446,107.42702c-19.53531,73.03087 6.00579,143.33695 57.05497,157.02813z" fill="#494454" class="selected"/>
    <path transform="rotate(-131.48 548.338 1010.94)" opstroke="null" d="m548.33921,1002.80521c-19.81199,0 -47.90206,31.2218 -47.90206,50.92999c0,8.87618 6.68883,14.17901 17.89841,14.17901c12.18508,0 20.23113,-6.37865 30.00365,-6.37865c9.85735,0 17.92585,6.37865 30.00366,6.37865c11.20958,0 17.8984,-5.30282 17.8984,-14.17901c0,-19.70819 -28.09007,-50.92999 -47.90206,-50.92999zm-36.74487,-3.20713c-2.5947,-8.8126 -10.58835,-14.51981 -17.8535,-12.74966c-7.26514,1.77015 -11.0499,10.34877 -8.45521,19.16137c2.5947,8.81261 10.58835,14.51982 17.8535,12.74967c7.26514,-1.77015 11.04991,-10.34877 8.45521,-19.16138zm21.13678,-5.28502c7.71922,-2.07026 11.58132,-12.70134 8.62736,-23.74443s-11.60627,-18.31445 -19.32548,-16.24419s-11.58132,12.70134 -8.62736,23.74444c2.95396,11.04309 11.60876,18.31699 19.32548,16.24418zm70.20396,-7.4621c-7.26514,-1.77015 -15.2563,3.93706 -17.85349,12.74966c-2.5947,8.81261 1.19006,17.39123 8.45521,19.16138c7.26514,1.77015 15.2563,-3.93706 17.85349,-12.74966c2.5947,-8.81261 -1.19006,-17.39123 -8.45521,-19.16138zm-38.98778,7.4621c7.71921,2.07026 16.37152,-5.20109 19.32548,-16.24418c2.95396,-11.0431 -0.90814,-21.67163 -8.62736,-23.74444s-16.37152,5.20109 -19.32548,16.24419c-2.95396,11.04309 0.90814,21.67417 8.62736,23.74443z" fill="#494454" id="svg_8" opacity="0.74"/>
    <path transform="rotate(154.523 733.114 978.393)" opstroke="null" d="m733.115,972.60734c-14.08662,0 -34.05908,22.19917 -34.05908,36.21198c0,6.3111 4.75586,10.08149 12.72603,10.08149c8.66378,0 14.38464,-4.53531 21.33305,-4.53531c7.00872,0 12.74555,4.53531 21.33305,4.53531c7.97018,0 12.72603,-3.77039 12.72603,-10.08149c0,-14.01281 -19.97246,-36.21198 -34.05908,-36.21198zm-26.12615,-2.28031c-1.84487,-6.2659 -7.52848,-10.32381 -12.6941,-9.0652c-5.16563,1.2586 -7.85665,7.35812 -6.01178,13.62402c1.84486,6.26589 7.52847,10.3238 12.6941,9.0652c5.16562,-1.2586 7.85665,-7.35813 6.01178,-13.62402zm15.02857,-3.75773c5.48848,-1.47199 8.23449,-9.03084 6.13418,-16.88265s-8.25223,-13.02185 -13.74071,-11.54986s-8.23449,9.03084 -6.13418,16.88265c2.10031,7.85181 8.254,13.02365 13.74071,11.54986zm49.91606,-5.30567c-5.16563,-1.2586 -10.84746,2.79931 -12.6941,9.0652c-1.84487,6.2659 0.84615,12.36542 6.01178,13.62403c5.16562,1.2586 10.84746,-2.79931 12.6941,-9.0652c1.84487,-6.2659 -0.84615,-12.36542 -6.01178,-13.62403zm-27.7209,5.30567c5.48848,1.47199 11.6404,-3.69805 13.74071,-11.54986c2.10031,-7.85181 -0.6457,-15.40885 -6.13418,-16.88265s-11.6404,3.69805 -13.74071,11.54986c-2.10031,7.85181 0.64571,15.41066 6.13418,16.88265z" fill="#494454" opacity="0.67" id="svg_7"/>
   </g>
  </g>
  <path transform="rotate(45 1470.74 965.152)" id="svg_15" d="m1425.35544,954.97379l34.67111,0l10.71364,-32.93741l10.71365,32.93741l34.67111,0l-28.04947,20.35621l10.71419,32.93741l-28.04948,-20.35676l-28.04947,20.35676l10.7142,-32.93741l-28.04948,-20.35621z" stroke="#fff" fill="#fbdf3b"/>
  <path transform="rotate(58.1705 290.605 929.798)" id="svg_16" d="m218.29697,913.58198l55.23877,0l17.0692,-52.4766l17.06921,52.4766l55.23876,0l-44.68902,32.43195l17.07009,52.4766l-44.68904,-32.43283l-44.68903,32.43283l17.07009,-52.4766l-44.68904,-32.43195z" stroke="#fff" fill="#fbdf3b"/>
 </g>

</svg>