
<svg width="2000.0000000000002" height="1000.0000000000001" xmlns="http://www.w3.org/2000/svg" version="1.1">
 <g class="currentLayer">
  <title>Layer 1</title>
  <g fill="#AFDE7F" id="svg_2">
   <path id="svg_3" fill="#AFDE7F" d="m900,1000c64.7,-105.9 129.4,-211.8 193.2,-292.8c63.9,-80.9 126.9,-136.8 180,-234c53.1,-97.2 96.2,-235.6 182.4,-304.7c86.1,-69.1 215.3,-68.8 344.4,-68.5l0,900l-900,0z"/>
  </g>

  <path d="m635.18541,863.61533c-0.04149,-0.03237 -0.08893,-0.01226 -0.1346,-0.01469c-0.04001,-0.03428 -0.08864,0.00725 -0.12634,-0.02576c-0.04875,-0.04349 0.03576,-0.07071 0.01774,-0.12234c-0.00203,-0.07432 -0.03385,-0.14164 -0.06731,-0.2041c-0.02369,-0.04966 -0.0153,-0.10673 -0.02292,-0.15987c-0.02738,-0.03816 -0.05472,-0.0854 -0.02215,-0.13254c0.0368,-0.03976 0.0195,-0.09206 0.00504,-0.13803c0.03721,0.01094 0.07991,0.06078 0.12885,0.0508c0.03328,-0.02144 0.05349,-0.00025 0.05904,0.03899c0.01745,0.05038 0.02763,0.11928 0.0827,0.13554c0.05783,0.01651 0.12259,0.02018 0.16833,0.06863c0.08365,0.07836 0.12243,0.20189 0.11915,0.32096c0.00758,0.05569 0.07745,0.02613 0.11202,0.03435c0.05799,-0.00258 0.11365,0.01563 0.16977,0.02814c0.05008,0.01332 0.09251,-0.02881 0.13958,-0.03386c0.00795,0.04869 -0.05384,0.06897 -0.08759,0.08398c-0.04006,0.01704 -0.08343,0.01744 -0.12458,0.00494c-0.08897,-0.02218 -0.18326,-0.01636 -0.2678,0.02265c-0.04563,0.01681 -0.08994,0.04862 -0.13958,0.04464l-0.00935,-0.00243l0,0l0,0z" id="svg_6" fill-rule="nonzero" fill="#AFDE7F"/>
 </g>

 <g>
  <title>Layer 2</title>
  <path d="m292.89122,418.55281c14.18137,-11.02162 17.24982,-48.57142 6.49469,-62.40992c-4.84391,-6.23259 -12.5256,-6.235 -20.54939,0.00101c-8.72205,6.77869 -11.00044,15.73369 -17.99558,21.17024c-7.05586,5.48375 -16.31223,5.49345 -24.95748,12.21246c-8.02379,6.23601 -9.91778,13.68056 -5.07387,19.91314c10.75514,13.83849 47.90027,20.13468 62.08165,9.11306l-0.00001,0.00001l-0.00001,0zm28.05207,-18.18962c6.66649,4.74449 15.50286,4.30496 19.73722,-0.97967c4.23436,-5.28462 2.26197,-13.41378 -4.40452,-18.15826c-6.66649,-4.74449 -15.50286,-4.30496 -19.73722,0.97967c-4.23436,5.28462 -2.26197,13.41378 4.40452,18.15826zm-12.24552,15.4696c-4.39561,5.74796 -1.35851,15.36131 6.78235,21.47211s18.30228,6.40315 22.6979,0.6552s1.35851,-15.36131 -6.78235,-21.47211c-8.14087,-6.11081 -18.30546,-6.40355 -22.6979,-0.6552zm-46.1796,44.29487c6.16637,-2.79873 8.77189,-11.25173 5.82175,-18.88452c-2.95193,-7.6314 -10.34257,-11.54954 -16.50895,-8.75081c-6.16637,2.79873 -8.77189,11.25173 -5.82175,18.88452c2.95193,7.6314 10.34257,11.54954 16.50895,8.75081zm23.83514,-26.92898c-6.65518,2.84061 -8.88036,12.7597 -4.96837,22.15715c3.91199,9.39745 12.47668,14.71195 19.13324,11.87313s8.88036,-12.7597 4.96837,-22.15715c-3.91199,-9.39745 -12.47806,-14.71373 -19.13324,-11.87313z" fill="#7ECEF4" id="svg_5" stroke="null"  opacity=".8" transform="rotate(11.53 285.54 409.73)"/>
  
  <path transform="rotate(68.7724 1411.96 439.908)" stroke="null" d="m1416.05798,454.07563c7.90585,-17.69909 9.61646,-77.99845 3.62067,-100.22101c-2.70039,-10.00861 -6.9828,-10.01248 -11.45591,0.00161c-4.86238,10.88557 -6.13255,25.26595 -10.03221,33.99626c-3.93352,8.80607 -9.09377,8.82166 -13.91334,19.61139c-4.47311,10.01409 -5.52898,21.96893 -2.82859,31.97753c5.99579,22.22255 26.70353,32.33329 34.60938,14.63421l-0.00001,0.00001l0.00001,0zm15.63851,-29.20982c3.71644,7.61895 8.64256,6.91313 11.00314,-1.57319c2.36058,-8.48632 1.26101,-21.54052 -2.45544,-29.15946c-3.71644,-7.61894 -8.64256,-6.91312 -11.00314,1.57321c-2.36059,8.48632 -1.26101,21.54052 2.45544,29.15945l0,-0.00001zm-6.82665,24.84187c-2.45047,9.23036 -0.75734,24.66798 3.78104,34.48101s10.20319,10.2825 12.65366,1.05214s0.75734,-24.66796 -3.78104,-34.481c-4.53838,-9.81305 -10.20496,-10.28314 -12.65366,-1.05215zm-25.74428,71.13096c3.43764,-4.49435 4.89017,-18.0686 3.24552,-30.32572c-1.64565,-12.25489 -5.76579,-18.54683 -9.20344,-14.05248c-3.43764,4.49435 -4.89017,18.06859 -3.24552,30.32571c1.64565,12.2549 5.76579,18.54683 9.20343,14.05249zm13.28765,-43.24392c-3.71014,4.56159 -4.95064,20.49018 -2.76977,35.58107c2.18086,15.0909 6.95552,23.62519 10.66643,19.06648s4.95064,-20.49018 2.76978,-35.58108c-2.18086,-15.09089 -6.95629,-23.62806 -10.66644,-19.06647z" fill="#fff8e8" id="svg_8" opacity="0.5"/>
  <path transform="rotate(58.7019 1608.19 393.1)" opacity="0.8" d="m1613.02256,405.40335c9.31371,-15.37033 11.32894,-67.7358 4.26543,-87.03441c-3.18127,-8.69173 -8.22627,-8.69509 -13.49595,0.0014c-5.72826,9.45329 -7.22461,21.94159 -11.81871,29.52319c-4.63399,7.64741 -10.71317,7.66095 -16.391,17.03101c-5.26968,8.69649 -6.51357,19.07837 -3.3323,27.77008c7.06351,19.29861 31.45882,28.07903 40.77254,12.70871l0,0.00002l-0.00001,0zm18.42339,-25.36653c4.37826,6.61648 10.18161,6.00354 12.96255,-1.3662c2.78094,-7.36973 1.48556,-18.70632 -2.8927,-25.32279c-4.37826,-6.61648 -10.18161,-6.00353 -12.96255,1.36621c-2.78095,7.36973 -1.48556,18.70632 2.8927,25.32278zm-8.04233,21.57329c-2.88685,8.01588 -0.8922,21.42228 4.45436,29.94417s12.02015,8.92958 14.907,0.9137s0.89221,-21.42226 -4.45436,-29.94416c-5.34657,-8.52189 -12.02223,-8.93013 -14.907,-0.91371zm-30.32876,61.77189c4.0498,-3.903 5.761,-15.69122 3.82347,-26.33561c-1.9387,-10.64245 -6.79255,-16.10653 -10.84237,-12.20352c-4.0498,3.903 -5.761,15.69121 -3.82347,26.3356c1.9387,10.64246 6.79254,16.10653 10.84236,12.20353l0.00001,0zm15.65388,-37.5541c-4.37083,3.96139 -5.83224,17.79418 -3.263,30.89948c2.56923,13.10531 8.19414,20.5167 12.56588,16.55781s5.83224,-17.79419 3.26301,-30.8995c-2.56923,-13.1053 -8.19504,-20.51919 -12.56589,-16.55779z" fill="#fff8e8" id="svg_9" stroke="null"/>
  <path d="m1115.46937,687.21035c21.74827,-16.90255 26.45398,-74.48816 9.96012,-95.71059c-7.42852,-9.55818 -19.20901,-9.56187 -31.51414,0.00154c-13.37596,10.39566 -16.87005,24.12887 -27.59765,32.46626c-10.82074,8.40976 -25.01611,8.42464 -38.2743,18.72878c-12.30512,9.56341 -15.2097,20.98023 -7.78118,30.53839c16.49387,21.22243 73.45889,30.87814 95.20716,13.9756l-0.00001,0.00002zm43.02009,-27.89524c10.22358,7.27606 23.77487,6.60201 30.2686,-1.50239c6.49373,-8.10439 3.46891,-20.57109 -6.75468,-27.84714c-10.22358,-7.27605 -23.77487,-6.602 -30.2686,1.5024c-6.49374,8.10439 -3.46891,20.57109 6.75468,27.84713zm-18.77949,23.72386c-6.74102,8.81496 -2.08337,23.5578 10.40129,32.92921s28.06802,9.81974 34.80904,1.00478s2.08339,-23.55778 -10.40129,-32.92919c-12.48467,-9.37141 -28.07288,-9.82035 -34.80904,-1.0048zm-70.82009,67.92973c9.45662,-4.29208 13.45239,-17.25543 8.92811,-28.96092c-4.52702,-11.70336 -15.86115,-17.71214 -25.3178,-13.42005c-9.45662,4.29208 -13.45239,17.25542 -8.9281,28.96091c4.52701,11.70337 15.86114,17.71214 25.31779,13.42006zm36.55308,-41.29774c-10.20623,4.35629 -13.61874,19.56802 -7.61937,33.97975c5.99935,14.41174 19.13397,22.56194 29.34234,18.2084s13.61874,-19.56803 7.61939,-33.97977c-5.99935,-14.41172 -19.13609,-22.56468 -29.34236,-18.20838z" fill="#AFDE7F" id="svg_10" stroke="null" transform="rotate(134.427 1104.2 673.681)"/>
  <g transform="rotate(0.975709 2264.97 563.135)" stroke="null" id="svg_11">
   <g stroke="null" id="svg_13"/>
   <g stroke="null" id="svg_15">
    <path stroke="null" id="svg_16" d="m1788.17006,108.76851c122.97399,8.39969 246.05192,16.79744 359.36804,62.4483c113.42007,45.64891 217.18228,128.549 272.88427,226.18887c55.704,97.74084 63.34779,210.22147 108.85944,313.10293c45.61559,102.87951 128.99509,196.16181 212.47854,289.44215l-935.52122,17.55169l-18.06907,-908.73395z" fill="#AFDE7F"/>
   </g>
  </g>
  <path transform="rotate(80.5063 1787.7 117.693)" stroke="null" d="m1790.57028,129.99585c5.53469,-15.37033 6.73224,-67.7358 2.53474,-87.03441c-1.89048,-8.69173 -4.88848,-8.69509 -8.01999,0.0014c-3.40403,9.45329 -4.29324,21.94159 -7.02329,29.52319c-2.75376,7.64741 -6.36632,7.66095 -9.74038,17.03101c-3.13152,8.69649 -3.8707,19.07837 -1.98023,27.77008c4.1975,19.29861 18.69446,28.07903 24.22916,12.70871l0,0.00002l-0.00001,0zm10.94814,-25.36653c2.60179,6.61648 6.05044,6.00354 7.70302,-1.3662c1.65258,-7.36973 0.8828,-18.70632 -1.71899,-25.32279c-2.60179,-6.61648 -6.05044,-6.00353 -7.70302,1.36621c-1.65258,7.36973 -0.8828,18.70632 1.71899,25.32278zm-4.77917,21.57329c-1.71552,8.01588 -0.53019,21.42228 2.64701,29.94417s7.143,8.92958 8.85851,0.9137s0.5302,-21.42226 -2.64701,-29.94416c-3.17721,-8.52189 -7.14423,-8.93013 -8.85851,-0.91371zm-18.02292,61.77189c2.4066,-3.903 3.42349,-15.69122 2.2721,-26.33561c-1.15208,-10.64245 -4.03649,-16.10653 -6.4431,-12.20352c-2.4066,3.903 -3.42349,15.69121 -2.2721,26.3356c1.15208,10.64246 4.03648,16.10653 6.44309,12.20353l0.00001,0zm9.30235,-37.5541c-2.59737,3.96139 -3.46582,17.79418 -1.93904,30.89948c1.52677,13.10531 4.86938,20.5167 7.4673,16.55781s3.46582,-17.79419 1.93905,-30.8995c-1.52677,-13.1053 -4.86992,-20.51919 -7.4673,-16.55779z" fill="#fff8e8" id="svg_17"/>
  <path transform="rotate(21.6676 189.328 557.458)" opacity="0.6" stroke="null" d="m194.56594,564.17702c10.10481,-8.39429 12.29121,-36.99299 4.62773,-47.53267c-3.45148,-4.74687 -8.925,-4.7487 -14.64229,0.00077c-6.21482,5.16279 -7.83827,11.9831 -12.82259,16.12369c-5.02759,4.17654 -11.62313,4.18392 -17.78323,9.30126c-5.71728,4.74947 -7.06683,10.41939 -3.61534,15.16625c7.66348,10.53968 34.13091,15.33498 44.23573,6.94069l-0.00001,0.00001l-0.00001,0zm19.98825,-13.85359c4.75015,3.6135 11.04642,3.27875 14.06358,-0.74614c3.01716,-4.02487 1.61175,-10.21621 -3.1384,-13.8297c-4.75015,-3.6135 -11.04642,-3.27875 -14.06358,0.74614c-3.01716,4.02487 -1.61175,10.21621 3.1384,13.8297zm-8.72544,11.78196c-3.13205,4.37776 -0.96799,11.69949 4.8327,16.3536s13.04113,4.87677 16.17319,0.49901s0.96799,-11.69949 -4.8327,-16.3536c-5.8007,-4.65412 -13.04339,-4.87707 -16.17319,-0.49901zm-32.90486,33.73588c4.39379,-2.13157 6.25033,-8.56955 4.14824,-14.38284c-2.10337,-5.81223 -7.36951,-8.79637 -11.76331,-6.6648c-4.39379,2.13157 -6.25033,8.56955 -4.14824,14.38284c2.10337,5.81223 7.36951,8.79637 11.76331,6.6648zm16.98352,-20.50966c-4.74209,2.16347 -6.32762,9.71805 -3.54017,16.87534c2.78745,7.15729 8.89015,11.20492 13.63322,9.04282s6.32762,-9.71805 3.54017,-16.87534c-2.78745,-7.15729 -8.89113,-11.20628 -13.63322,-9.04282z" fill="#4048d3" id="svg_19"/>
 </g>
</svg>