
<svg width="2000.0000000000002" height="1000.0000000000001" xmlns="http://www.w3.org/2000/svg" version="1.1">
 <g>
  <title>Layer 1</title>
  <path id="svg_1" fill="#87ceeb" d="m0,474l33.3,-17.3c33.4,-17.4 100,-52 166.7,-56.5c66.7,-4.5 133.3,21.1 200,45.1c66.7,24 133.3,46.4 200,23.7c66.7,-22.7 133.3,-90.3 200,-114.2c66.7,-23.8 133.3,-3.8 200,-4.8c66.7,-1 133.3,-23 200,-27.3c66.7,-4.4 133.3,9 200,12.1c66.7,3.2 133.3,-3.8 200,16.7c66.7,20.5 133.3,68.5 200,83c66.7,14.5 133.3,-4.5 166.7,-14l33.3,-9.5l0,-411l-33.3,0c-33.4,0 -100,0 -166.7,0c-66.7,0 -133.3,0 -200,0c-66.7,0 -133.3,0 -200,0c-66.7,0 -133.3,0 -200,0c-66.7,0 -133.3,0 -200,0c-66.7,0 -133.3,0 -200,0c-66.7,0 -133.3,0 -200,0c-66.7,0 -133.3,0 -200,0c-66.7,0 -133.3,0 -200,0c-66.7,0 -133.3,0 -166.7,0l-33.3,0l0,474z"/>
  <path id="svg_2" fill="#71dbe6" d="m0,442l33.3,-30.7c33.4,-30.6 100,-92 166.7,-115.3c66.7,-23.3 133.3,-8.7 200,1.3c66.7,10 133.3,15.4 200,12c66.7,-3.3 133.3,-15.3 200,3.5c66.7,18.9 133.3,68.5 200,68.9c66.7,0.3 133.3,-48.7 200,-48.7c66.7,0 133.3,49 200,51.7c66.7,2.6 133.3,-41 200,-57.7c66.7,-16.7 133.3,-6.3 200,-2.2c66.7,4.2 133.3,2.2 166.7,1.2l33.3,-1l0,-325l-33.3,0c-33.4,0 -100,0 -166.7,0c-66.7,0 -133.3,0 -200,0c-66.7,0 -133.3,0 -200,0c-66.7,0 -133.3,0 -200,0c-66.7,0 -133.3,0 -200,0c-66.7,0 -133.3,0 -200,0c-66.7,0 -133.3,0 -200,0c-66.7,0 -133.3,0 -200,0c-66.7,0 -133.3,0 -200,0c-66.7,0 -133.3,0 -166.7,0l-33.3,0l0,442z"/>
  <path id="svg_3" fill="#76e6d1" d="m0,287l33.3,-4.8c33.4,-4.9 100,-14.5 166.7,-24.4c66.7,-9.8 133.3,-19.8 200,-21.1c66.7,-1.4 133.3,6 200,2c66.7,-4 133.3,-19.4 200,-8c66.7,11.3 133.3,49.3 200,47.6c66.7,-1.6 133.3,-43 200,-44.1c66.7,-1.2 133.3,37.8 200,60.8c66.7,23 133.3,30 200,31.5c66.7,1.5 133.3,-2.5 200,-0.8c66.7,1.6 133.3,9 166.7,12.6l33.3,3.7l0,-342l-33.3,0c-33.4,0 -100,0 -166.7,0c-66.7,0 -133.3,0 -200,0c-66.7,0 -133.3,0 -200,0c-66.7,0 -133.3,0 -200,0c-66.7,0 -133.3,0 -200,0c-66.7,0 -133.3,0 -200,0c-66.7,0 -133.3,0 -200,0c-66.7,0 -133.3,0 -200,0c-66.7,0 -133.3,0 -200,0c-66.7,0 -133.3,0 -166.7,0l-33.3,0l0,287z"/>
  <path id="svg_4" fill="#98edb3" d="m0,255l33.3,-0.5c33.4,-0.5 100,-1.5 166.7,-19c66.7,-17.5 133.3,-51.5 200,-45.7c66.7,5.9 133.3,51.5 200,60.4c66.7,8.8 133.3,-19.2 200,-38.2c66.7,-19 133.3,-29 200,-15c66.7,14 133.3,52 200,66.3c66.7,14.4 133.3,5 200,-9c66.7,-14 133.3,-32.6 200,-48.8c66.7,-16.2 133.3,-29.8 200,-16.3c66.7,13.5 133.3,54.1 166.7,74.5l33.3,20.3l0,-284l-33.3,0c-33.4,0 -100,0 -166.7,0c-66.7,0 -133.3,0 -200,0c-66.7,0 -133.3,0 -200,0c-66.7,0 -133.3,0 -200,0c-66.7,0 -133.3,0 -200,0c-66.7,0 -133.3,0 -200,0c-66.7,0 -133.3,0 -200,0c-66.7,0 -133.3,0 -200,0c-66.7,0 -133.3,0 -200,0c-66.7,0 -133.3,0 -166.7,0l-33.3,0l0,255z"/>
  <path id="svg_5" fill="#c8ee94" d="m0,184l33.3,-16.2c33.4,-16.1 100,-48.5 166.7,-55.8c66.7,-7.3 133.3,10.3 200,12.5c66.7,2.2 133.3,-11.2 200,-7c66.7,4.2 133.3,25.8 200,34.8c66.7,9 133.3,5.4 200,2.4c66.7,-3 133.3,-5.4 200,1.1c66.7,6.5 133.3,21.9 200,15.4c66.7,-6.5 133.3,-34.9 200,-34.9c66.7,0 133.3,28.4 200,28.2c66.7,-0.2 133.3,-28.8 166.7,-43.2l33.3,-14.3l0,-107l-33.3,0c-33.4,0 -100,0 -166.7,0c-66.7,0 -133.3,0 -200,0c-66.7,0 -133.3,0 -200,0c-66.7,0 -133.3,0 -200,0c-66.7,0 -133.3,0 -200,0c-66.7,0 -133.3,0 -200,0c-66.7,0 -133.3,0 -200,0c-66.7,0 -133.3,0 -200,0c-66.7,0 -133.3,0 -200,0c-66.7,0 -133.3,0 -166.7,0l-33.3,0l0,184z"/>
  <path id="svg_6" fill="#ffea80" d="m0,116l33.3,-9.5c33.4,-9.5 100,-28.5 166.7,-30.2c66.7,-1.6 133.3,14 200,12.2c66.7,-1.8 133.3,-21.2 200,-28.2c66.7,-7 133.3,-1.6 200,9.5c66.7,11.2 133.3,28.2 200,33c66.7,4.9 133.3,-2.5 200,-7.3c66.7,-4.8 133.3,-7.2 200,-7.8c66.7,-0.7 133.3,0.3 200,-6.5c66.7,-6.9 133.3,-21.5 200,-21.9c66.7,-0.3 133.3,13.7 166.7,20.7l33.3,7l0,-87l-33.3,0c-33.4,0 -100,0 -166.7,0c-66.7,0 -133.3,0 -200,0c-66.7,0 -133.3,0 -200,0c-66.7,0 -133.3,0 -200,0c-66.7,0 -133.3,0 -200,0c-66.7,0 -133.3,0 -200,0c-66.7,0 -133.3,0 -200,0c-66.7,0 -133.3,0 -200,0c-66.7,0 -133.3,0 -200,0c-66.7,0 -133.3,0 -166.7,0l-33.3,0l0,116z"/>
  <g id="svg_7">
   <rect transform="rotate(79.5136 362.421 701.593)" id="svg_8" x="112.42127" y="501.59315" width="500" height="400" fill=" rgb(255, 255, 255)" fill-opacity="0"/>
   <g id="svg_9" transform="rotate(79.5136 314.605 838.857) matrix(1.10053 0.706342 -0.706342 1.10053 -646.346 -915.117)">
    <g id="svg_14" transform="matrix(0.863653 0.11996 -0.11996 0.863653 230.063 -84.4015)">
     <path id="svg_15" class="st2" d="m1387.06779,678.95117c-4.8,0 -9.5,0.6 -14.1,1.6c23.1,10.1 39.3,34 39.3,62c0,28 -16.2,51.9 -39.3,62c4.5,1 9.2,1.6 14.1,1.6c35.1,0 63.6,-28.5 63.6,-63.6c0,-35.1 -28.5,-63.6 -63.6,-63.6z" fill=" rgb(251, 223, 59)"/>
     <path id="svg_16" d="m1334.26784,669.15117l3.8999,6.29999l6.70007,3.1l-6.30004,3.9l-3.19996,6.70001l-3.90002,-6.29999l-6.59998,-3.20001l6.29993,-3.79999l3.1001,-6.70001z" class="st2" fill=" rgb(251, 223, 59)"/>
     <path id="svg_17" d="m1400.26784,642.75118l2.59997,4.29998l4.5,2.10001l-4.20007,2.7l-2.19995,4.5l-2.59998,-4.2l-4.5,-2.2l4.19996,-2.6l2.20007,-4.59999z" class="st2" fill=" rgb(251, 223, 59)"/>
     <path id="svg_18" d="m1481.36781,740.35118l2.59998,4.29999l4.5,2.10001l-4.19995,2.69998l-2.20007,4.5l-2.59998,-4.29999l-4.5,-2.10001l4.19995,-2.69998l2.20007,-4.5z" class="st2" fill=" rgb(251, 223, 59)"/>
     <path id="svg_19" d="m1378.46779,846.95116l2.69995,4.20001l4.5,2.20001l-4.29993,2.59998l-2.09997,4.6l-2.70007,-4.29998l-4.5,-2.20002l4.30004,-2.6l2.09998,-4.5z" class="st2" fill=" rgb(251, 223, 59)"/>
     <path id="svg_20" d="m1303.76778,747.15117l2.60003,4.29999l4.59998,2.1l-4.30005,2.70002l-2.09997,4.5l-2.69996,-4.30002l-4.5,-2.09998l4.19996,-2.70001l2.20001,-4.5z" class="st2" fill=" rgb(251, 223, 59)"/>
     <path id="svg_21" d="m1457.36781,683.15117l1.40003,2.20001l2.3999,1.19998l-2.29993,1.4l-1.09997,2.30002l-1.40003,-2.20002l-2.30004,-1.1l2.20007,-1.4l1.09997,-2.39999z" class="st2" fill=" rgb(251, 223, 59)"/>
     <path id="svg_22" d="m1378.36781,731.75118l3.40003,5.39999l5.69995,2.70001l-5.40002,3.4l-2.69996,5.69998l-3.40002,-5.4l-5.69995,-2.69998l5.3999,-3.30002l2.70007,-5.79998z" class="st2" fill=" rgb(251, 223, 59)"/>
     <path id="svg_23" d="m1333.06777,810.45116l1.40002,2.20001l2.30005,1.10001l-2.20007,1.39999l-1.09998,2.39999l-1.40002,-2.29998l-2.40003,-1.10001l2.30005,-1.39999l1.09998,-2.30002z" class="st2" fill=" rgb(251, 223, 59)"/>
     <path id="svg_24" d="m1448.76784,815.55116l4.29993,6.9l7.40002,3.5l-7,4.30002l-3.5,7.39999l-4.30005,-6.89999l-7.29993,-3.5l6.90003,-4.4l3.5,-7.30002z" class="st2" fill=" rgb(251, 223, 59)"/>
    </g>
   </g>
  </g>
  <g stroke="null" id="svg_26" class="currentLayer">
   <title stroke="null">Layer 1</title>
   <path transform="rotate(-153.988 1584.67 853.096)" stroke="null" opstroke="null" id="svg_12" d="m1584.44127,840.21999c-29.8441,-1.98038 -75.21405,43.24091 -77.14313,73.55843c-0.86882,13.65442 8.68794,22.48047 25.57366,23.60096c18.35519,1.218 31.09983,-7.79013 45.82082,-6.81328c14.84876,0.98533 26.37852,11.60425 44.5721,12.81153c16.88572,1.12049 27.48059,-6.36834 28.34941,-20.02276c1.92908,-30.31751 -37.32876,-81.1545 -67.17285,-83.13488l0,0zm-55.03727,-8.60656c-3.04596,-13.81597 -14.52869,-23.39453 -25.64592,-21.39768c-11.11723,1.99685 -17.65816,14.81519 -14.61219,28.63117c3.04596,13.81597 14.52869,23.39453 25.64592,21.39768c11.11723,-1.99685 17.65816,-14.81519 14.61219,-28.63117zm32.35702,-6.01725c11.8306,-2.41312 18.68893,-18.38108 15.32011,-35.66418s-15.69062,-29.33364 -27.52122,-26.92052s-18.68893,18.38108 -15.32011,35.66418c3.36882,17.2831 15.69413,29.3378 27.52122,26.92052zm106.48321,-4.46161c-10.77069,-3.44927 -23.36694,4.53146 -28.14185,17.82846c-4.77115,13.29725 0.09038,26.87224 10.86108,30.32151c10.77069,3.44927 23.36694,-4.53146 28.14185,-17.82846c4.77115,-13.29725 -0.09038,-26.87224 -10.86108,-30.32151zm-59.46025,7.58194c11.42532,3.95633 25.17059,-6.36447 30.70126,-23.05702c5.53067,-16.69255 0.75327,-33.42869 -10.6718,-37.38894s-25.17059,6.36447 -30.70126,23.05702c-5.53067,16.69255 -0.75352,33.43261 10.6718,37.38894z" fill="#c8ee94" class="selected"/>
   <path transform="rotate(-33.3027 240.747 533.971)" stroke="null" opstroke="null" d="m232.52128,543.72155c10.94426,14.78208 45.96942,15.14528 58.28351,2.14487c5.54602,-5.85513 5.16439,-14.34377 -1.02785,-22.70744c-6.73111,-9.09151 -15.16131,-10.88717 -20.55971,-18.17862c-5.44526,-7.35475 -5.91683,-17.58245 -12.58869,-26.59392c-6.19224,-8.36367 -13.2005,-9.85634 -18.74653,-4.0012c-12.31409,13.00041 -16.305,54.55423 -5.36073,69.33632zm18.29421,29.53158c-4.07297,7.74914 -3.22321,17.47808 1.89613,21.73107c5.11933,4.25298 12.57016,1.41801 16.64313,-6.33112c4.07297,-7.74915 3.22322,-17.47809 -1.89612,-21.73108c-5.11933,-4.25298 -12.57016,-1.41802 -16.64314,6.33113zm-14.97828,-12.2843c-5.55769,-4.39381 -14.33365,-0.26265 -19.60182,9.22587s-5.03188,20.74069 0.5258,25.13449s14.33365,0.26265 19.60183,-9.22588c5.26817,-9.48852 5.03209,-20.74422 -0.52581,-25.13449zm-43.44357,-47.4581c2.90728,6.58832 10.88763,8.78594 17.82863,4.91056c6.93963,-3.87724 10.20901,-12.35997 7.30172,-18.9483c-2.90728,-6.58832 -10.88763,-8.78594 -17.82863,-4.91056c-6.93963,3.87724 -10.20901,12.35997 -7.30172,18.9483zm26.19956,24.16715c-2.9706,-7.12508 -12.29348,-8.78421 -20.82522,-3.70369c-8.53175,5.08053 -13.03923,14.97317 -10.07022,22.09994s12.29348,8.78421 20.82522,3.70369c8.53174,-5.08052 13.04081,-14.97484 10.07021,-22.09993z" fill="#87ceeb" id="svg_11" opacity="0.74"/>
   <path transform="rotate(87.9915 1734.2 555.357)" stroke="null" opstroke="null" d="m1736.06392,562.1024c10.6058,-6.03452 17.67923,-34.54884 12.65223,-47.1472c-2.26407,-5.67406 -7.19735,-7.02652 -13.19808,-3.6122c-6.52295,3.71145 -9.20317,10.2397 -14.43462,13.21631c-5.27686,3.00244 -11.22312,1.38251 -17.68864,5.06128c-6.00074,3.41432 -8.22881,8.84147 -5.96474,14.51553c5.027,12.59836 28.02805,24.0008 38.63386,17.96628zm20.4884,-9.14196c3.63685,4.8431 9.37178,6.05662 12.80946,2.71217c3.43768,-3.34444 3.27559,-9.98108 -0.36127,-14.82418c-3.63684,-4.8431 -9.37177,-6.05662 -12.80946,-2.71217c-3.43767,3.34444 -3.27558,9.98108 0.36127,14.82418zm-9.96693,9.81647c-3.6042,3.6746 -2.95998,11.64681 1.43812,17.80632s10.8846,8.17228 14.4888,4.49768s2.95998,-11.64681 -1.43812,-17.80632c-4.39811,-6.1595 -10.88658,-8.17314 -14.4888,-4.49768zm-35.67837,26.15349c4.34071,-1.08133 7.16281,-7.16366 6.30529,-13.58814c-0.85885,-6.42374 -5.07308,-10.75477 -9.41379,-9.67345c-4.3407,1.08133 -7.16281,7.16366 -6.30529,13.58814c0.85885,6.42374 5.07308,10.75477 9.41379,9.67345zm18.96766,-16.64538c-4.66034,1.02778 -7.43739,8.31136 -6.20193,16.27035c1.23546,7.95899 6.01397,13.57687 10.67496,12.55071s7.43739,-8.31136 6.20193,-16.27035c-1.23546,-7.95899 -6.01463,-13.57849 -10.67496,-12.55071z" fill="#494454" opacity="0.67" id="svg_10"/>
  </g>
 </g>

</svg>