
<svg xmlns="http://www.w3.org/2000/svg" xmlns:xlink="http://www.w3.org/1999/xlink" width="2000" height="900" version="1.1" style=""><rect id="backgroundrect" width="100%" height="100%" x="0" y="0" fill="none" stroke="none"/><g class="currentLayer" style=""><title>Layer 1</title><path d="M-189.8641104258529,465.1223669660351 L-173.30263004955896,465.5804451707779 C-156.68157600284644,466.038523375521 -123.55861525025853,466.95467978500665 -90.49522816808872,465.8552920936238 C-57.43184108591902,464.84752004318943 -24.428027674167538,461.73258825093785 8.63535940800216,458.8925033815317 C41.698746490171914,455.9608028711773 74.82170724275989,453.21233364271984 108.00424166576636,440.66099083276504 C141.18677608877272,428.20126366375825 174.30973684136075,405.8470472723054 207.3731239235305,407.679360091277 C240.4365110057002,409.5116729102483 273.4403244174516,435.5305149396445 306.5037114996214,452.47940851513135 C339.56709858179113,469.4283020906182 372.69005933437916,477.3072472121962 405.8725937573855,482.07126054152195 C439.05512818039193,486.83527387084814 472.17808893297996,488.30112412602534 505.2414760151497,484.1784202833394 C538.3048630973194,480.05571644065344 571.3086765090709,470.3444585001041 604.3720635912406,452.57102415608006 C637.4354506734103,434.88920545300425 670.5584114259984,409.2368259874024 703.7409458490048,396.6854831774476 C736.9234802720113,384.22575600844084 770.0464410245992,384.7754498541324 803.1098281067689,397.78487086883024 C836.1732151889387,410.79429188352833 869.1770286006902,436.080208785336 902.2404156828599,446.9824700582167 C935.3038027650297,457.79311569014885 968.4267635176177,454.12849005220573 985.0478175643299,452.2961772332342 L1001.609297940624,450.4638644142626 L1001.609297940624,133.47374673218303 L985.0478175643299,133.47374673218303 C968.4267635176177,133.47374673218303 935.3038027650297,133.47374673218303 902.2404156828599,133.47374673218303 C869.1770286006902,133.47374673218303 836.1732151889387,133.47374673218303 803.1098281067689,133.47374673218303 C770.0464410245992,133.47374673218303 736.9234802720113,133.47374673218303 703.7409458490048,133.47374673218303 C670.5584114259984,133.47374673218303 637.4354506734103,133.47374673218303 604.3720635912406,133.47374673218303 C571.3086765090709,133.47374673218303 538.3048630973194,133.47374673218303 505.2414760151497,133.47374673218303 C472.17808893297996,133.47374673218303 439.05512818039193,133.47374673218303 405.8725937573855,133.47374673218303 C372.69005933437916,133.47374673218303 339.56709858179113,133.47374673218303 306.5037114996214,133.47374673218303 C273.4403244174516,133.47374673218303 240.4365110057002,133.47374673218303 207.3731239235305,133.47374673218303 C174.30973684136075,133.47374673218303 141.18677608877272,133.47374673218303 108.00424166576636,133.47374673218303 C74.82170724275989,133.47374673218303 41.698746490171914,133.47374673218303 8.63535940800216,133.47374673218303 C-24.428027674167538,133.47374673218303 -57.43184108591902,133.47374673218303 -90.49522816808872,133.47374673218303 C-123.55861525025853,133.47374673218303 -156.68157600284644,133.47374673218303 -173.30263004955896,133.47374673218303 L-189.8641104258529,133.47374673218303 z" fill="#AFDE7F" class="" id="svg_5" transform="rotate(-32.26438903808594 405.872589111328,310.03173828125) " fill-opacity="1"/><path d="M0 362L27.8 362.5C55.7 363 111.3 364 166.8 362.8C222.3 361.7 277.7 358.3 333.2 355.2C388.7 352 444.3 349 500 335.3C555.7 321.7 611.3 297.3 666.8 299.3C722.3 301.3 777.7 329.7 833.2 348.2C888.7 366.7 944.3 375.3 1000 380.5C1055.7 385.7 1111.3 387.3 1166.8 382.8C1222.3 378.3 1277.7 367.7 1333.2 348.3C1388.7 329 1444.3 301 1500 287.3C1555.7 273.7 1611.3 274.3 1666.8 288.5C1722.3 302.7 1777.7 330.3 1833.2 342.2C1888.7 354 1944.3 350 1972.2 348L2000 346L2000 0L1972.2 0C1944.3 0 1888.7 0 1833.2 0C1777.7 0 1722.3 0 1666.8 0C1611.3 0 1555.7 0 1500 0C1444.3 0 1388.7 0 1333.2 0C1277.7 0 1222.3 0 1166.8 0C1111.3 0 1055.7 0 1000 0C944.3 0 888.7 0 833.2 0C777.7 0 722.3 0 666.8 0C611.3 0 555.7 0 500 0C444.3 0 388.7 0 333.2 0C277.7 0 222.3 0 166.8 0C111.3 0 55.7 0 27.8 0L0 0Z" fill="#877aff" id="svg_1" class=""/><path d="M0 209L27.8 210C55.7 211 111.3 213 166.8 225.3C222.3 237.7 277.7 260.3 333.2 274C388.7 287.7 444.3 292.3 500 279.7C555.7 267 611.3 237 666.8 225.8C722.3 214.7 777.7 222.3 833.2 226.5C888.7 230.7 944.3 231.3 1000 241.5C1055.7 251.7 1111.3 271.3 1166.8 284.2C1222.3 297 1277.7 303 1333.2 291.2C1388.7 279.3 1444.3 249.7 1500 234.3C1555.7 219 1611.3 218 1666.8 216.5C1722.3 215 1777.7 213 1833.2 227.3C1888.7 241.7 1944.3 272.3 1972.2 287.7L2000 303L2000 0L1972.2 0C1944.3 0 1888.7 0 1833.2 0C1777.7 0 1722.3 0 1666.8 0C1611.3 0 1555.7 0 1500 0C1444.3 0 1388.7 0 1333.2 0C1277.7 0 1222.3 0 1166.8 0C1111.3 0 1055.7 0 1000 0C944.3 0 888.7 0 833.2 0C777.7 0 722.3 0 666.8 0C611.3 0 555.7 0 500 0C444.3 0 388.7 0 333.2 0C277.7 0 222.3 0 166.8 0C111.3 0 55.7 0 27.8 0L0 0Z" fill="#5f51fd" id="svg_2"/><path d="M0 156L27.8 163.3C55.7 170.7 111.3 185.3 166.8 185.5C222.3 185.7 277.7 171.3 333.2 175C388.7 178.7 444.3 200.3 500 207.3C555.7 214.3 611.3 206.7 666.8 200.2C722.3 193.7 777.7 188.3 833.2 191.3C888.7 194.3 944.3 205.7 1000 205C1055.7 204.3 1111.3 191.7 1166.8 192.3C1222.3 193 1277.7 207 1333.2 203.5C1388.7 200 1444.3 179 1500 177.7C1555.7 176.3 1611.3 194.7 1666.8 197.8C1722.3 201 1777.7 189 1833.2 180.5C1888.7 172 1944.3 167 1972.2 164.5L2000 162L2000 0L1972.2 0C1944.3 0 1888.7 0 1833.2 0C1777.7 0 1722.3 0 1666.8 0C1611.3 0 1555.7 0 1500 0C1444.3 0 1388.7 0 1333.2 0C1277.7 0 1222.3 0 1166.8 0C1111.3 0 1055.7 0 1000 0C944.3 0 888.7 0 833.2 0C777.7 0 722.3 0 666.8 0C611.3 0 555.7 0 500 0C444.3 0 388.7 0 333.2 0C277.7 0 222.3 0 166.8 0C111.3 0 55.7 0 27.8 0L0 0Z" fill="#3f34e6" id="svg_3" class=""/><path d="M0 80L27.8 86.5C55.7 93 111.3 106 166.8 108C222.3 110 277.7 101 333.2 100.5C388.7 100 444.3 108 500 115.8C555.7 123.7 611.3 131.3 666.8 133.3C722.3 135.3 777.7 131.7 833.2 121.8C888.7 112 944.3 96 1000 88.2C1055.7 80.3 1111.3 80.7 1166.8 82C1222.3 83.3 1277.7 85.7 1333.2 93.8C1388.7 102 1444.3 116 1500 123.8C1555.7 131.7 1611.3 133.3 1666.8 126.8C1722.3 120.3 1777.7 105.7 1833.2 97.5C1888.7 89.3 1944.3 87.7 1972.2 86.8L2000 86L2000 0L1972.2 0C1944.3 0 1888.7 0 1833.2 0C1777.7 0 1722.3 0 1666.8 0C1611.3 0 1555.7 0 1500 0C1444.3 0 1388.7 0 1333.2 0C1277.7 0 1222.3 0 1166.8 0C1111.3 0 1055.7 0 1000 0C944.3 0 888.7 0 833.2 0C777.7 0 722.3 0 666.8 0C611.3 0 555.7 0 500 0C444.3 0 388.7 0 333.2 0C277.7 0 222.3 0 166.8 0C111.3 0 55.7 0 27.8 0L0 0Z" fill="#3026bc" id="svg_4"/></g></svg>