<?xml version="1.0" encoding="utf-8"?>
<svg id="master-artboard" viewBox="0 0 500 400" version="1.1" xmlns="http://www.w3.org/2000/svg" x="0px" y="0px" style="enable-background:new 0 0 1400 980;" width="500px" height="400px"><defs><radialGradient id="gradient-0" gradientUnits="objectBoundingBox" cx="0.5" cy="0.5" r="0.5">
                <stop offset="0" style="stop-color: #ffffff"/>
                <stop offset="1" style="stop-color: #cccccc"/>
              </radialGradient></defs><rect id="ee-background" x="0" y="0" width="500" height="400" style="fill: rgb(255, 255, 255); fill-opacity: 0; pointer-events: none;"/>


<g transform="matrix(1.100534200668335, 0.7063416242599487, -0.7063416242599487, 1.100534200668335, -646.3457531336664, -915.1168925717843)"><g transform="matrix(0.8636530041694641, 0.11995950341224665, -0.11995950341224665, 0.8636530041694641, 230.06339659246098, -84.40148422066642)">
		<path class="st2" d="M1104.6,266.3c-4.8,0-9.5,0.6-14.1,1.6c23.1,10.1,39.3,34,39.3,62c0,28-16.2,51.9-39.3,62&#10;&#9;&#9;&#9;c4.5,1,9.2,1.6,14.1,1.6c35.1,0,63.6-28.5,63.6-63.6C1168.2,294.8,1139.7,266.3,1104.6,266.3z" style="fill: rgb(251, 223, 59); opacity: 1;"/>
		<path d="M 1051.800048828125 256.5 L 1055.699951171875 262.79998779296875 L 1062.4000244140625 265.8999938964844 L 1056.0999755859375 269.79998779296875 L 1052.9000244140625 276.5 L 1049 270.20001220703125 L 1042.4000244140625 267 L 1048.699951171875 263.20001220703125 Z" class="st2" style="fill: rgb(251, 223, 59); opacity: 1;"/>
		<path d="M 1117.800048828125 230.10000610351562 L 1120.4000244140625 234.39999389648438 L 1124.9000244140625 236.5 L 1120.699951171875 239.1999969482422 L 1118.5 243.6999969482422 L 1115.9000244140625 239.5 L 1111.4000244140625 237.3000030517578 L 1115.5999755859375 234.6999969482422 Z" class="st2" style="fill: rgb(251, 223, 59); opacity: 1;"/>
		<path d="M 1198.9000244140625 327.70001220703125 L 1201.5 332 L 1206 334.1000061035156 L 1201.800048828125 336.79998779296875 L 1199.5999755859375 341.29998779296875 L 1197 337 L 1192.5 334.8999938964844 L 1196.699951171875 332.20001220703125 Z" class="st2" style="fill: rgb(251, 223, 59); opacity: 1;"/>
		<path d="M 1096 434.29998779296875 L 1098.699951171875 438.5 L 1103.199951171875 440.70001220703125 L 1098.9000244140625 443.29998779296875 L 1096.800048828125 447.8999938964844 L 1094.0999755859375 443.6000061035156 L 1089.5999755859375 441.3999938964844 L 1093.9000244140625 438.79998779296875 Z" class="st2" style="fill: rgb(251, 223, 59); opacity: 1;"/>
		<path d="M 1021.2999877929688 334.5 L 1023.9000244140625 338.79998779296875 L 1028.5 340.8999938964844 L 1024.199951171875 343.6000061035156 L 1022.0999755859375 348.1000061035156 L 1019.4000244140625 343.79998779296875 L 1014.9000244140625 341.70001220703125 L 1019.0999755859375 339 Z" class="st2" style="fill: rgb(251, 223, 59); opacity: 1;"/>
		<path d="M 1174.9000244140625 270.5 L 1176.300048828125 272.70001220703125 L 1178.699951171875 273.8999938964844 L 1176.4000244140625 275.29998779296875 L 1175.300048828125 277.6000061035156 L 1173.9000244140625 275.3999938964844 L 1171.5999755859375 274.29998779296875 L 1173.800048828125 272.8999938964844 Z" class="st2" style="fill: rgb(251, 223, 59); opacity: 1;"/>
		<path d="M 1095.9000244140625 319.1000061035156 L 1099.300048828125 324.5 L 1105 327.20001220703125 L 1099.5999755859375 330.6000061035156 L 1096.9000244140625 336.29998779296875 L 1093.5 330.8999938964844 L 1087.800048828125 328.20001220703125 L 1093.199951171875 324.8999938964844 Z" class="st2" style="fill: rgb(251, 223, 59); opacity: 1;"/>
		<path d="M 1050.5999755859375 397.79998779296875 L 1052 400 L 1054.300048828125 401.1000061035156 L 1052.0999755859375 402.5 L 1051 404.8999938964844 L 1049.5999755859375 402.6000061035156 L 1047.199951171875 401.5 L 1049.5 400.1000061035156 Z" class="st2" style="fill: rgb(251, 223, 59); opacity: 1;"/>
		<path d="M 1166.300048828125 402.8999938964844 L 1170.5999755859375 409.79998779296875 L 1178 413.29998779296875 L 1171 417.6000061035156 L 1167.5 425 L 1163.199951171875 418.1000061035156 L 1155.9000244140625 414.6000061035156 L 1162.800048828125 410.20001220703125 Z" class="st2" style="fill: rgb(251, 223, 59); opacity: 1;"/>
	</g></g></svg>