<svg xmlns="http://www.w3.org/2000/svg" width="2000" height="1000" version="1.1" style=""><rect id="backgroundrect" width="100%" height="100%" x="0" y="0" fill="none" stroke="none"/>
 <g style="" class="currentLayer">
  <title>Layer 1</title>
  <g id="svg_2" transform="rotate(180 1350,450.0190124511718) " class="">
   <path d="m900,900.03944c64.7,-105.9 129.4,-211.8 193.2,-292.8c63.9,-80.9 126.9,-136.8 180,-234c53.1,-97.2 96.2,-235.6 182.4,-304.7c86.1,-69.1 215.3,-68.8 344.4,-68.5l0,900l-900,0z" fill="#00C38E" id="svg_3"/>
  </g>
  <g transform="rotate(5.754469871520996 1782.1600341796875,83.64900207519564) " stroke="null" id="svg_4">
   <path stroke="null" d="m2020.42192,-254.63516c-5.61244,88.78079 -11.22489,177.63675 -36.26911,258.90011c-25.04422,81.33854 -69.5202,155.15965 -121.25002,194.02474c-51.78276,38.86509 -110.81934,42.77415 -165.19653,74.19698c-54.37719,31.49801 -104.095,90.43462 -153.8128,149.4464l0,-676.56823l476.52846,0z" fill="#00C38E" id="svg_5"/>
  </g>
  <g id="svg_7">
   <path d="m325.48842,844.93733c64.7,-105.9 129.4,-211.8 193.2,-292.8c63.9,-80.9 126.9,-136.8 180,-234c53.1,-97.2 96.2,-235.6 182.4,-304.7c86.1,-69.1 215.3,-68.8 344.4,-68.5l0,900l-900,0z" fill="#00C38E" id="svg_6"/>
  </g>
  <path fill="#7ecef4" d="m665.39778,480.57378c-83.54372,0 -155.25278,43.07995 -190.35312,105.27195c-14.01889,-7.78225 -29.4817,-12.4944 -45.98417,-12.4944c-49.904,0 -91.43123,39.91861 -104.26642,94.10678c-21.90804,-8.61039 -47.38102,-13.82359 -74.59061,-13.82359c-81.6288,0 -147.84446,44.40949 -147.84446,99.1577c0,49.41955 54.30562,90.04698 124.85239,97.56264c-3.16183,5.33427 -5.61437,10.61668 -5.61437,16.21615c0,52.41847 144.42786,95.17005 322.42392,95.17005c177.99604,0 322.4241,-42.75161 322.42392,-95.17005c0,-3.5269 -2.20151,-6.67437 -3.47553,-10.10187c7.79626,1.92785 15.51566,3.98759 24.0615,3.98759c47.61664,0.00015 86.35399,-32.17128 86.35399,-71.77636c0,-39.6051 -38.73735,-71.77633 -86.35399,-71.77633c-5.83531,0 -10.79714,2.00419 -16.30835,2.92423c4.81902,-15.8361 8.02047,-31.99476 8.02047,-49.18009c0,-104.83686 -95.43699,-190.07436 -213.34513,-190.07436l-0.00006,-0.00006l0.00002,0.00002z" id="svg_9" stroke="null" transform="rotate(8.223420143127441 537.8720092773422,721.1569824218748) " class=""/><path fill="#ecabab" d="m1412.0969631314838,521.2821957371541 c62.42583810510771,0 116.00853911757706,39.32505535564029 142.2363410669544,96.09633393600032 c10.475245267427804,-7.1039407436970485 22.029421616171195,-11.405374696013158 34.36045643906868,-11.405374696013158 c37.28944587094392,0 68.31957161748204,36.43926114051238 77.91032832532672,85.90433212761535 c16.370204226484336,-7.859899173133945 35.404215706158055,-12.61871107008424 55.73586313874014,-12.61871107008424 c60.99496471445389,0 110.47286767571605,40.538711223336 110.47286767571605,90.5150085234076 c0,45.112089020549774 -40.57844015465793,82.1983886496673 -93.2926506645355,89.05897566367663 c2.3625939531525852,4.8693293059052145 4.195189688490931,9.691318785029212 4.195189688490931,14.802732974512884 c0,47.849619937069804 -107.91990356937855,86.87492637408016 -240.9227579419997,86.87492637408016 c-133.00283942814943,0 -240.92289244224534,-39.02533382217818 -240.9227579419997,-86.87492637408016 c0,-3.21949161347234 1.645020198367701,-6.0926247526755475 2.5969979923020543,-9.22138017675234 c-5.825549360087473,1.759816526420554 -11.593667115300773,3.640027378991797 -17.97932033151084,3.640027378991797 c-35.58027652765757,0.00013692583912808788 -64.52573813411816,-29.36719673216435 -64.52573813411816,-65.52025548373119 c0,-36.1530770083454 28.94546160646059,-65.52022809856336 64.52573813411816,-65.52022809856336 c4.360281267737611,0 8.067877676959831,1.8295026501474752 12.18598378024624,2.669350977023511 c-3.600885408804829,-14.455808540108686 -5.99308436046268,-29.20606240467841 -5.99308436046268,-44.893500610965695 c0,-95.6991668470254 71.31276997216287,-173.50727493156103 159.41651324471974,-173.50727493156103 l0.00004483341520232144,-0.00005477033565123522 l-0.000014944471734107153,0.000018256778550411778 z" stroke="null" transform="rotate(-6.396479606628418 1507.3872070312502,740.8963623046881) " class="" id="svg_10" fill-opacity="1"/><path fill="#a2d8f2" d="m1133.0834352230029,780.9965344642536 c25.365002615740917,0 47.136842491584645,17.06325708301546 57.79378015145177,41.69648169230349 c4.2563244911740155,-3.082420764979929 8.951042611179979,-4.94882559747698 13.961415559813172,-4.94882559747698 c15.151528930432292,0 27.759757263746568,15.811102492612736 31.656694435367985,37.274142156496886 c6.6515770653468245,-3.4104333490411567 14.38551810042063,-5.475295815807627 22.64671740448846,-5.475295815807627 c24.783607020608997,0 44.88757640457958,17.589865930568727 44.88757640457958,39.274728193986356 c0,19.574267996525926 -16.487920257195064,35.66612239079089 -37.90687317887574,38.642951257317804 c0.9599743250663025,2.112816295288572 1.7045986189714486,4.20509170061963 1.7045986189714486,6.422949338305667 c0,20.762090705962606 -43.85025046389919,37.69528585231497 -97.89226017440258,37.69528585231497 c-54.042003638233076,0 -97.89231482483558,-16.933207028857154 -97.89226017440258,-37.69528585231497 c0,-1.396946872178061 0.6684081928429786,-2.6436077845300656 1.0552178852113125,-4.001183957483735 c-2.3670499146195105,0.7635895623716229 -4.710764094356186,1.5794185766618032 -7.3053966287190715,1.5794185766618032 c-14.4570555171926,0.00005941252398046741 -26.218238572925234,-12.74251296321546 -26.218238572925234,-28.42943139820422 c0,-15.686926356658628 11.76118305573263,-28.429419515699426 26.218238572925234,-28.429419515699426 c1.7716789893203144,0 3.2781576441954092,0.7938265762427479 4.951435492798483,1.1582392333293405 c-1.4631196085751006,-6.2724178067138245 -2.4351231011675267,-12.672596304995242 -2.4351231011675267,-19.479421843243504 c0,-41.524149725245756 28.975960143843725,-75.28531647714615 64.77446516034462,-75.28531647714615 l0.00001821681099362675,-0.00002376500959218712 l-0.000006072270331208903,0.00000792166986406237 z" stroke="null" transform="rotate(3.707819700241089 1171.802246093744,876.2877197265633) " class="selected" fill-opacity="1" id="svg_11"/>
  <path transform="rotate(14.537699699401855 137.0101013183598,865.6764526367188) rotate(45.36330032348633 127.23999786376935,872.7730102539062) " id="svg_1" d="m117.92958,921.82179c-13.41374,-6.62226 -23.02827,-27.66435 -20.84327,-45.61707c1.37779,-11.32055 30.44575,-80.04418 32.9843,-77.98286c0.82855,0.67279 8.20161,16.69515 16.38457,35.60526c13.10825,30.292 14.87811,35.94052 14.87811,47.4836c0,23.39734 -14.25217,42.56241 -31.36486,42.17673c-4.99372,-0.11256 -10.41121,-0.8621 -12.03884,-1.66565l0,0zm13.43906,-11.768c0.444,-3.02912 -0.59316,-4.50641 -3.16386,-4.50641c-5.85888,0 -13.98609,-9.74936 -15.80183,-18.95578c-1.9369,-9.82075 -7.0725,-10.98873 -7.83106,-1.781c-1.46146,17.74001 24.33461,42.04053 26.79674,25.24319l0,0z" stroke="null" fill="#7ecef4"/>
  <path stroke="null" transform="rotate(-17.345399856567383 285.5225219726556,896.5687255859373) rotate(45.36330032348633 127.23999786376935,872.7730102539062) " id="svg_8" d="m250.16152,822.70331c-8.07635,-3.98723 -13.86522,-16.65658 -12.54964,-27.46583c0.82956,-6.81605 18.33125,-48.19424 19.8597,-46.95313c0.49887,0.40508 4.93815,10.05207 9.86508,21.43777c7.89242,18.23868 8.95804,21.63962 8.95804,28.58966c0,14.08743 -8.58117,25.62663 -18.88464,25.39441c-3.0067,-0.06777 -6.26854,-0.51907 -7.24854,-1.00288l0,0zm8.0916,-7.08546c0.26733,-1.82382 -0.35714,-2.7133 -1.90495,-2.7133c-3.5276,0 -8.42096,-5.87005 -9.51421,-11.41319c-1.1662,-5.91303 -4.25832,-6.61626 -4.71504,-1.07233c-0.87994,10.68118 14.65176,25.31241 16.1342,15.19882l0,0z" fill="#7ecef4"/>
 </g>

</svg>