<?xml version="1.0" encoding="utf-8"?>
<!-- Generator: Adobe Illustrator 26.2.1, SVG Export Plug-In . SVG Version: 6.00 Build 0)  -->
<svg version="1.1" id="레이어_1" xmlns="http://www.w3.org/2000/svg" xmlns:xlink="http://www.w3.org/1999/xlink" x="0px"
	 y="0px" viewBox="0 0 1440 800" style="enable-background:new 0 0 1440 800;" xml:space="preserve">
<style type="text/css">
	.st0{fill:#202020;}
</style>
<path class="st0" d="M1313.5,359.5c0.3,1.2,0.8,2.8,1.3,4.8c0.7,2.8,2.4,10.5,3.3,21.7c0,0,0.8,9.5,0.5,18.4c-1.1,32-37.2,81-24,98
	c5.7,7.4,20,7.8,28,3c8.7-5.1,10.5-16.4,12-27c7.6-54.4,11.4-81.6,0-106c-3.2-6.8-9.4-19.7-23-31c-8.3-6.9-16.4-10.8-22-13"/>
<path class="st0" d="M1281,384l-12.6,40.5L1281,384z"/>
<polyline class="st0" points="1289.5,451.4 1281,384 1268.4,424.5 "/>
<path class="st0" d="M1331,307"/>
<polygon class="st0" points="1382,369 1331,307 1372,338 "/>
<path class="st0" d="M1440,539c0,0-100.3-217.6-59-257c2.1-2,9-8.3,19-15c13.6-9.2,40-26,40-26V539z"/>
<path class="st0" d="M62,376c-12.1-15-25.5-36.4-30-64c-8.2-50.4,18.1-93.2,14-95c-3.2-1.4-23.1,23.1-34,59
	c-11.8,38.7-4.7,77.4,10,153c12.1,62.3,20,77.9,33,91c19.3,19.6,43,26.9,58,30"/>
<path class="st0" d="M71,482c-2.7-27.8-8.1-38.9,12-46c14.2-5.1,46.7-13.2,52-11c-23.9,10.6-31.1,22.1-33,31
	c-3.5,16.4,10.1,28.3,10,57c0,9.7,24.4,73.7,23,79"/>
<path class="st0" d="M0,634.6l24,5.3c24,5.4,29.7-45.3,77.7-38.4c48,6.8,118.7,3.4,166.7,0.1c25.4,44,115.6,54.6,163.6,57.1
	s96,17.1,144,20.8s96-3.7,144-10.5s96-13.2,144-7.2s96,24.4,144,22.2s96-24.8,144-26.8s96,16.6,144,16.6s96-18.6,120-28l24-9.3v88
	h-24c-24,0-72,0-120,0s-96,0-144,0s-96,0-144,0s-96,0-144,0s-96,0-144,0s-96,0-144,0s-96,0-144,0s-96,0-144,0s-96,0-144,0
	s-96,0-120,0H0V634.6z"/>
<path class="st0" d="M1442.5,750.3l-2.5-484c-2.4,2.8-6.1,7.1-10.7,12.4c-15.8,18.1-123.1,139.7-266.1,237.6
	C1056,589.6,850.1,689.3,576,679.6c-110.9-3.9-172.7-13.1-194.1-21.7c-110-44.2-204.2-79.8-235.2-111.9
	C60.9,457.1,19.9,363.1,0,304.6l-7,426.7L1442.5,750.3z"/>
</svg>
