<?xml version="1.0" encoding="UTF-8"?><svg xmlns="http://www.w3.org/2000/svg" viewBox="0 0 42.63 58"><defs><style>.d{fill:whitesmoke;}.e{fill:none;stroke:whitesmoke;stroke-miterlimit:10;}</style></defs><g id="a"/><g id="b"><g id="c"><path class="d" d="M38.53,34.1c-2.6-2.6-6.2-4.1-9.9-4.1s-7.3,1.5-9.9,4.1-4.1,6.2-4.1,9.9,1.5,7.3,4.1,9.9,6.2,4.1,9.9,4.1,7.3-1.5,9.9-4.1,4.1-6.2,4.1-9.9-1.5-7.3-4.1-9.9Zm-12,16.3c-.6,.6-1.4,.9-2.1,.9-.8,0-1.5-.3-2.1-.9-1.2-1.2-1.2-3.1,0-4.2,1.2-1.2,3.1-1.2,4.2,0h0c1.1,1.1,1.1,3,0,4.2Zm0-8.5c-.6,.6-1.4,.9-2.1,.9-.8,0-1.5-.3-2.1-.9-1.2-1.2-1.2-3.1,0-4.2,1.2-1.2,3.1-1.2,4.2,0h0c1.1,1.1,1.1,3,0,4.2Zm8.5,8.5c-.6,.6-1.4,.9-2.1,.9-.8,0-1.5-.3-2.1-.9-1.2-1.2-1.2-3.1,0-4.2,1.2-1.2,3.1-1.2,4.2,0h0c1.1,1.1,1.1,3,0,4.2Zm0-8.5c-.6,.6-1.4,.9-2.1,.9-.8,0-1.5-.3-2.1-.9-1.2-1.2-1.2-3.1,0-4.2,1.2-1.2,3.1-1.2,4.2,0,1.1,1.1,1.1,3,0,4.2Z"/></g></g></svg>