<?xml version="1.0" encoding="UTF-8"?><svg xmlns="http://www.w3.org/2000/svg" viewBox="0 0 66.65 57.96"><defs><style>.d{fill:#d8e79b;}.e{fill:none;stroke:#d8e79b;stroke-miterlimit:10;}</style></defs><g id="a"/><g id="b"><g id="c"><path class="d" d="M38.54,34.06c-2.6-2.6-6.2-4.1-9.9-4.1s-7.3,1.5-9.9,4.1-4.1,6.2-4.1,9.9,1.5,7.3,4.1,9.9,6.2,4.1,9.9,4.1,7.3-1.5,9.9-4.1,4.1-6.2,4.1-9.9-1.5-7.3-4.1-9.9Zm-12,16.3c-.6,.6-1.4,.9-2.1,.9-.8,0-1.5-.3-2.1-.9-1.2-1.2-1.2-3.1,0-4.2,1.2-1.2,3.1-1.2,4.2,0h0c1.1,1.1,1.1,3,0,4.2Zm0-8.5c-.6,.6-1.4,.9-2.1,.9-.8,0-1.5-.3-2.1-.9-1.2-1.2-1.2-3.1,0-4.2,1.2-1.2,3.1-1.2,4.2,0h0c1.1,1.1,1.1,3,0,4.2Zm8.5,8.5c-.6,.6-1.4,.9-2.1,.9-.8,0-1.5-.3-2.1-.9-1.2-1.2-1.2-3.1,0-4.2,1.2-1.2,3.1-1.2,4.2,0h0c1.1,1.1,1.1,3,0,4.2Zm0-8.5c-.6,.6-1.4,.9-2.1,.9-.8,0-1.5-.3-2.1-.9-1.2-1.2-1.2-3.1,0-4.2,1.2-1.2,3.1-1.2,4.2,0,1.1,1.1,1.1,3,0,4.2Z"/><path class="e" d="M.03,.5c4.61,.3,52.74,2.23,13.04,19.13-10.11,4.3,3.91,22.05,14.47,19.61"/><path class="e" d="M66.33,47.49c-2.92-2.49-7.44-7.72-13.65-10.11-.34-.13-10.04-3.53-23.43,1.54"/></g></g></svg>