<?xml version="1.0" encoding="utf-8"?>
<!-- Generator: Adobe Illustrator 26.2.1, SVG Export Plug-In . SVG Version: 6.00 Build 0)  -->
<svg version="1.1" id="레이어_1" xmlns="http://www.w3.org/2000/svg" xmlns:xlink="http://www.w3.org/1999/xlink" x="0px"
	 y="0px" viewBox="0 0 388.5 332.3" style="enable-background:new 0 0 388.5 332.3;" xml:space="preserve">
<style type="text/css">
	.st0{fill:#303030;}

</style>
<g id="a">
</g>
<g id="b">
	<g id="c">
		<path class="st0" d="M54,42.4c-5.8,7-20.3,25.1-25,36c-0.5,1.2-1.5,3.8-5,12c-3.8,9-3.9,9.1-4,10c-1,6.9,3.9,13,11,22
			c6.8,8.6,9.9,9.5,12,16c1.4,4.2,0.9,6.6,3,8c3.4,2.3,9-1.1,17-5c7.1-3.4,13.4-5.6,26-10c16.5-5.7,22.9-5.9,26-12
			c1.7-3.3,1.4-6.5,1-10c-3-28.6-6-31.6-6-44c0,0,0-12,3.9-31.7c0.8-3.9,1.1-5.3,1.1-5.3c1.6-7,2.5-8.7,2-9c-1.6-1.1-15,9-29,26
			c-5.2,6.3-9,4-9,4s-3.5-36.7-7-38C70.5,10.9,66.2,16.4,54,42.4z"/>
		<path class="st0" d="M388.5,252.9c-4.1,16.8-26,50.9-33,49c-3.4-0.9,4-9,6-33c1.5-17.9-8.3-21.2-12-22c-5.5-1.2-9.3,9.3-14,6
			c-13-9-21-16-17-28c0.7-2.1-23,19-13,44c2.5,6.2-14.3,13.2-22.5,18.5c-2.5,1.6-7.6,4.8-15.1,9.9c-3.6,2.5-5.8,4-9.9,7.1
			c-21.3,15.8-10.6,14.8-20.5,19.5c-22.2,10.5-60.4,10.1-61.5,4.5c-0.4-2.3,3.7-4.9,7-7c12.9-8.1,23-4.3,34-8c8.1-2.7,7.8-6.5,24-24
			c21.1-22.7,7.6-29.5,9-40.8c0.4-3.2,1.8-5.2,2.5-6.7c4.6-9.2,7-25.8,2.5-31.5c-10.7-13.8-64.5,29.1-92,10c-4-2.8-14.9-12-32-20
			c-4.4-2-7.3-3.1-11-3c-9.9,0.3-17.2,9.3-26,22c-22.5,32.4-25,45.7-42,59c-2,1.6-8.4,6.5-18,10c-3.1,1.2-13.4,4.7-26,3
			c-3.7-0.5-7.5-1.1-8-3c-0.8-3.3,8.6-8.5,14-11c7.6-3.5,12.6-3.8,17-5c9.7-2.6,15.3-8.8,26-21c18.7-21.3,32.1-36.4,34-58
			c1-10.8-1.5-17.2,3-29c3.9-10.4,8.7-12.9,8-20c-1-10.5-12.2-13.2-12-22c0.2-6,5.6-12.9,12-15c15.5-5,27.1,21.9,59,31
			c5.9,1.7,14.9,1.8,33,2c21.1,0.2,50.9,0.4,86-10c3.6-1.1,6.1-1.4,8.4-1.2c6.2,0.5,10.7,2.9,12.1,3.7c13.3,7.5,27.6,3.6,38,11
			c9.9,7,5.7,16.8,15,60c6.4,29.7,10.1,28.9,17,31"/>
		<path class="st0" d="M117.6,155.9c-3.3,42.8,15,77,21,85c2,2.7-2.1-2.6,0,0c5.9,7.4,11.7,12.3,12,15c0.7,6.9-13,17-8,17
			c1.1,0,17.3-3.8,21-17c1.7-6,0.1-11.4-1-15c-1.1-3.9,0,0-7-12c-3.4-5.8-9.8,0.1-14-2c-11.5-5.8,3.4-44-11-78
			c-1.1-2.7-4.8-11.5-8-11C119,138.4,118,150.4,117.6,155.9L117.6,155.9z"/>
		<path class="st0" d="M241.6,48.9c5.1-18.9,36.4-33.5,58-24c22.4,9.8,24.1,41,25,58c1.9,34.9-13.8,69.5-27,70c-3.4,0.1-6.9-2-9,0
			c-3.2,3-0.9,13.3,5,17c8.8,5.5,23.1-5.3,24-6c12-9.3,15-23.4,19-44c2.5-12.9,5.1-26,4-44c-1.7-28-3.4-55.9-24-69
			c-23.7-15.1-62.4-4.1-78,19c-7.7,11.3-13.2,30.6-8,43c0.8,1.8,1.8,3.7,2,4c0.9,1.7,11,18.8,21,17c8.3-1.5,13.6-15.5,11-18
			c-2.2-2.1-8.8,5.3-15,3C242.6,72.4,238.9,58.8,241.6,48.9L241.6,48.9z"/>
	</g>
</g>
</svg>
