<svg id="visual" viewBox="0 0 1440 800" width="1440" height="800" xmlns="http://www.w3.org/2000/svg" xmlns:xlink="http://www.w3.org/1999/xlink" version="1.1"><path d="M0 563L24 561.2C48 559.3 96 555.7 144 557.7C192 559.7 240 567.3 288 561.5C336 555.7 384 536.3 432 537C480 537.7 528 558.3 576 554C624 549.7 672 520.3 720 512C768 503.7 816 516.3 864 528.2C912 540 960 551 1008 559C1056 567 1104 572 1152 561.5C1200 551 1248 525 1296 503.3C1344 481.7 1392 464.3 1416 455.7L1440 447L1440 801L1416 801C1392 801 1344 801 1296 801C1248 801 1200 801 1152 801C1104 801 1056 801 1008 801C960 801 912 801 864 801C816 801 768 801 720 801C672 801 624 801 576 801C528 801 480 801 432 801C384 801 336 801 288 801C240 801 192 801 144 801C96 801 48 801 24 801L0 801Z" fill="#635c91"></path><path d="M0 495L24 515.8C48 536.7 96 578.3 144 596.7C192 615 240 610 288 604.3C336 598.7 384 592.3 432 587.2C480 582 528 578 576 577C624 576 672 578 720 564C768 550 816 520 864 520.3C912 520.7 960 551.3 1008 563C1056 574.7 1104 567.3 1152 565.8C1200 564.3 1248 568.7 1296 568.3C1344 568 1392 563 1416 560.5L1440 558L1440 801L1416 801C1392 801 1344 801 1296 801C1248 801 1200 801 1152 801C1104 801 1056 801 1008 801C960 801 912 801 864 801C816 801 768 801 720 801C672 801 624 801 576 801C528 801 480 801 432 801C384 801 336 801 288 801C240 801 192 801 144 801C96 801 48 801 24 801L0 801Z" fill="#554f78"></path><path d="M0 542L24 549C48 556 96 570 144 573.7C192 577.3 240 570.7 288 578.2C336 585.7 384 607.3 432 616C480 624.7 528 620.3 576 617.8C624 615.3 672 614.7 720 615.2C768 615.7 816 617.3 864 619.2C912 621 960 623 1008 627.3C1056 631.7 1104 638.3 1152 634.3C1200 630.3 1248 615.7 1296 612.3C1344 609 1392 617 1416 621L1440 625L1440 801L1416 801C1392 801 1344 801 1296 801C1248 801 1200 801 1152 801C1104 801 1056 801 1008 801C960 801 912 801 864 801C816 801 768 801 720 801C672 801 624 801 576 801C528 801 480 801 432 801C384 801 336 801 288 801C240 801 192 801 144 801C96 801 48 801 24 801L0 801Z" fill="#484361"></path><path d="M0 597L24 600.5C48 604 96 611 144 620C192 629 240 640 288 646.5C336 653 384 655 432 648.5C480 642 528 627 576 627.3C624 627.7 672 643.3 720 656C768 668.7 816 678.3 864 674.3C912 670.3 960 652.7 1008 641.8C1056 631 1104 627 1152 630.8C1200 634.7 1248 646.3 1296 660.2C1344 674 1392 690 1416 698L1440 706L1440 801L1416 801C1392 801 1344 801 1296 801C1248 801 1200 801 1152 801C1104 801 1056 801 1008 801C960 801 912 801 864 801C816 801 768 801 720 801C672 801 624 801 576 801C528 801 480 801 432 801C384 801 336 801 288 801C240 801 192 801 144 801C96 801 48 801 24 801L0 801Z" fill="#3a374a"></path><path d="M0 694L24 695.3C48 696.7 96 699.3 144 696.7C192 694 240 686 288 678.3C336 670.7 384 663.3 432 671.8C480 680.3 528 704.7 576 710.5C624 716.3 672 703.7 720 705.8C768 708 816 725 864 718.8C912 712.7 960 683.3 1008 667.7C1056 652 1104 650 1152 656.8C1200 663.7 1248 679.3 1296 694.7C1344 710 1392 725 1416 732.5L1440 740L1440 801L1416 801C1392 801 1344 801 1296 801C1248 801 1200 801 1152 801C1104 801 1056 801 1008 801C960 801 912 801 864 801C816 801 768 801 720 801C672 801 624 801 576 801C528 801 480 801 432 801C384 801 336 801 288 801C240 801 192 801 144 801C96 801 48 801 24 801L0 801Z" fill="#2d2b34"></path><path d="M0 711L24 716.3C48 721.7 96 732.3 144 739.2C192 746 240 749 288 745.7C336 742.3 384 732.7 432 735.2C480 737.7 528 752.3 576 756C624 759.7 672 752.3 720 745.5C768 738.7 816 732.3 864 738.3C912 744.3 960 762.7 1008 760.5C1056 758.3 1104 735.7 1152 733.7C1200 731.7 1248 750.3 1296 750.3C1344 750.3 1392 731.7 1416 722.3L1440 713L1440 801L1416 801C1392 801 1344 801 1296 801C1248 801 1200 801 1152 801C1104 801 1056 801 1008 801C960 801 912 801 864 801C816 801 768 801 720 801C672 801 624 801 576 801C528 801 480 801 432 801C384 801 336 801 288 801C240 801 192 801 144 801C96 801 48 801 24 801L0 801Z" fill="#202020"></path></svg>