<?xml version="1.0" encoding="utf-8"?>
<!-- Generator: Adobe Illustrator 26.2.1, SVG Export Plug-In . SVG Version: 6.00 Build 0)  -->
<svg version="1.1" id="Icons" xmlns="http://www.w3.org/2000/svg" xmlns:xlink="http://www.w3.org/1999/xlink" x="0px" y="0px"
	 viewBox="0 0 32 32" style="enable-background:new 0 0 32 32;" xml:space="preserve">
<style type="text/css">
	.st0{fill:#D8E79B;}
	.st1{fill:none;stroke:#D8E79B;stroke-miterlimit:10;}
</style>
<path class="st0" d="M25.9,6.1C23.3,3.5,19.7,2,16,2S8.7,3.5,6.1,6.1S2,12.3,2,16s1.5,7.3,4.1,9.9S12.3,30,16,30s7.3-1.5,9.9-4.1
	S30,19.7,30,16S28.5,8.7,25.9,6.1z M13.9,22.4c-0.6,0.6-1.4,0.9-2.1,0.9c-0.8,0-1.5-0.3-2.1-0.9c-1.2-1.2-1.2-3.1,0-4.2
	c1.2-1.2,3.1-1.2,4.2,0l0,0C15,19.3,15,21.2,13.9,22.4z M13.9,13.9c-0.6,0.6-1.4,0.9-2.1,0.9c-0.8,0-1.5-0.3-2.1-0.9
	c-1.2-1.2-1.2-3.1,0-4.2c1.2-1.2,3.1-1.2,4.2,0l0,0C15,10.8,15,12.7,13.9,13.9z M22.4,22.4c-0.6,0.6-1.4,0.9-2.1,0.9
	c-0.8,0-1.5-0.3-2.1-0.9c-1.2-1.2-1.2-3.1,0-4.2c1.2-1.2,3.1-1.2,4.2,0l0,0C23.5,19.3,23.5,21.2,22.4,22.4z M22.4,13.9
	c-0.6,0.6-1.4,0.9-2.1,0.9c-0.8,0-1.5-0.3-2.1-0.9c-1.2-1.2-1.2-3.1,0-4.2c1.2-1.2,3.1-1.2,4.2,0C23.5,10.8,23.5,12.7,22.4,13.9z"/>
<path class="st1" d="M-12.6-27.5c4.6,0.3,52.7,2.2,13,19.1C-9.7-4,4.3,13.7,14.9,11.3"/>
<path class="st0" d="M36.7,15.5"/>
<path class="st1" d="M53.7,19.5C50.8,17,46.3,11.8,40,9.4C39.7,9.3,30,5.9,16.6,11"/>
</svg>
