<?xml version="1.0" encoding="utf-8"?>
<!-- Generator: Adobe Illustrator 26.2.1, SVG Export Plug-In . SVG Version: 6.00 Build 0)  -->
<svg version="1.1" id="layer1" xmlns="http://www.w3.org/2000/svg" xmlns:xlink="http://www.w3.org/1999/xlink" x="0px"
	 y="0px" viewBox="0 0 956 693" style="enable-background:new 0 0 956 693;" xml:space="preserve">
<style type="text/css">
	.st0{fill:#202020;}
	.st1{fill:none;stroke:#202020;stroke-miterlimit:10;}
	.st2{fill:none;stroke:#202020;stroke-width:3;stroke-miterlimit:10;}
</style>
<path class="st0" d="M836.1,259c-46.4-32.5-166-75-175-64.9c-22.8,25.6-72.2,78.3-112.3,78.7c-2.9,0-13.9,1-27.3-1.9
	c-10.1-2.2-21.8-4.7-22.7-10.3c-1.3-8.4,23.1-21.9,27.7-33c4.2-10.2-0.5-10.3,3.3-29.1c2.3-11.5,5.5-26.7,18.2-40.7
	c1.8-1.9,7.1-7.6,17.6-14.2c9.6-6.1,30.3-17.3,69.9-22.6c46.3-6.3,66.3,2.5,80-11c4.9-4.9,6.8-10.6,10.3-20.7
	c5.6-16.4,2.8-34.9,2.8-34.9s-6.1,28.3-30.7,39.4c-13.6,6.2-19.7,0.1-51.8,3.7c-23.7,2.7-23.3,6.3-47.9,9.9
	c-36,5.2-39.5-2.3-63.2,3.4c-7.2,1.7-35.8,24.1-44.9,47.6c-7,17.9-4.3,42.1-10,54c-33,69-89.5,60.1-101,58c-4.9-0.9,29.9-64.2,18-71
	c-27.9-15.8-26.3-72-17.3-98.4c3-8.8,7.9-14.8,11.2-18.7c13.8-16.5,26.5-16.8,48.5-35.5c14.2-12.1,10.7-13.6,19.1-17.8
	c19.4-9.8,50.8-8.1,67.8,5.7c12.2,9.6,47.7,24.4,47.7,24.4s-22.2-17.5-29-28.3c-2.6-4-7.1-8.3-24.6-15.1C506,10,495.3,5.8,476.3,3.1
	c-8-1.1-67.2,33-67.2,33s-23.5-8.9-29.1,1c-5.3,9.3-21.9,45-21.9,45s39.8,170.4-85,13c-2.5-3.2,20.4-19.8-11.9-36.1
	c-16.6-8.4-25-13.7-46.4-24.2c-17.7-8.8-21.5-9.9-26.2-10.5c-14.6-1.9-31.9,2.1-42.5,12.4c-9.9,9.6-10.2,21.2-10.4,32.1
	c-0.4,18.6,6.9,23.7,8.1,50.3c0.5,11.2-0.6,15.8-2.2,19.7c-6,14.5-20.1,20.8-18.5,22.6s16.1-3.5,28.6-11.1
	c8.6-5.2,15.4-9.3,20.1-16.8c1.8-2.9-10.3-10.1-10.7-30.5c-0.5-25.8,9.4-28.5,14.5-34.7c8.3-10,32.5-12.2,44.9-3.5
	c6,4.2,7.7,9.9,10.4,19.2c4.5,15.4,0.1,23.2,7.1,38.8c1.1,2.4,2.1,4.7,4.1,7.6c8.8,13.1,19.9,14.7,23.6,20.2
	c10.4,15.6-34.4,67.5-73.1,61.2c-21.7-3.5-33.5-24-33.9-23.8c-0.6,0.4,35,46.1,61.6,41.1c2.8-0.5,1.9-0.9,21.9-11.8
	c20.7-11.3,22-11,26.8-15.1c13.3-11.2,11.6-20.3,18.3-20.8c12.1-0.9,23.1,37.3,23.7,21.5c2-50,46.3,11.9,49,12.9
	c8.1,3.2-16.2,54.6-45,89c-10.8,12.9-49.1,31-61.3,40.4c-1.7,1.3-2.4,1.8-3.3,2.4c-18.5,11.6-38.6,0.3-49.9,7.7
	c-8,5.2-3.3,14.3-6.4,26.9c-6.2,25.1-41.6,81.8-55.1,87.7c-55.2,24.5-139-6-139-6v232l148-91c0,0,68.7-37.4,98.1-76.1
	c17.9-23.5,27.5-36.5,30.3-56.5c2.8-20.2-3.5-32.4,5.8-51.7c8.3-17.2,22.8-27.2,27.4-30.2c43.2-28.9,107.7-13.3,112.1-12.2
	c63.5,16.1,61.4,49,84.4,39.9c9.4-3.8,18-11,49.2-9.7c24.8,16.7,12.3,63.6,32.8,71.7c28.2,11.2,46,37.1,90,16
	c34-22.1,26-20.1,57.7-38c3.7-0.5,55.3-32.1,57.3-32c-67.9,20.6-131,71-151,54c-9.3-7.7-18.8-11.5-37-39c-12.3-18.6-6.4-31-11-55
	c-8.4-12.3-7.5-8.2-26-8c-28.6,0.4-16.7-1.8-39-2.1c-38,14.2-87-44-87-44s49-6,103.7-12.1c35-3.9,80.6-81.2,115.3-94.9
	c22-8.7,94,9,94,9c23.7,12.5,48.3,21.5,72,34c12.7,32.2,25.3,64.3,38,96.5"/>
<path class="st0" d="M622.3,387.1"/>
<path class="st0" d="M573.9,384.6c0.7,2.2,25-1.6,33.3-3.9c11.5-3.2,19.5-8.4,23-10.9c10-7.1,44.3-1.7,44.3-1.7l-25.9-8.1
	C648.6,360.1,572.3,379.7,573.9,384.6z"/>
<path class="st0" d="M138.8,248.3c1,4.7,3.7,18.1,6.8,31.6c0,0,2.5,11.1,5.1,21.1c0.3,1.3,0.6,2.4,0.6,2.4c0.1,0.3,0.2,0.6,0.2,0.6
	c0.2,0.8,0.3,1.2,0.4,1.6c0.1,0.4,0.3,1,0.5,1.8c0.4,1.4,1.1,4.5,1.4,5.9c2.1,9.3,3.6,24.4,3.1,27.6c-0.3,2.1-0.8,4.6-0.8,4.6
	c0,0,0,0,0,0c-0.8,4.1-1.8,7.5-2.6,10c3.2,0.8,7,2.1,11.2,4.1c0.9,0.4,5.5,2.6,10.2,6.1c3.6,2.6,19.5,14.3,23.1,32.6
	c1.2,6.2,0.2,8.8,2.9,11.4c4.6,4.5,16.2,4.9,21.5-2.3c4.1-5.6,2.4-13.3-1.1-18.1c-5.2-7-4.4-7-5.2-7c-11.7-11.7-32.8-23.1-44.5-34.8
	c-1.1-7.5-2.3-15.1-3.4-22.6C158.4,299.5,148.6,273.9,138.8,248.3z"/>
<path class="st0" d="M263,462.9c6.1,5.9,32.8-3.4,41.8-6.8c1.2-4.8,3.6-11.6,9-18.1c14.8-17.5,38.6-16.1,41.8-15.8
	c4.3,5,13.4,14.4,28.2,20.3c16.3,6.6,30.7,5.4,37.3,4.5c-6.7,18.7-6.3,23.8-4.5,24.8c0.6,0.4,1.5,0.3,2.4,0.2c4.2-0.4,7-3.6,7.8-4.7
	c6.8,3,13.6,6,20.3,9c4,2,12.7,5.7,23.7,4.5c6.3-0.7,12.5-2.5,12.4-3.4c-0.1-0.6-3.4-1.1-17.2-0.3c-5.8-0.9-14.3-3-23.2-8.2
	c-4.4-2.6-7.9-5.4-10.7-7.9c-3.5,0.1-7,0.2-10.4,0.3c-0.7-10.9,1.8-15.8,4.5-18.4c0.8-0.7,2.3-1.9,2-2.5c-0.5-1.2-6.4,0-11.6,1.4
	c-4.8,0.5-11.9,0.8-20.3-0.6c-5.8-0.9-13.4-2.1-21.7-7.1c-7.8-4.6-13-10.4-16.4-15.2c-4.1-1.2-10-2.3-16.9-1.7
	c-2.3,0.2-21,2.1-31.3,16.1c-4.6,6.2-3.7,9.5-9,13.3c-4,2.8-8.1,3.5-16.4,4.8c-1.9,0.3-8.9,1.4-17.5,3.4c-2.6,0.6-5.7,1.4-6.2,3.4
	C260.3,460.3,262.4,462.3,263,462.9z"/>
<path class="st0" d="M305.1,177.5c-2,0.1,5.2,1.7,0.8,39c-1.3,10.9-9.3,30.2-10.2,36.4c-4.2,4.8-8.5,9.6-12.7,14.4l0,0
	c1.2,0.9,19.4,13.8,18.6,36.4c-0.7,19.5-15,30.7-16.9,32.2c1.4,0.8,9.7,5.6,19.5,2.5c1.7-0.5,7.6-2.4,11-7.6c2.1-3.3,4.1-9.3-4.2-33
	c-2.7-7.7-6.8-17.9-12.7-29.6c3.1-4.2,7.3-10.7,10.2-19.5c2.6-7.8,3.2-14.4,3.4-19.5C312.9,205.7,308.2,177.3,305.1,177.5z"/>
<polyline class="st0" points="0,693 0,693 0,693 "/>
<path class="st0" d="M531.3,280.8c5.7-7.2,72.1-92.6,64.4-124.5c-1-4.1-2.6-8.7-5.1-13.6c21.8,11,39.8,13.9,52.5,14.4
	c12.6,0.5,11.7-1.7,31.3-1.7c31.5-0.1,38.4,5.5,50.8-0.8c12-6.1,15.6-16.3,22.9-14.4c5,1.3,4.7,6.5,14.4,13.6
	c5,3.6,9.8,5.6,12.7,6.8c6.6,2.7,11.7,3.5,15.2,4.2c23.6,4.7,27.2,13.1,42.4,11.9c9.5-0.8,30.5-21.2,15.2-4.2
	c-0.6,0.7-18.3,15.3-39,12.7c-9.1-1.1-9-4.4-27.1-8.5c-10.5-2.4-13.4-1.9-19.5-5.1c-8.8-4.6-14.2-11.5-16.1-10.2
	c-1.2,0.9-12.3,9-13.5,11.9c-1.7,4.4,3.8-0.1-11.1,0.8c-21.5,1.2-22.9,0.7-31.3,1.7c-13.2,1.6-13.1,3.2-22,3.4
	c-10.7,0.2-14.8-2-26.3-3.4c-7-0.9-17.1-1.5-29.6,0c-0.8,11.9-41.5,83-42.4,94.9"/>
<polygon class="st1" points="483.3,315 492.3,339.4 478,391.8 492.3,379.4 510.4,319.5 476.8,280.8 478,339.4 468.4,357 
	460.7,368.1 460.7,368.1 465.2,339.4 457.3,307.1 "/>
<path class="st2" d="M446,319.5"/>
<path class="st1" d="M387.3,229.1l39.9-6.2c15.3,8.9,30.6,17.7,45.9,26.6c-13.2,12.4-26.3,24.8-39.5,37.3
	c-5.6-12.4-11.3-24.8-16.9-37.3c-35,3.1-44.1,1.4-44.6-1.1c-0.8-3.6,15-12.3,31.5-12.2c10,0.1,17.5,3.3,23.6,6.1
	c6.9,3.1,18.8,9.6,30.1,23"/>
<path class="st1" d="M496.8,408.7"/>
<path class="st0" d="M520.5,73.3c0,0-33.7,16.8-39.5,30.5c-0.2,0.6-0.8,2-1.6,3.6c-3.7,7.6-30,19-24.3,30.3c-10.5,1-20.9,2-31.4,3
	c-1.2,0.1-2.4,0.2-3.6,0.3c-20.7,15.8-41.4,31.6-62.1,47.4c-3-3.4-6-6.8-9-10.2c23-17.3,26.7-21,49.7-38.3
	c10.5,0,40.3-13.6,50.8-13.6c5.6-7.5,11.3-15.1,16.9-22.6C473.5,92.1,496.8,80.1,520.5,73.3z"/>
<polyline class="st1" points="371.9,286.7 416.6,249.5 427.1,222.9 "/>
</svg>
